{"glyphs":{"0":{"ha":684,"x_min":50,"x_max":633,"o":"m 301 0 l 301 88 q 195 179 240 94 q 142 460 142 282 l 142 526 q 229 818 145 724 q 302 860 266 856 l 302 948 q 106 798 174 943 q 50 477 50 677 q 218 20 50 106 q 301 0 258 1 m 382 0 q 576 146 510 4 q 633 477 633 269 q 479 918 633 821 q 381 948 433 945 l 381 860 q 490 766 442 854 q 543 526 543 670 l 543 460 q 408 95 543 149 q 382 88 396 91 l 382 0 z "},"1":{"ha":262,"x_min":50,"x_max":212,"o":"m 50 804 l 50 894 l 118 949 l 212 949 l 212 0 l 118 0 l 118 804 l 50 804 z "},"2":{"ha":686,"x_min":52,"x_max":637,"o":"m 52 705 q 142 888 60 815 q 293 949 209 944 l 293 863 q 202 826 248 863 q 133 689 146 779 l 52 705 m 77 0 l 77 90 l 625 90 l 625 0 l 77 0 m 77 151 q 309 445 77 321 q 346 464 323 452 q 380 481 372 477 q 509 574 477 536 q 547 674 547 620 q 399 860 547 840 q 358 863 378 863 l 358 949 q 616 795 556 949 q 636 674 636 739 q 533 477 633 553 q 477 441 509 458 q 420 411 461 431 q 233 286 283 340 q 176 151 178 224 l 77 151 z "},"3":{"ha":688,"x_min":52,"x_max":636,"o":"m 368 -4 l 368 83 q 532 174 488 84 q 549 259 549 212 q 342 430 545 429 l 342 515 q 549 686 548 517 q 442 850 549 812 q 368 863 408 861 l 368 949 q 590 845 515 949 q 636 689 636 779 q 533 473 635 541 q 636 256 636 400 q 526 39 636 111 q 368 -4 458 -4 m 52 240 l 133 256 q 258 90 152 123 q 293 83 278 83 l 293 -4 q 98 110 168 4 q 52 240 57 171 m 52 705 q 142 888 60 815 q 293 949 209 944 l 293 863 q 202 826 248 863 q 133 689 146 779 l 52 705 z "},"4":{"ha":675,"x_min":37,"x_max":625,"o":"m 37 195 l 37 282 l 393 888 l 393 726 l 133 282 l 393 282 l 393 195 l 37 195 m 458 0 l 458 951 l 552 951 l 552 282 l 625 282 l 625 195 l 552 195 l 552 0 l 458 0 z "},"5":{"ha":705,"x_min":53,"x_max":655,"o":"m 56 480 l 95 949 l 578 949 l 578 863 l 176 863 l 152 556 q 304 606 224 606 l 304 522 q 138 431 201 518 l 56 480 m 368 0 l 368 85 q 510 152 448 88 q 568 304 568 214 q 456 499 568 444 q 368 522 412 521 l 368 606 q 616 465 540 605 q 655 302 655 392 q 532 53 655 137 q 368 0 457 3 m 53 171 l 130 202 q 302 85 180 96 l 302 0 q 102 90 180 0 q 53 171 68 127 z "},"6":{"ha":713,"x_min":50,"x_max":663,"o":"m 330 -1 l 330 85 q 175 203 220 88 q 159 286 159 247 q 233 457 159 401 q 330 490 275 487 l 330 576 q 156 496 214 576 q 141 473 148 484 q 320 859 141 821 q 330 860 326 860 l 330 947 q 69 665 125 932 q 50 477 50 578 q 194 38 50 132 q 330 -1 252 1 m 404 -1 q 597 94 521 0 q 663 288 663 176 q 563 525 663 445 q 404 576 498 576 l 404 492 q 541 414 492 488 q 575 286 575 359 q 515 137 575 199 q 404 85 468 88 l 404 -1 m 555 757 l 628 806 q 487 933 583 898 q 403 948 445 948 l 403 861 q 543 781 494 861 q 555 757 549 769 z "},"7":{"ha":600,"x_min":50,"x_max":591,"o":"m 591 863 l 50 861 l 50 949 l 591 949 l 591 863 m 269 0 q 419 648 294 340 q 487 798 450 728 l 583 798 q 373 87 419 490 q 365 0 368 42 l 269 0 z "},"8":{"ha":693,"x_min":50,"x_max":643,"o":"m 309 -1 q 104 100 182 -1 q 50 266 50 174 q 157 473 52 411 q 54 677 58 547 q 141 879 54 796 q 312 948 216 948 l 312 861 q 160 758 202 854 q 144 677 144 719 q 222 537 144 579 q 311 517 260 518 l 311 430 q 149 339 186 426 q 137 273 137 309 q 239 103 137 148 q 309 85 273 88 l 309 -1 m 385 -1 l 385 85 q 536 179 492 94 q 556 273 556 221 q 434 423 556 395 q 382 430 408 429 l 382 517 q 538 613 502 519 q 551 677 551 643 q 484 823 551 769 q 381 861 441 857 l 381 948 q 579 848 502 948 q 639 677 639 772 q 544 477 639 545 q 537 473 540 476 q 643 266 643 411 q 555 64 643 144 q 385 -1 483 -1 z "},"9":{"ha":711,"x_min":50,"x_max":661,"o":"m 378 1 q 637 252 575 0 q 661 463 661 349 q 524 907 661 811 q 378 949 464 949 l 378 861 q 528 755 480 857 q 551 663 551 708 q 445 473 551 515 q 378 460 414 461 l 378 372 q 556 450 492 372 q 570 467 567 464 q 458 118 570 203 q 378 90 420 91 l 378 1 m 315 372 l 315 460 q 155 566 197 464 q 137 659 137 608 q 193 803 137 742 q 315 861 243 857 l 315 949 q 121 856 199 948 q 50 659 50 772 q 167 410 50 483 q 315 372 229 372 m 76 152 q 233 14 129 49 q 315 0 274 0 l 315 90 q 174 161 232 90 q 149 201 159 180 l 76 152 z "},"A":{"ha":620,"x_min":42,"x_max":583,"o":"m 42 0 l 224 806 l 247 806 l 279 655 l 133 0 l 42 0 m 233 164 l 252 254 l 433 254 l 279 948 l 372 948 l 583 0 l 491 0 l 456 164 l 233 164 z "},"Æ":{"ha":986,"x_min":90,"x_max":951,"o":"m 90 0 l 334 949 l 951 949 l 951 859 l 598 859 l 598 517 l 823 517 l 823 426 l 598 426 l 598 91 l 951 91 l 951 0 l 506 0 l 506 240 l 316 240 l 336 324 l 506 324 l 506 859 l 408 859 l 191 0 l 90 0 z "},"Á":{"ha":620,"x_min":42,"x_max":583,"o":"m 297 1039 l 347 1245 l 434 1245 l 359 1039 l 297 1039 m 42 0 l 224 806 l 247 806 l 279 655 l 133 0 l 42 0 m 233 164 l 252 254 l 433 254 l 279 948 l 372 948 l 583 0 l 491 0 l 456 164 l 233 164 z "},"Ă":{"ha":620,"x_min":42,"x_max":583,"o":"m 229 1137 l 285 1137 q 315 1095 285 1104 q 328 1093 323 1093 q 370 1123 361 1093 q 372 1137 372 1131 l 427 1137 q 385 1058 427 1088 q 328 1039 359 1039 q 239 1097 266 1039 q 229 1137 229 1118 m 42 0 l 224 806 l 247 806 l 279 655 l 133 0 l 42 0 m 233 164 l 252 254 l 433 254 l 279 948 l 372 948 l 583 0 l 491 0 l 456 164 l 233 164 z "},"Â":{"ha":620,"x_min":42,"x_max":583,"o":"m 198 1039 l 300 1245 l 357 1245 l 460 1039 l 393 1039 l 328 1171 l 264 1039 l 198 1039 m 42 0 l 224 806 l 247 806 l 279 655 l 133 0 l 42 0 m 233 164 l 252 254 l 433 254 l 279 948 l 372 948 l 583 0 l 491 0 l 456 164 l 233 164 z "},"Ä":{"ha":620,"x_min":42,"x_max":583,"o":"m 191 1095 q 227 1145 191 1131 q 247 1149 237 1149 q 300 1114 286 1149 q 302 1095 302 1104 q 266 1042 302 1055 q 247 1039 256 1039 q 195 1073 210 1039 q 191 1095 191 1084 m 354 1095 q 389 1145 354 1131 q 410 1149 400 1149 q 463 1114 449 1149 q 465 1095 465 1104 q 429 1042 465 1055 q 410 1039 419 1039 q 358 1073 373 1039 q 354 1095 354 1084 m 42 0 l 224 806 l 247 806 l 279 655 l 133 0 l 42 0 m 233 164 l 252 254 l 433 254 l 279 948 l 372 948 l 583 0 l 491 0 l 456 164 l 233 164 z "},"À":{"ha":620,"x_min":42,"x_max":583,"o":"m 218 1245 l 305 1245 l 355 1039 l 293 1039 l 218 1245 m 42 0 l 224 806 l 247 806 l 279 655 l 133 0 l 42 0 m 233 164 l 252 254 l 433 254 l 279 948 l 372 948 l 583 0 l 491 0 l 456 164 l 233 164 z "},"Ā":{"ha":620,"x_min":42,"x_max":583,"o":"m 114 1039 l 114 1099 l 543 1099 l 543 1039 l 114 1039 m 42 0 l 224 806 l 247 806 l 279 655 l 133 0 l 42 0 m 233 164 l 252 254 l 433 254 l 279 948 l 372 948 l 583 0 l 491 0 l 456 164 l 233 164 z "},"Ą":{"ha":620,"x_min":42,"x_max":709,"o":"m 709 -244 q 526 -140 576 -244 q 507 -54 507 -99 l 582 -54 q 654 -163 582 -134 q 709 -172 681 -172 l 709 -244 m 42 0 l 224 806 l 247 806 l 279 655 l 133 0 l 42 0 m 233 164 l 252 254 l 433 254 l 279 948 l 372 948 l 583 0 l 491 0 l 456 164 l 233 164 z "},"Å":{"ha":700,"x_min":83,"x_max":618,"o":"m 83 0 l 264 806 l 288 806 l 320 655 l 174 0 l 83 0 m 274 164 l 293 254 l 473 254 l 321 943 q 260 1015 273 960 q 258 1038 258 1027 q 311 1131 258 1100 q 363 1145 335 1145 q 458 1090 427 1145 q 472 1038 472 1065 q 418 948 472 975 q 414 945 415 947 l 618 0 l 528 0 l 492 164 l 274 164 m 315 1038 q 346 991 315 1004 q 363 989 355 989 q 411 1021 399 989 q 414 1038 414 1029 q 378 1085 414 1076 q 363 1088 372 1088 q 317 1055 330 1088 q 315 1038 315 1046 z "},"Ã":{"ha":620,"x_min":42,"x_max":583,"o":"m 137 1057 l 137 1134 q 232 1164 190 1164 q 328 1133 266 1164 q 410 1108 376 1108 q 518 1146 457 1109 l 518 1070 q 404 1032 456 1032 q 304 1063 368 1032 q 227 1086 258 1086 q 137 1057 184 1085 m 42 0 l 224 806 l 247 806 l 279 655 l 133 0 l 42 0 m 233 164 l 252 254 l 433 254 l 279 948 l 372 948 l 583 0 l 491 0 l 456 164 l 233 164 z "},"B":{"ha":685,"x_min":50,"x_max":635,"o":"m 50 0 l 142 0 l 142 949 l 50 949 l 50 0 m 208 -1 l 349 -1 q 581 107 500 -1 q 635 274 635 179 q 537 476 633 403 q 629 644 616 534 q 631 677 631 661 q 547 878 631 799 q 345 949 468 949 l 208 949 l 208 865 l 335 865 q 517 762 465 865 q 538 673 538 719 q 368 518 536 519 l 208 518 l 208 435 l 368 435 q 540 315 518 435 q 543 278 543 297 q 460 122 543 176 q 304 83 399 83 l 208 83 l 208 -1 z "},"C":{"ha":692,"x_min":53,"x_max":644,"o":"m 53 245 l 53 703 q 110 856 53 781 q 324 956 190 956 l 324 865 q 165 770 216 865 q 146 703 146 734 l 146 245 q 194 140 146 190 q 324 84 245 84 l 324 -7 q 91 122 168 -7 q 53 245 53 186 m 389 -7 l 389 84 q 434 92 389 84 q 548 199 522 121 q 557 244 555 218 q 559 267 559 254 l 644 247 q 549 53 644 130 q 389 -7 476 -7 m 389 865 l 389 956 q 572 871 491 958 q 644 700 644 792 l 557 677 q 556 700 557 694 q 548 739 556 720 q 515 799 536 773 q 473 837 494 825 q 433 856 452 849 q 401 864 414 863 l 389 865 z "},"Ć":{"ha":692,"x_min":53,"x_max":644,"o":"m 353 1039 l 403 1245 l 490 1245 l 415 1039 l 353 1039 m 53 245 l 53 703 q 110 856 53 781 q 324 956 190 956 l 324 865 q 165 770 216 865 q 146 703 146 734 l 146 245 q 194 140 146 190 q 324 84 245 84 l 324 -7 q 91 122 168 -7 q 53 245 53 186 m 389 -7 l 389 84 q 434 92 389 84 q 548 199 522 121 q 557 244 555 218 q 559 267 559 254 l 644 247 q 549 53 644 130 q 389 -7 476 -7 m 389 865 l 389 956 q 572 871 491 958 q 644 700 644 792 l 557 677 q 556 700 557 694 q 548 739 556 720 q 515 799 536 773 q 473 837 494 825 q 433 856 452 849 q 401 864 414 863 l 389 865 z "},"Č":{"ha":692,"x_min":53,"x_max":644,"o":"m 224 1245 l 290 1245 l 355 1114 l 419 1245 l 486 1245 l 382 1039 l 327 1039 l 224 1245 m 53 245 l 53 703 q 110 856 53 781 q 324 956 190 956 l 324 865 q 165 770 216 865 q 146 703 146 734 l 146 245 q 194 140 146 190 q 324 84 245 84 l 324 -7 q 91 122 168 -7 q 53 245 53 186 m 389 -7 l 389 84 q 434 92 389 84 q 548 199 522 121 q 557 244 555 218 q 559 267 559 254 l 644 247 q 549 53 644 130 q 389 -7 476 -7 m 389 865 l 389 956 q 572 871 491 958 q 644 700 644 792 l 557 677 q 556 700 557 694 q 548 739 556 720 q 515 799 536 773 q 473 837 494 825 q 433 856 452 849 q 401 864 414 863 l 389 865 z "},"Ç":{"ha":692,"x_min":53,"x_max":644,"o":"m 190 -245 l 190 -174 q 305 -110 274 -174 q 317 -56 317 -85 l 392 -56 q 321 -205 392 -151 q 190 -245 269 -245 m 53 245 l 53 703 q 110 856 53 781 q 324 956 190 956 l 324 865 q 165 770 216 865 q 146 703 146 734 l 146 245 q 194 140 146 190 q 324 84 245 84 l 324 -7 q 91 122 168 -7 q 53 245 53 186 m 389 -7 l 389 84 q 434 92 389 84 q 548 199 522 121 q 557 244 555 218 q 559 267 559 254 l 644 247 q 549 53 644 130 q 389 -7 476 -7 m 389 865 l 389 956 q 572 871 491 958 q 644 700 644 792 l 557 677 q 556 700 557 694 q 548 739 556 720 q 515 799 536 773 q 473 837 494 825 q 433 856 452 849 q 401 864 414 863 l 389 865 z "},"D":{"ha":640,"x_min":56,"x_max":587,"o":"m 56 0 l 56 949 l 148 949 l 148 0 l 56 0 m 212 0 l 212 91 q 420 122 363 91 q 494 267 492 164 l 494 682 q 374 844 494 812 q 212 859 320 859 l 212 949 q 543 841 464 949 q 587 682 587 779 l 587 267 q 400 16 587 62 q 212 0 331 0 z "},"Ď":{"ha":640,"x_min":56,"x_max":587,"o":"m 191 1245 l 258 1245 l 323 1114 l 387 1245 l 453 1245 l 350 1039 l 294 1039 l 191 1245 m 56 0 l 56 949 l 148 949 l 148 0 l 56 0 m 212 0 l 212 91 q 420 122 363 91 q 494 267 492 164 l 494 682 q 374 844 494 812 q 212 859 320 859 l 212 949 q 543 841 464 949 q 587 682 587 779 l 587 267 q 400 16 587 62 q 212 0 331 0 z "},"Đ":{"ha":632,"x_min":35,"x_max":643,"o":"m 35 438 l 35 524 l 111 524 l 111 949 l 205 949 l 205 524 l 281 524 l 281 438 l 205 438 l 205 0 l 111 0 l 111 438 l 35 438 m 269 0 l 269 91 q 477 122 420 91 q 551 267 549 164 l 551 682 q 429 845 551 814 q 269 859 374 859 l 269 949 q 598 842 518 949 q 643 682 643 780 l 643 267 q 457 18 643 64 q 269 0 388 0 z "},"E":{"ha":602,"x_min":56,"x_max":549,"o":"m 56 0 l 56 949 l 549 949 l 549 859 l 148 859 l 148 518 l 422 518 l 422 427 l 148 427 l 148 91 l 549 91 l 549 0 l 56 0 z "},"É":{"ha":602,"x_min":56,"x_max":549,"o":"m 326 1039 l 376 1245 l 463 1245 l 388 1039 l 326 1039 m 56 0 l 56 949 l 549 949 l 549 859 l 148 859 l 148 518 l 422 518 l 422 427 l 148 427 l 148 91 l 549 91 l 549 0 l 56 0 z "},"Ě":{"ha":602,"x_min":56,"x_max":549,"o":"m 172 1245 l 239 1245 l 304 1114 l 368 1245 l 434 1245 l 331 1039 l 275 1039 l 172 1245 m 56 0 l 56 949 l 549 949 l 549 859 l 148 859 l 148 518 l 422 518 l 422 427 l 148 427 l 148 91 l 549 91 l 549 0 l 56 0 z "},"Ê":{"ha":602,"x_min":56,"x_max":549,"o":"m 172 1039 l 274 1245 l 331 1245 l 434 1039 l 368 1039 l 302 1171 l 239 1039 l 172 1039 m 56 0 l 56 949 l 549 949 l 549 859 l 148 859 l 148 518 l 422 518 l 422 427 l 148 427 l 148 91 l 549 91 l 549 0 l 56 0 z "},"Ë":{"ha":602,"x_min":56,"x_max":549,"o":"m 167 1095 q 202 1145 167 1131 q 222 1149 213 1149 q 275 1114 262 1149 q 278 1095 278 1104 q 241 1042 278 1055 q 222 1039 232 1039 q 171 1073 186 1039 q 167 1095 167 1084 m 330 1095 q 365 1145 330 1131 q 385 1149 376 1149 q 438 1114 425 1149 q 441 1095 441 1104 q 404 1042 441 1055 q 385 1039 395 1039 q 334 1073 349 1039 q 330 1095 330 1084 m 56 0 l 56 949 l 549 949 l 549 859 l 148 859 l 148 518 l 422 518 l 422 427 l 148 427 l 148 91 l 549 91 l 549 0 l 56 0 z "},"Ė":{"ha":602,"x_min":56,"x_max":549,"o":"m 245 1097 q 281 1153 245 1137 q 304 1157 293 1157 q 358 1120 343 1157 q 362 1097 362 1109 q 326 1043 362 1057 q 304 1039 315 1039 q 250 1076 263 1039 q 245 1097 245 1086 m 56 0 l 56 949 l 549 949 l 549 859 l 148 859 l 148 518 l 422 518 l 422 427 l 148 427 l 148 91 l 549 91 l 549 0 l 56 0 z "},"È":{"ha":602,"x_min":56,"x_max":549,"o":"m 194 1245 l 281 1245 l 331 1039 l 269 1039 l 194 1245 m 56 0 l 56 949 l 549 949 l 549 859 l 148 859 l 148 518 l 422 518 l 422 427 l 148 427 l 148 91 l 549 91 l 549 0 l 56 0 z "},"Ē":{"ha":602,"x_min":56,"x_max":549,"o":"m 90 1039 l 90 1099 l 518 1099 l 518 1039 l 90 1039 m 56 0 l 56 949 l 549 949 l 549 859 l 148 859 l 148 518 l 422 518 l 422 427 l 148 427 l 148 91 l 549 91 l 549 0 l 56 0 z "},"Ę":{"ha":602,"x_min":56,"x_max":562,"o":"m 562 -244 l 562 -172 q 446 -109 477 -172 q 434 -54 434 -84 l 359 -54 q 430 -203 359 -149 q 562 -244 483 -244 m 56 0 l 56 949 l 549 949 l 549 859 l 148 859 l 148 518 l 422 518 l 422 427 l 148 427 l 148 91 l 549 91 l 549 0 l 56 0 z "},"Ð":{"ha":632,"x_min":35,"x_max":643,"o":"m 35 438 l 35 524 l 111 524 l 111 949 l 205 949 l 205 524 l 281 524 l 281 438 l 205 438 l 205 0 l 111 0 l 111 438 l 35 438 m 269 0 l 269 91 q 477 122 420 91 q 551 267 549 164 l 551 682 q 429 845 551 814 q 269 859 374 859 l 269 949 q 598 842 518 949 q 643 682 643 780 l 643 267 q 457 18 643 64 q 269 0 388 0 z "},"€":{"ha":697,"x_min":69,"x_max":709,"o":"m 69 373 l 69 430 l 125 430 l 125 511 l 69 511 l 69 568 l 125 568 l 125 694 q 190 861 125 784 q 389 954 269 952 l 389 863 q 236 772 283 863 q 216 699 216 734 l 216 568 l 555 568 l 555 511 l 216 511 l 216 430 l 555 430 l 555 373 l 216 373 l 216 254 q 271 132 216 183 q 389 85 320 85 l 389 -4 q 164 119 240 -1 q 125 245 126 183 l 125 373 l 69 373 m 456 -4 l 456 87 q 555 122 506 87 q 616 212 600 156 q 618 218 617 214 q 619 225 618 221 q 620 233 620 229 q 621 241 620 237 q 622 250 621 245 q 623 257 623 254 q 623 263 623 260 q 624 269 624 266 q 624 274 624 271 l 624 275 l 709 248 q 618 61 709 140 q 456 -4 544 -4 m 456 863 l 456 954 q 644 864 567 954 q 709 699 709 789 l 621 671 q 616 731 621 716 q 480 860 581 838 q 456 863 465 863 z "},"F":{"ha":598,"x_min":56,"x_max":549,"o":"m 56 1 l 56 949 l 549 949 l 549 859 l 148 859 l 148 518 l 422 518 l 422 427 l 148 427 l 148 1 l 56 1 z "},"G":{"ha":696,"x_min":53,"x_max":643,"o":"m 53 260 l 53 711 q 121 865 57 792 q 323 956 201 956 l 323 865 q 182 792 235 865 q 146 689 146 745 l 146 260 q 252 104 146 155 q 323 84 293 84 l 323 -7 q 160 50 240 -7 q 53 260 54 129 m 388 -7 l 388 84 q 492 137 437 84 q 551 258 549 193 l 551 392 l 388 392 l 388 479 l 643 479 l 643 239 q 559 75 643 156 q 388 -7 473 -5 m 388 865 l 388 956 q 572 869 491 958 q 643 700 643 791 l 553 667 q 552 697 553 690 q 450 849 545 803 q 388 865 415 865 z "},"Ğ":{"ha":696,"x_min":53,"x_max":643,"o":"m 255 1137 l 311 1137 q 340 1095 311 1104 q 354 1093 349 1093 q 396 1123 387 1093 q 397 1137 397 1131 l 453 1137 q 411 1058 453 1088 q 354 1039 385 1039 q 264 1097 292 1039 q 255 1137 255 1118 m 53 260 l 53 711 q 121 865 57 792 q 323 956 201 956 l 323 865 q 182 792 235 865 q 146 689 146 745 l 146 260 q 252 104 146 155 q 323 84 293 84 l 323 -7 q 160 50 240 -7 q 53 260 54 129 m 388 -7 l 388 84 q 492 137 437 84 q 551 258 549 193 l 551 392 l 388 392 l 388 479 l 643 479 l 643 239 q 559 75 643 156 q 388 -7 473 -5 m 388 865 l 388 956 q 572 869 491 958 q 643 700 643 791 l 553 667 q 552 697 553 690 q 450 849 545 803 q 388 865 415 865 z "},"H":{"ha":651,"x_min":54,"x_max":597,"o":"m 54 0 l 54 949 l 146 949 l 146 522 l 293 522 l 293 433 l 146 433 l 146 0 l 54 0 m 358 433 l 358 522 l 505 522 l 505 949 l 597 949 l 597 0 l 505 0 l 505 433 l 358 433 z "},"I":{"ha":206,"x_min":57,"x_max":149,"o":"m 57 0 l 57 949 l 149 949 l 149 0 l 57 0 z "},"Í":{"ha":206,"x_min":57,"x_max":209,"o":"m 72 1039 l 122 1245 l 209 1245 l 134 1039 l 72 1039 m 57 0 l 57 949 l 149 949 l 149 0 l 57 0 z "},"Î":{"ha":206,"x_min":-27,"x_max":235,"o":"m -27 1039 l 75 1245 l 132 1245 l 235 1039 l 168 1039 l 103 1171 l 39 1039 l -27 1039 m 57 0 l 57 949 l 149 949 l 149 0 l 57 0 z "},"Ï":{"ha":206,"x_min":-34,"x_max":240,"o":"m -34 1095 q 1 1145 -34 1131 q 22 1149 12 1149 q 75 1114 61 1149 q 77 1095 77 1104 q 41 1042 77 1055 q 22 1039 31 1039 q -30 1073 -15 1039 q -34 1095 -34 1084 m 129 1095 q 164 1145 129 1131 q 184 1149 175 1149 q 237 1114 224 1149 q 240 1095 240 1104 q 203 1042 240 1055 q 184 1039 194 1039 q 133 1073 148 1039 q 129 1095 129 1084 m 57 0 l 57 949 l 149 949 l 149 0 l 57 0 z "},"İ":{"ha":206,"x_min":45,"x_max":161,"o":"m 45 1097 q 80 1153 45 1137 q 103 1157 92 1157 q 157 1120 142 1157 q 161 1097 161 1109 q 125 1043 161 1057 q 103 1039 114 1039 q 49 1076 62 1039 q 45 1097 45 1086 m 57 0 l 57 949 l 149 949 l 149 0 l 57 0 z "},"Ì":{"ha":206,"x_min":-4,"x_max":149,"o":"m -4 1245 l 83 1245 l 133 1039 l 71 1039 l -4 1245 m 57 0 l 57 949 l 149 949 l 149 0 l 57 0 z "},"Ī":{"ha":206,"x_min":-111,"x_max":317,"o":"m -111 1039 l -111 1099 l 317 1099 l 317 1039 l -111 1039 m 57 0 l 57 949 l 149 949 l 149 0 l 57 0 z "},"Į":{"ha":206,"x_min":57,"x_max":267,"o":"m 267 -243 q 84 -138 134 -243 q 65 -53 65 -98 l 140 -53 q 212 -161 140 -133 q 267 -171 239 -171 l 267 -243 m 57 0 l 57 949 l 149 949 l 149 0 l 57 0 z "},"J":{"ha":669,"x_min":26,"x_max":618,"o":"m 26 262 l 26 328 l 118 328 l 118 269 q 210 107 118 160 q 282 84 250 84 l 282 -7 q 132 50 208 -7 q 26 262 27 132 m 349 -7 l 349 84 q 452 126 396 84 q 526 262 525 182 l 526 949 l 618 949 l 618 262 q 483 34 618 111 q 349 -7 412 -7 z "},"K":{"ha":665,"x_min":56,"x_max":640,"o":"m 56 0 l 56 949 l 148 949 l 148 0 l 56 0 m 206 463 l 533 949 l 635 949 l 309 463 l 640 0 l 538 0 l 206 463 z "},"L":{"ha":590,"x_min":56,"x_max":566,"o":"m 56 0 l 56 949 l 148 949 l 148 91 l 566 91 l 566 0 l 56 0 z "},"Ĺ":{"ha":590,"x_min":56,"x_max":566,"o":"m 72 1039 l 122 1245 l 209 1245 l 134 1039 l 72 1039 m 56 0 l 56 949 l 148 949 l 148 91 l 566 91 l 566 0 l 56 0 z "},"Ľ":{"ha":590,"x_min":56,"x_max":566,"o":"m 243 750 l 293 956 l 380 956 l 330 750 l 243 750 m 56 0 l 56 949 l 148 949 l 148 91 l 566 91 l 566 0 l 56 0 z "},"Ł":{"ha":620,"x_min":60,"x_max":685,"o":"m 60 380 l 175 468 l 175 949 l 267 949 l 267 540 l 363 614 l 415 548 l 267 434 l 267 90 l 685 90 l 685 0 l 175 0 l 175 362 l 111 313 l 60 380 z "},"M":{"ha":944,"x_min":57,"x_max":887,"o":"m 57 0 l 57 705 l 69 705 l 149 509 l 149 0 l 57 0 m 57 892 l 57 949 l 134 949 l 465 148 l 716 715 l 730 715 l 730 515 l 502 0 l 429 0 l 57 892 m 795 0 l 795 949 l 887 949 l 887 0 l 795 0 z "},"N":{"ha":718,"x_min":57,"x_max":661,"o":"m 57 0 l 57 769 l 68 769 l 149 637 l 149 0 l 57 0 m 57 891 l 57 949 l 138 949 l 661 115 l 661 0 l 614 0 l 57 891 m 568 374 l 568 949 l 661 949 l 661 240 l 650 240 l 568 374 z "},"Ń":{"ha":718,"x_min":57,"x_max":661,"o":"m 328 1039 l 378 1245 l 465 1245 l 391 1039 l 328 1039 m 57 0 l 57 769 l 68 769 l 149 637 l 149 0 l 57 0 m 57 891 l 57 949 l 138 949 l 661 115 l 661 0 l 614 0 l 57 891 m 568 374 l 568 949 l 661 949 l 661 240 l 650 240 l 568 374 z "},"Ň":{"ha":718,"x_min":57,"x_max":661,"o":"m 228 1245 l 294 1245 l 359 1114 l 423 1245 l 490 1245 l 387 1039 l 331 1039 l 228 1245 m 57 0 l 57 769 l 68 769 l 149 637 l 149 0 l 57 0 m 57 891 l 57 949 l 138 949 l 661 115 l 661 0 l 614 0 l 57 891 m 568 374 l 568 949 l 661 949 l 661 240 l 650 240 l 568 374 z "},"Ñ":{"ha":718,"x_min":57,"x_max":661,"o":"m 168 1063 l 168 1141 q 263 1171 221 1171 q 359 1139 297 1171 q 441 1115 407 1115 q 549 1153 488 1116 l 549 1077 q 435 1039 487 1039 q 335 1070 399 1039 q 258 1093 289 1093 q 168 1063 216 1092 m 57 0 l 57 769 l 68 769 l 149 637 l 149 0 l 57 0 m 57 891 l 57 949 l 138 949 l 661 115 l 661 0 l 614 0 l 57 891 m 568 374 l 568 949 l 661 949 l 661 240 l 650 240 l 568 374 z "},"O":{"ha":715,"x_min":53,"x_max":661,"o":"m 53 264 l 53 711 q 114 857 53 783 q 320 956 195 955 l 320 864 q 174 773 228 864 q 146 689 146 727 l 146 264 q 237 113 146 170 q 319 85 282 85 l 319 -7 q 164 49 241 -7 q 53 264 54 130 m 393 -7 l 393 85 q 507 134 450 85 q 568 264 567 189 l 568 689 q 517 810 568 753 q 393 864 464 863 l 393 956 q 613 838 530 956 q 661 711 661 770 l 661 264 q 526 34 661 114 q 393 -7 456 -7 z "},"Œ":{"ha":688,"x_min":-16,"x_max":947,"o":"m -16 269 l -16 688 q 142 926 -16 878 q 336 949 216 949 l 336 859 q 136 823 189 859 q 76 682 76 783 l 76 269 q 183 104 76 136 q 336 91 232 91 l 336 0 q 73 53 151 0 q -16 269 -16 118 m 401 0 l 401 91 l 453 91 l 453 859 l 401 859 l 401 949 l 947 949 l 947 859 l 545 859 l 545 518 l 819 518 l 819 427 l 545 427 l 545 91 l 947 91 l 947 0 l 401 0 z "},"Ó":{"ha":715,"x_min":53,"x_max":661,"o":"m 324 1039 l 374 1245 l 461 1245 l 387 1039 l 324 1039 m 53 264 l 53 711 q 114 857 53 783 q 320 956 195 955 l 320 864 q 174 773 228 864 q 146 689 146 727 l 146 264 q 237 113 146 170 q 319 85 282 85 l 319 -7 q 164 49 241 -7 q 53 264 54 130 m 393 -7 l 393 85 q 507 134 450 85 q 568 264 567 189 l 568 689 q 517 810 568 753 q 393 864 464 863 l 393 956 q 613 838 530 956 q 661 711 661 770 l 661 264 q 526 34 661 114 q 393 -7 456 -7 z "},"Ô":{"ha":715,"x_min":53,"x_max":661,"o":"m 224 1039 l 326 1245 l 382 1245 l 486 1039 l 419 1039 l 354 1171 l 290 1039 l 224 1039 m 53 264 l 53 711 q 114 857 53 783 q 320 956 195 955 l 320 864 q 174 773 228 864 q 146 689 146 727 l 146 264 q 237 113 146 170 q 319 85 282 85 l 319 -7 q 164 49 241 -7 q 53 264 54 130 m 393 -7 l 393 85 q 507 134 450 85 q 568 264 567 189 l 568 689 q 517 810 568 753 q 393 864 464 863 l 393 956 q 613 838 530 956 q 661 711 661 770 l 661 264 q 526 34 661 114 q 393 -7 456 -7 z "},"Ö":{"ha":715,"x_min":53,"x_max":661,"o":"m 218 1095 q 254 1145 218 1131 q 274 1149 264 1149 q 327 1114 313 1149 q 330 1095 330 1104 q 293 1042 330 1055 q 274 1039 283 1039 q 222 1073 237 1039 q 218 1095 218 1084 m 381 1095 q 416 1145 381 1131 q 437 1149 427 1149 q 490 1114 476 1149 q 492 1095 492 1104 q 456 1042 492 1055 q 437 1039 446 1039 q 385 1073 400 1039 q 381 1095 381 1084 m 53 264 l 53 711 q 114 857 53 783 q 320 956 195 955 l 320 864 q 174 773 228 864 q 146 689 146 727 l 146 264 q 237 113 146 170 q 319 85 282 85 l 319 -7 q 164 49 241 -7 q 53 264 54 130 m 393 -7 l 393 85 q 507 134 450 85 q 568 264 567 189 l 568 689 q 517 810 568 753 q 393 864 464 863 l 393 956 q 613 838 530 956 q 661 711 661 770 l 661 264 q 526 34 661 114 q 393 -7 456 -7 z "},"Ò":{"ha":715,"x_min":53,"x_max":661,"o":"m 245 1245 l 332 1245 l 382 1039 l 320 1039 l 245 1245 m 53 264 l 53 711 q 114 857 53 783 q 320 956 195 955 l 320 864 q 174 773 228 864 q 146 689 146 727 l 146 264 q 237 113 146 170 q 319 85 282 85 l 319 -7 q 164 49 241 -7 q 53 264 54 130 m 393 -7 l 393 85 q 507 134 450 85 q 568 264 567 189 l 568 689 q 517 810 568 753 q 393 864 464 863 l 393 956 q 613 838 530 956 q 661 711 661 770 l 661 264 q 526 34 661 114 q 393 -7 456 -7 z "},"Ő":{"ha":715,"x_min":53,"x_max":661,"o":"m 401 1039 l 452 1245 l 538 1245 l 464 1039 l 401 1039 m 255 1039 l 305 1245 l 392 1245 l 317 1039 l 255 1039 m 53 264 l 53 711 q 114 857 53 783 q 320 956 195 955 l 320 864 q 174 773 228 864 q 146 689 146 727 l 146 264 q 237 113 146 170 q 319 85 282 85 l 319 -7 q 164 49 241 -7 q 53 264 54 130 m 393 -7 l 393 85 q 507 134 450 85 q 568 264 567 189 l 568 689 q 517 810 568 753 q 393 864 464 863 l 393 956 q 613 838 530 956 q 661 711 661 770 l 661 264 q 526 34 661 114 q 393 -7 456 -7 z "},"Ō":{"ha":715,"x_min":53,"x_max":661,"o":"m 141 1039 l 141 1099 l 570 1099 l 570 1039 l 141 1039 m 53 264 l 53 711 q 114 857 53 783 q 320 956 195 955 l 320 864 q 174 773 228 864 q 146 689 146 727 l 146 264 q 237 113 146 170 q 319 85 282 85 l 319 -7 q 164 49 241 -7 q 53 264 54 130 m 393 -7 l 393 85 q 507 134 450 85 q 568 264 567 189 l 568 689 q 517 810 568 753 q 393 864 464 863 l 393 956 q 613 838 530 956 q 661 711 661 770 l 661 264 q 526 34 661 114 q 393 -7 456 -7 z "},"Ø":{"ha":910,"x_min":23,"x_max":872,"o":"m 23 148 l 146 259 l 146 711 q 208 857 146 783 q 414 956 289 955 l 414 864 q 266 774 320 864 q 239 686 239 727 l 239 342 l 658 718 q 571 841 639 802 q 487 864 532 864 l 487 956 q 704 840 624 956 q 734 787 722 814 l 818 863 l 872 803 l 754 696 l 754 264 q 620 34 754 114 q 487 -7 549 -7 l 487 85 q 601 134 544 85 q 662 264 661 189 l 662 612 l 241 235 q 346 104 256 149 q 412 85 384 85 l 412 -7 q 258 50 335 -7 q 165 167 193 98 l 80 88 l 23 148 z "},"Õ":{"ha":715,"x_min":53,"x_max":661,"o":"m 164 1070 l 164 1147 q 259 1177 217 1177 q 355 1146 293 1177 q 437 1122 403 1122 q 545 1160 484 1123 l 545 1084 q 431 1046 483 1046 q 331 1077 395 1046 q 254 1100 285 1100 q 164 1070 212 1099 m 53 264 l 53 711 q 114 857 53 783 q 320 956 195 955 l 320 864 q 174 773 228 864 q 146 689 146 727 l 146 264 q 237 113 146 170 q 319 85 282 85 l 319 -7 q 164 49 241 -7 q 53 264 54 130 m 393 -7 l 393 85 q 507 134 450 85 q 568 264 567 189 l 568 689 q 517 810 568 753 q 393 864 464 863 l 393 956 q 613 838 530 956 q 661 711 661 770 l 661 264 q 526 34 661 114 q 393 -7 456 -7 z "},"P":{"ha":655,"x_min":57,"x_max":629,"o":"m 57 0 l 149 0 l 149 949 l 57 949 l 57 0 m 214 422 l 395 422 q 614 570 574 426 q 629 688 629 621 q 414 948 629 933 q 395 949 404 949 l 214 949 l 214 861 l 372 861 q 530 742 510 861 q 534 689 534 718 q 404 511 534 526 q 373 510 389 510 l 214 510 l 214 422 z "},"Q":{"ha":715,"x_min":53,"x_max":661,"o":"m 53 264 l 53 711 q 113 854 53 781 q 324 956 195 956 l 324 865 q 172 776 227 865 q 146 689 146 731 l 146 264 q 263 100 146 149 q 324 84 301 84 l 324 -7 q 160 52 241 -7 q 53 264 54 132 m 391 -7 l 391 84 q 477 115 426 84 q 567 264 566 170 l 567 689 q 514 812 567 755 q 391 865 463 865 l 391 956 q 613 840 530 958 q 661 711 661 770 l 661 264 q 487 20 659 106 l 564 -94 l 490 -145 l 391 -7 z "},"R":{"ha":689,"x_min":57,"x_max":651,"o":"m 57 0 l 57 949 l 149 949 l 149 0 l 57 0 m 214 419 l 214 505 l 376 505 q 528 632 509 505 q 530 682 530 655 q 406 861 530 838 q 350 867 380 867 l 214 867 l 214 949 l 374 949 q 621 686 620 937 q 528 463 620 522 q 627 305 613 423 q 628 294 628 298 l 651 0 l 563 0 l 543 241 q 481 397 533 363 q 385 419 445 420 l 214 419 z "},"Ŕ":{"ha":689,"x_min":57,"x_max":651,"o":"m 266 1039 l 316 1245 l 403 1245 l 328 1039 l 266 1039 m 57 0 l 57 949 l 149 949 l 149 0 l 57 0 m 214 419 l 214 505 l 376 505 q 528 632 509 505 q 530 682 530 655 q 406 861 530 838 q 350 867 380 867 l 214 867 l 214 949 l 374 949 q 621 686 620 937 q 528 463 620 522 q 627 305 613 423 q 628 294 628 298 l 651 0 l 563 0 l 543 241 q 481 397 533 363 q 385 419 445 420 l 214 419 z "},"Ř":{"ha":689,"x_min":57,"x_max":651,"o":"m 160 1245 l 227 1245 l 292 1114 l 355 1245 l 422 1245 l 319 1039 l 263 1039 l 160 1245 m 57 0 l 57 949 l 149 949 l 149 0 l 57 0 m 214 419 l 214 505 l 376 505 q 528 632 509 505 q 530 682 530 655 q 406 861 530 838 q 350 867 380 867 l 214 867 l 214 949 l 374 949 q 621 686 620 937 q 528 463 620 522 q 627 305 613 423 q 628 294 628 298 l 651 0 l 563 0 l 543 241 q 481 397 533 363 q 385 419 445 420 l 214 419 z "},"S":{"ha":671,"x_min":37,"x_max":635,"o":"m 37 214 l 121 244 q 148 171 127 202 q 192 123 168 140 q 238 97 216 107 q 275 84 260 87 l 290 83 l 290 -4 q 87 99 168 -4 q 37 214 38 161 m 47 694 q 174 913 47 838 q 290 949 236 949 l 290 863 q 194 817 241 860 q 138 690 140 765 q 271 555 138 598 q 373 529 305 544 q 461 506 437 514 q 617 378 582 463 q 635 278 635 335 q 544 73 635 160 q 355 -4 461 -4 l 355 83 q 473 137 412 84 q 543 281 541 198 q 399 430 543 387 q 301 453 366 439 q 214 475 235 467 q 68 590 102 519 q 47 694 47 635 m 355 863 l 355 949 q 555 841 475 949 q 597 750 591 791 l 510 722 q 482 787 502 758 q 441 829 463 815 q 401 851 420 842 q 369 861 381 860 l 355 863 z "},"Ś":{"ha":671,"x_min":37,"x_max":635,"o":"m 282 1039 l 332 1245 l 419 1245 l 345 1039 l 282 1039 m 37 214 l 121 244 q 148 171 127 202 q 192 123 168 140 q 238 97 216 107 q 275 84 260 87 l 290 83 l 290 -4 q 87 99 168 -4 q 37 214 38 161 m 47 694 q 174 913 47 838 q 290 949 236 949 l 290 863 q 194 817 241 860 q 138 690 140 765 q 271 555 138 598 q 373 529 305 544 q 461 506 437 514 q 617 378 582 463 q 635 278 635 335 q 544 73 635 160 q 355 -4 461 -4 l 355 83 q 473 137 412 84 q 543 281 541 198 q 399 430 543 387 q 301 453 366 439 q 214 475 235 467 q 68 590 102 519 q 47 694 47 635 m 355 863 l 355 949 q 555 841 475 949 q 597 750 591 791 l 510 722 q 482 787 502 758 q 441 829 463 815 q 401 851 420 842 q 369 861 381 860 l 355 863 z "},"Š":{"ha":671,"x_min":27,"x_max":625,"o":"m 170 1245 l 236 1245 l 301 1114 l 365 1245 l 431 1245 l 328 1039 l 273 1039 l 170 1245 m 27 214 l 111 244 q 138 171 118 202 q 182 123 159 140 q 229 97 206 107 q 266 84 251 87 l 281 83 l 281 -4 q 77 99 159 -4 q 27 214 28 161 m 38 694 q 164 913 38 838 q 281 949 227 949 l 281 863 q 184 817 232 860 q 129 690 130 765 q 262 555 129 598 q 363 529 296 544 q 452 506 427 514 q 608 378 572 463 q 625 278 625 335 q 534 73 625 160 q 346 -4 452 -4 l 346 83 q 464 137 403 84 q 533 281 532 198 q 389 430 533 387 q 292 453 357 439 q 205 475 225 467 q 58 590 92 519 q 38 694 38 635 m 346 863 l 346 949 q 545 841 465 949 q 587 750 582 791 l 500 722 q 473 787 492 758 q 432 829 453 815 q 391 851 411 842 q 358 861 372 860 l 346 863 z "},"T":{"ha":637,"x_min":26,"x_max":613,"o":"m 26 860 l 26 949 l 613 949 l 613 860 l 365 860 l 365 0 l 273 0 l 273 860 l 26 860 z "},"Ť":{"ha":637,"x_min":26,"x_max":613,"o":"m 183 1245 l 250 1245 l 315 1114 l 378 1245 l 445 1245 l 342 1039 l 286 1039 l 183 1245 m 26 860 l 26 949 l 613 949 l 613 860 l 365 860 l 365 0 l 273 0 l 273 860 l 26 860 z "},"Þ":{"ha":643,"x_min":84,"x_max":609,"o":"m 84 0 l 84 949 l 176 949 l 176 0 l 84 0 m 247 282 l 247 372 l 301 372 q 509 488 481 372 q 514 540 514 513 q 335 709 514 699 q 300 711 317 711 l 247 711 l 247 800 q 559 716 484 806 q 608 541 606 656 q 454 301 609 349 q 247 282 374 277 z "},"U":{"ha":709,"x_min":52,"x_max":658,"o":"m 52 262 l 52 949 l 144 949 l 144 262 q 247 109 144 163 q 323 84 292 84 l 323 -7 q 165 47 245 -7 q 52 262 53 127 m 388 -7 l 388 84 q 494 125 438 84 q 566 262 564 178 l 566 949 l 658 949 l 658 262 q 521 33 658 110 q 388 -7 452 -7 z "},"Ú":{"ha":709,"x_min":52,"x_max":658,"o":"m 316 1039 l 366 1245 l 453 1245 l 378 1039 l 316 1039 m 52 262 l 52 949 l 144 949 l 144 262 q 247 109 144 163 q 323 84 292 84 l 323 -7 q 165 47 245 -7 q 52 262 53 127 m 388 -7 l 388 84 q 494 125 438 84 q 566 262 564 178 l 566 949 l 658 949 l 658 262 q 521 33 658 110 q 388 -7 452 -7 z "},"Û":{"ha":709,"x_min":52,"x_max":658,"o":"m 216 1039 l 317 1245 l 374 1245 l 477 1039 l 411 1039 l 346 1171 l 282 1039 l 216 1039 m 52 262 l 52 949 l 144 949 l 144 262 q 247 109 144 163 q 323 84 292 84 l 323 -7 q 165 47 245 -7 q 52 262 53 127 m 388 -7 l 388 84 q 494 125 438 84 q 566 262 564 178 l 566 949 l 658 949 l 658 262 q 521 33 658 110 q 388 -7 452 -7 z "},"Ü":{"ha":709,"x_min":52,"x_max":658,"o":"m 210 1095 q 245 1145 210 1131 q 266 1149 256 1149 q 319 1114 305 1149 q 321 1095 321 1104 q 285 1042 321 1055 q 266 1039 275 1039 q 214 1073 229 1039 q 210 1095 210 1084 m 373 1095 q 408 1145 373 1131 q 429 1149 419 1149 q 481 1114 468 1149 q 484 1095 484 1104 q 448 1042 484 1055 q 429 1039 438 1039 q 377 1073 392 1039 q 373 1095 373 1084 m 52 262 l 52 949 l 144 949 l 144 262 q 247 109 144 163 q 323 84 292 84 l 323 -7 q 165 47 245 -7 q 52 262 53 127 m 388 -7 l 388 84 q 494 125 438 84 q 566 262 564 178 l 566 949 l 658 949 l 658 262 q 521 33 658 110 q 388 -7 452 -7 z "},"Ù":{"ha":709,"x_min":52,"x_max":658,"o":"m 236 1245 l 323 1245 l 373 1039 l 311 1039 l 236 1245 m 52 262 l 52 949 l 144 949 l 144 262 q 247 109 144 163 q 323 84 292 84 l 323 -7 q 165 47 245 -7 q 52 262 53 127 m 388 -7 l 388 84 q 494 125 438 84 q 566 262 564 178 l 566 949 l 658 949 l 658 262 q 521 33 658 110 q 388 -7 452 -7 z "},"Ű":{"ha":709,"x_min":52,"x_max":658,"o":"m 422 1039 l 472 1245 l 559 1245 l 484 1039 l 422 1039 m 275 1039 l 326 1245 l 412 1245 l 338 1039 l 275 1039 m 52 262 l 52 949 l 144 949 l 144 262 q 247 109 144 163 q 323 84 292 84 l 323 -7 q 165 47 245 -7 q 52 262 53 127 m 388 -7 l 388 84 q 494 125 438 84 q 566 262 564 178 l 566 949 l 658 949 l 658 262 q 521 33 658 110 q 388 -7 452 -7 z "},"Ū":{"ha":709,"x_min":52,"x_max":658,"o":"m 133 1039 l 133 1099 l 562 1099 l 562 1039 l 133 1039 m 52 262 l 52 949 l 144 949 l 144 262 q 247 109 144 163 q 323 84 292 84 l 323 -7 q 165 47 245 -7 q 52 262 53 127 m 388 -7 l 388 84 q 494 125 438 84 q 566 262 564 178 l 566 949 l 658 949 l 658 262 q 521 33 658 110 q 388 -7 452 -7 z "},"Ų":{"ha":709,"x_min":52,"x_max":658,"o":"m 511 -244 q 328 -140 378 -244 q 309 -54 309 -99 l 384 -54 q 456 -163 384 -134 q 511 -172 483 -172 l 511 -244 m 52 262 l 52 949 l 144 949 l 144 262 q 247 109 144 163 q 323 84 292 84 l 323 -7 q 165 47 245 -7 q 52 262 53 127 m 388 -7 l 388 84 q 494 125 438 84 q 566 262 564 178 l 566 949 l 658 949 l 658 262 q 521 33 658 110 q 388 -7 452 -7 z "},"Ů":{"ha":709,"x_min":52,"x_max":658,"o":"m 245 1169 q 298 1257 245 1229 q 347 1271 321 1271 q 435 1218 407 1271 q 449 1169 449 1195 q 396 1081 449 1109 q 347 1067 373 1067 q 259 1120 288 1067 q 245 1169 245 1143 m 304 1169 q 334 1127 304 1137 q 347 1126 342 1126 q 389 1156 380 1126 q 391 1169 391 1164 q 361 1211 391 1202 q 347 1213 353 1213 q 305 1183 315 1213 q 304 1169 304 1175 m 52 262 l 52 949 l 144 949 l 144 262 q 247 109 144 163 q 323 84 292 84 l 323 -7 q 165 47 245 -7 q 52 262 53 127 m 388 -7 l 388 84 q 494 125 438 84 q 566 262 564 178 l 566 949 l 658 949 l 658 262 q 521 33 658 110 q 388 -7 452 -7 z "},"V":{"ha":644,"x_min":12,"x_max":631,"o":"m 12 949 l 106 949 l 355 94 l 323 0 l 288 0 l 12 949 m 338 357 l 538 949 l 631 949 q 528 637 624 926 q 391 222 399 252 l 377 222 l 338 357 z "},"W":{"ha":1074,"x_min":14,"x_max":1061,"o":"m 14 949 l 289 0 l 321 0 l 353 103 l 106 949 l 14 949 m 331 373 l 370 237 l 384 237 q 442 448 389 255 q 533 781 506 681 l 743 0 l 776 0 l 808 98 l 579 949 l 487 949 l 331 373 m 798 372 l 837 237 l 850 237 l 1061 949 l 968 949 l 798 372 z "},"X":{"ha":629,"x_min":35,"x_max":594,"o":"m 35 0 l 270 491 l 52 949 l 141 949 l 315 597 l 487 949 l 578 949 l 359 491 l 594 0 l 500 0 l 315 381 l 127 0 l 35 0 z "},"Y":{"ha":647,"x_min":34,"x_max":613,"o":"m 34 949 l 130 949 l 358 343 l 358 0 l 263 0 l 263 342 l 34 949 m 347 563 l 518 949 l 613 949 l 399 430 l 392 430 l 347 563 z "},"Ý":{"ha":647,"x_min":34,"x_max":613,"o":"m 275 1039 l 326 1245 l 412 1245 l 338 1039 l 275 1039 m 34 949 l 130 949 l 358 343 l 358 0 l 263 0 l 263 342 l 34 949 m 347 563 l 518 949 l 613 949 l 399 430 l 392 430 l 347 563 z "},"Ÿ":{"ha":647,"x_min":34,"x_max":613,"o":"m 170 1095 q 205 1145 170 1131 q 225 1149 216 1149 q 278 1114 264 1149 q 281 1095 281 1104 q 244 1042 281 1055 q 225 1039 235 1039 q 174 1073 189 1039 q 170 1095 170 1084 m 332 1095 q 368 1145 332 1131 q 388 1149 378 1149 q 441 1114 427 1149 q 444 1095 444 1104 q 407 1042 444 1055 q 388 1039 397 1039 q 336 1073 351 1039 q 332 1095 332 1084 m 34 949 l 130 949 l 358 343 l 358 0 l 263 0 l 263 342 l 34 949 m 347 563 l 518 949 l 613 949 l 399 430 l 392 430 l 347 563 z "},"Z":{"ha":598,"x_min":50,"x_max":548,"o":"m 50 0 l 50 88 l 446 859 l 50 859 l 50 949 l 547 949 l 547 863 l 152 92 l 548 92 l 547 0 l 50 0 z "},"Ź":{"ha":598,"x_min":50,"x_max":548,"o":"m 258 1039 l 308 1245 l 395 1245 l 320 1039 l 258 1039 m 50 0 l 50 88 l 446 859 l 50 859 l 50 949 l 547 949 l 547 863 l 152 92 l 548 92 l 547 0 l 50 0 z "},"Ž":{"ha":598,"x_min":50,"x_max":548,"o":"m 157 1245 l 224 1245 l 289 1114 l 353 1245 l 419 1245 l 316 1039 l 260 1039 l 157 1245 m 50 0 l 50 88 l 446 859 l 50 859 l 50 949 l 547 949 l 547 863 l 152 92 l 548 92 l 547 0 l 50 0 z "},"Ż":{"ha":598,"x_min":50,"x_max":548,"o":"m 231 1097 q 266 1153 231 1137 q 289 1157 278 1157 q 343 1120 328 1157 q 347 1097 347 1109 q 311 1043 347 1057 q 289 1039 300 1039 q 235 1076 248 1039 q 231 1097 231 1086 m 50 0 l 50 88 l 446 859 l 50 859 l 50 949 l 547 949 l 547 863 l 152 92 l 548 92 l 547 0 l 50 0 z "},"a":{"ha":632,"x_min":49,"x_max":583,"o":"m 49 168 q 121 43 49 95 q 264 1 182 1 l 264 85 q 134 160 155 85 q 130 190 130 175 l 130 233 q 146 279 132 264 q 308 332 167 300 q 460 378 422 359 l 460 208 q 347 87 460 95 q 330 85 338 85 l 330 1 q 480 47 426 1 q 483 50 481 49 q 583 1 521 1 l 583 87 q 548 132 549 90 l 548 511 q 480 666 548 602 q 330 723 419 723 l 330 642 q 434 587 395 642 q 458 510 458 553 l 458 486 q 294 410 460 452 q 117 358 140 370 q 49 232 50 320 l 49 168 m 58 543 l 138 511 q 205 624 138 589 q 266 639 233 639 l 266 723 q 109 658 174 723 q 58 543 57 606 z "},"á":{"ha":632,"x_min":49,"x_max":583,"o":"m 252 806 l 302 1012 l 389 1012 l 315 806 l 252 806 m 49 168 q 121 43 49 95 q 264 1 182 1 l 264 85 q 134 160 155 85 q 130 190 130 175 l 130 233 q 146 279 132 264 q 308 332 167 300 q 460 378 422 359 l 460 208 q 347 87 460 95 q 330 85 338 85 l 330 1 q 480 47 426 1 q 483 50 481 49 q 583 1 521 1 l 583 87 q 548 132 549 90 l 548 511 q 480 666 548 602 q 330 723 419 723 l 330 642 q 434 587 395 642 q 458 510 458 553 l 458 486 q 294 410 460 452 q 117 358 140 370 q 49 232 50 320 l 49 168 m 58 543 l 138 511 q 205 624 138 589 q 266 639 233 639 l 266 723 q 109 658 174 723 q 58 543 57 606 z "},"ă":{"ha":632,"x_min":49,"x_max":583,"o":"m 183 903 l 239 903 q 269 861 239 871 q 282 860 277 860 q 324 890 315 860 q 326 903 326 898 l 381 903 q 339 825 381 854 q 282 806 313 806 q 193 864 220 806 q 183 903 183 884 m 49 168 q 121 43 49 95 q 264 1 182 1 l 264 85 q 134 160 155 85 q 130 190 130 175 l 130 233 q 146 279 132 264 q 308 332 167 300 q 460 378 422 359 l 460 208 q 347 87 460 95 q 330 85 338 85 l 330 1 q 480 47 426 1 q 483 50 481 49 q 583 1 521 1 l 583 87 q 548 132 549 90 l 548 511 q 480 666 548 602 q 330 723 419 723 l 330 642 q 434 587 395 642 q 458 510 458 553 l 458 486 q 294 410 460 452 q 117 358 140 370 q 49 232 50 320 l 49 168 m 58 543 l 138 511 q 205 624 138 589 q 266 639 233 639 l 266 723 q 109 658 174 723 q 58 543 57 606 z "},"â":{"ha":632,"x_min":49,"x_max":583,"o":"m 152 806 l 254 1012 l 311 1012 l 414 806 l 347 806 l 282 937 l 218 806 l 152 806 m 49 168 q 121 43 49 95 q 264 1 182 1 l 264 85 q 134 160 155 85 q 130 190 130 175 l 130 233 q 146 279 132 264 q 308 332 167 300 q 460 378 422 359 l 460 208 q 347 87 460 95 q 330 85 338 85 l 330 1 q 480 47 426 1 q 483 50 481 49 q 583 1 521 1 l 583 87 q 548 132 549 90 l 548 511 q 480 666 548 602 q 330 723 419 723 l 330 642 q 434 587 395 642 q 458 510 458 553 l 458 486 q 294 410 460 452 q 117 358 140 370 q 49 232 50 320 l 49 168 m 58 543 l 138 511 q 205 624 138 589 q 266 639 233 639 l 266 723 q 109 658 174 723 q 58 543 57 606 z "},"´":{"ha":450,"x_min":156,"x_max":293,"o":"m 156 821 l 206 1027 l 293 1027 l 218 821 l 156 821 z "},"ä":{"ha":632,"x_min":49,"x_max":583,"o":"m 145 861 q 180 911 145 898 q 201 916 191 916 q 254 880 240 916 q 256 861 256 871 q 220 808 256 822 q 201 806 210 806 q 149 840 164 806 q 145 861 145 850 m 308 861 q 343 911 308 898 q 363 916 354 916 q 416 880 403 916 q 419 861 419 871 q 382 808 419 822 q 363 806 373 806 q 312 840 327 806 q 308 861 308 850 m 49 168 q 121 43 49 95 q 264 1 182 1 l 264 85 q 134 160 155 85 q 130 190 130 175 l 130 233 q 146 279 132 264 q 308 332 167 300 q 460 378 422 359 l 460 208 q 347 87 460 95 q 330 85 338 85 l 330 1 q 480 47 426 1 q 483 50 481 49 q 583 1 521 1 l 583 87 q 548 132 549 90 l 548 511 q 480 666 548 602 q 330 723 419 723 l 330 642 q 434 587 395 642 q 458 510 458 553 l 458 486 q 294 410 460 452 q 117 358 140 370 q 49 232 50 320 l 49 168 m 58 543 l 138 511 q 205 624 138 589 q 266 639 233 639 l 266 723 q 109 658 174 723 q 58 543 57 606 z "},"æ":{"ha":678,"x_min":35,"x_max":943,"o":"m 35 160 q 109 39 35 87 q 245 1 167 1 l 245 81 q 117 164 136 81 q 114 195 114 179 l 114 220 q 239 321 113 285 q 313 342 263 330 q 437 387 416 368 l 437 202 q 309 81 434 83 l 309 1 q 484 87 431 0 q 690 0 544 0 q 935 138 878 0 q 943 163 939 151 l 868 190 q 750 83 846 106 q 690 76 722 76 q 551 129 604 76 q 521 198 521 161 l 521 320 l 941 320 l 941 513 q 856 655 941 595 q 720 700 791 700 l 720 621 q 831 567 787 621 q 859 496 859 533 l 859 401 l 521 401 l 521 488 q 575 591 521 549 q 658 618 613 618 l 658 700 q 481 612 547 699 q 279 705 418 705 q 96 637 164 705 q 49 522 49 587 l 121 499 q 217 620 121 593 q 278 628 245 628 q 414 572 366 628 q 437 514 437 545 l 437 488 q 346 423 437 452 q 288 406 327 418 q 88 326 138 365 q 35 221 37 282 l 35 160 z "},"à":{"ha":632,"x_min":49,"x_max":583,"o":"m 175 1012 l 262 1012 l 312 806 l 250 806 l 175 1012 m 49 168 q 121 43 49 95 q 264 1 182 1 l 264 85 q 134 160 155 85 q 130 190 130 175 l 130 233 q 146 279 132 264 q 308 332 167 300 q 460 378 422 359 l 460 208 q 347 87 460 95 q 330 85 338 85 l 330 1 q 480 47 426 1 q 483 50 481 49 q 583 1 521 1 l 583 87 q 548 132 549 90 l 548 511 q 480 666 548 602 q 330 723 419 723 l 330 642 q 434 587 395 642 q 458 510 458 553 l 458 486 q 294 410 460 452 q 117 358 140 370 q 49 232 50 320 l 49 168 m 58 543 l 138 511 q 205 624 138 589 q 266 639 233 639 l 266 723 q 109 658 174 723 q 58 543 57 606 z "},"ā":{"ha":632,"x_min":49,"x_max":583,"o":"m 88 807 l 88 867 l 517 867 l 517 807 l 88 807 m 49 168 q 121 43 49 95 q 264 1 182 1 l 264 85 q 134 160 155 85 q 130 190 130 175 l 130 233 q 146 279 132 264 q 308 332 167 300 q 460 378 422 359 l 460 208 q 347 87 460 95 q 330 85 338 85 l 330 1 q 480 47 426 1 q 483 50 481 49 q 583 1 521 1 l 583 87 q 548 132 549 90 l 548 511 q 480 666 548 602 q 330 723 419 723 l 330 642 q 434 587 395 642 q 458 510 458 553 l 458 486 q 294 410 460 452 q 117 358 140 370 q 49 232 50 320 l 49 168 m 58 543 l 138 511 q 205 624 138 589 q 266 639 233 639 l 266 723 q 109 658 174 723 q 58 543 57 606 z "},"&":{"ha":871,"x_min":50,"x_max":821,"o":"m 496 152 q 350 90 437 90 q 189 161 251 90 q 144 288 144 216 q 222 442 145 381 l 160 511 q 50 289 52 422 q 160 62 50 148 q 347 -1 243 -1 q 559 83 467 0 l 496 152 m 559 736 q 495 844 551 802 q 435 869 468 864 l 435 958 q 610 845 548 943 q 646 758 636 804 l 559 736 m 361 868 q 259 803 296 863 q 236 722 236 766 q 293 609 236 669 q 304 597 301 600 l 610 269 q 686 419 666 326 q 692 468 692 446 l 785 468 q 692 216 780 330 q 677 197 684 205 l 821 41 l 724 15 l 233 541 q 153 667 167 616 q 148 722 148 693 q 240 907 148 837 q 361 958 293 948 l 361 868 z "},"ං":{"ha":617,"x_min":41,"x_max":575,"o":"m 342 61 l 342 149 q 477 244 453 149 q 486 336 486 281 l 486 422 q 426 590 486 553 q 342 609 392 609 l 342 697 l 370 697 q 575 422 575 696 l 575 336 q 370 61 572 62 l 342 61 m 245 61 q 41 336 41 62 l 41 422 q 245 697 43 696 l 274 697 l 274 609 q 140 510 163 609 q 132 422 132 475 l 132 336 q 184 172 132 210 q 274 149 218 149 l 274 61 l 245 61 z "},"ą":{"ha":632,"x_min":49,"x_max":654,"o":"m 654 -244 q 471 -140 521 -244 q 452 -54 452 -99 l 526 -54 q 598 -163 526 -134 q 654 -172 625 -172 l 654 -244 m 49 168 q 121 43 49 95 q 264 1 182 1 l 264 85 q 134 160 155 85 q 130 190 130 175 l 130 233 q 146 279 132 264 q 308 332 167 300 q 460 378 422 359 l 460 208 q 347 87 460 95 q 330 85 338 85 l 330 1 q 480 47 426 1 q 483 50 481 49 q 583 1 521 1 l 583 87 q 548 132 549 90 l 548 511 q 480 666 548 602 q 330 723 419 723 l 330 642 q 434 587 395 642 q 458 510 458 553 l 458 486 q 294 410 460 452 q 117 358 140 370 q 49 232 50 320 l 49 168 m 58 543 l 138 511 q 205 624 138 589 q 266 639 233 639 l 266 723 q 109 658 174 723 q 58 543 57 606 z "},"≈":{"ha":770,"x_min":68,"x_max":703,"o":"m 68 317 l 68 403 q 221 450 151 450 q 369 403 279 450 q 509 351 457 355 q 525 351 518 351 q 703 412 604 353 l 703 330 q 517 267 600 267 q 359 317 453 267 q 213 366 262 363 q 68 317 142 365 m 68 545 l 68 632 q 221 680 151 680 q 369 632 279 680 q 509 581 457 585 q 525 581 518 581 q 703 642 604 582 l 703 557 q 517 495 600 495 q 359 545 453 495 q 213 594 262 591 q 68 545 142 593 z "},"å":{"ha":632,"x_min":49,"x_max":583,"o":"m 193 936 q 245 1024 193 996 q 294 1038 269 1038 q 382 985 354 1038 q 396 936 396 962 q 343 848 396 876 q 294 834 320 834 q 206 887 235 834 q 193 936 193 910 m 251 936 q 281 894 251 903 q 294 892 289 892 q 336 922 327 892 q 338 936 338 930 q 308 978 338 968 q 294 979 300 979 q 252 949 262 979 q 251 936 251 941 m 49 168 q 121 43 49 95 q 264 1 182 1 l 264 85 q 134 160 155 85 q 130 190 130 175 l 130 233 q 146 279 132 264 q 308 332 167 300 q 460 378 422 359 l 460 208 q 347 87 460 95 q 330 85 338 85 l 330 1 q 480 47 426 1 q 483 50 481 49 q 583 1 521 1 l 583 87 q 548 132 549 90 l 548 511 q 480 666 548 602 q 330 723 419 723 l 330 642 q 434 587 395 642 q 458 510 458 553 l 458 486 q 294 410 460 452 q 117 358 140 370 q 49 232 50 320 l 49 168 m 58 543 l 138 511 q 205 624 138 589 q 266 639 233 639 l 266 723 q 109 658 174 723 q 58 543 57 606 z "},"^":{"ha":608,"x_min":72,"x_max":537,"o":"m 72 624 l 274 1025 l 335 1025 l 537 624 l 450 624 l 302 916 l 157 624 l 72 624 z "},"~":{"ha":852,"x_min":109,"x_max":743,"o":"m 109 416 l 109 503 q 262 551 191 551 q 410 503 320 551 q 549 452 498 456 q 566 452 559 452 q 743 513 644 453 l 743 429 q 557 366 640 366 q 400 416 494 366 q 254 465 302 463 q 109 416 183 464 z "},"*":{"ha":469,"x_min":45,"x_max":425,"o":"m 46 951 l 85 1004 l 201 930 l 201 1065 l 267 1065 l 267 925 l 388 1004 l 425 951 l 286 859 l 425 764 l 387 711 l 267 796 l 267 648 l 201 648 l 201 795 l 83 715 l 45 768 l 184 860 l 46 951 z "},"@":{"ha":1057,"x_min":45,"x_max":1010,"o":"m 45 419 q 193 777 45 631 q 570 933 343 925 q 591 933 582 933 q 876 838 755 933 q 1010 560 1009 731 q 842 231 1010 315 q 719 201 780 201 q 624 251 666 201 q 609 275 613 264 q 522 216 585 232 q 475 209 499 209 q 350 288 397 209 q 317 407 317 340 q 427 628 317 552 q 549 669 488 669 q 663 624 618 669 q 666 621 666 621 l 674 651 l 745 651 l 685 418 q 673 361 677 387 q 694 302 667 331 q 736 283 713 285 q 860 342 806 283 q 928 559 928 418 q 802 787 928 700 q 593 853 707 853 q 269 731 403 853 q 130 420 132 604 q 271 94 130 214 q 553 -5 388 -5 q 905 113 736 -4 l 941 45 q 589 -83 793 -73 q 556 -84 572 -84 q 170 73 313 -84 q 45 419 45 212 z "},"ã":{"ha":632,"x_min":49,"x_max":583,"o":"m 102 830 l 102 907 q 197 937 155 937 q 293 906 231 937 q 374 882 340 882 q 483 920 422 883 l 483 844 q 369 806 420 806 q 269 837 332 806 q 191 860 222 860 q 102 830 149 859 m 49 168 q 121 43 49 95 q 264 1 182 1 l 264 85 q 134 160 155 85 q 130 190 130 175 l 130 233 q 146 279 132 264 q 308 332 167 300 q 460 378 422 359 l 460 208 q 347 87 460 95 q 330 85 338 85 l 330 1 q 480 47 426 1 q 483 50 481 49 q 583 1 521 1 l 583 87 q 548 132 549 90 l 548 511 q 480 666 548 602 q 330 723 419 723 l 330 642 q 434 587 395 642 q 458 510 458 553 l 458 486 q 294 410 460 452 q 117 358 140 370 q 49 232 50 320 l 49 168 m 58 543 l 138 511 q 205 624 138 589 q 266 639 233 639 l 266 723 q 109 658 174 723 q 58 543 57 606 z "},"b":{"ha":595,"x_min":56,"x_max":555,"o":"m 56 0 l 56 955 l 146 955 l 146 0 l 56 0 m 210 0 l 210 87 l 339 87 q 439 137 396 87 q 465 199 465 168 l 465 521 q 412 609 465 571 q 340 633 377 633 l 210 633 l 210 720 l 340 720 q 510 636 442 720 q 555 526 553 582 l 555 197 q 499 72 555 133 q 338 0 434 1 l 210 0 z "},"\\":{"ha":435,"x_min":56,"x_max":380,"o":"m 56 971 l 142 971 l 380 -31 l 292 -31 l 56 971 z "},"|":{"ha":210,"x_min":68,"x_max":142,"o":"m 68 -182 l 68 1023 l 142 1023 l 142 -182 l 68 -182 z "},"{":{"ha":324,"x_min":20,"x_max":297,"o":"m 20 472 q 91 511 79 496 q 104 553 103 528 l 104 735 q 183 974 104 928 q 297 997 222 997 l 297 926 q 216 894 235 926 q 191 670 193 853 q 191 636 191 654 l 191 519 q 148 473 191 484 q 145 472 146 472 q 191 412 190 456 l 191 281 q 245 31 191 66 q 297 19 264 19 l 297 -52 q 142 15 184 -52 q 104 208 104 77 l 104 393 q 62 450 104 427 q 42 461 57 454 q 20 472 27 468 z "},"}":{"ha":324,"x_min":27,"x_max":304,"o":"m 27 -52 l 27 19 q 104 61 83 19 q 133 281 133 119 l 133 412 q 179 472 136 457 q 133 519 134 486 l 133 636 q 113 886 133 841 q 27 926 83 924 l 27 997 q 175 943 136 997 q 220 735 220 883 l 220 553 q 263 490 221 510 q 304 472 271 486 q 237 435 244 441 q 220 393 220 418 l 220 208 q 125 -34 220 9 q 27 -52 87 -52 z "},"[":{"ha":274,"x_min":68,"x_max":220,"o":"m 68 -49 l 68 1002 l 220 1002 l 220 924 l 159 924 l 155 30 l 220 30 l 220 -49 l 68 -49 z "},"]":{"ha":271,"x_min":54,"x_max":206,"o":"m 54 -49 l 54 30 l 119 30 l 115 924 l 54 924 l 54 1002 l 206 1002 l 206 -49 l 54 -49 z "},"˘":{"ha":331,"x_min":66,"x_max":264,"o":"m 66 713 l 122 713 q 152 671 122 681 q 165 670 160 670 q 208 700 198 670 q 209 713 209 708 l 264 713 q 222 635 264 665 q 165 616 197 616 q 76 674 103 616 q 66 713 66 694 z "},"¦":{"ha":210,"x_min":57,"x_max":142,"o":"m 57 -184 l 57 298 l 142 298 l 142 -184 l 57 -184 m 57 544 l 57 1027 l 142 1027 l 142 544 l 57 544 z "},"•":{"ha":477,"x_min":123,"x_max":354,"o":"m 123 468 q 182 570 123 537 q 239 583 209 583 q 340 525 308 583 q 354 468 354 499 q 296 366 354 399 q 239 353 269 353 q 137 411 170 353 q 123 468 123 438 z "},"c":{"ha":595,"x_min":53,"x_max":559,"o":"m 53 197 q 107 68 53 126 q 277 0 171 0 l 277 85 q 160 146 201 85 q 144 197 144 172 l 144 518 q 191 605 144 567 q 277 635 229 635 l 277 720 q 84 618 149 720 q 53 522 54 570 l 53 197 m 338 633 q 438 576 404 633 q 457 517 454 551 q 458 488 458 510 l 543 519 q 463 678 543 617 q 338 720 407 720 l 338 633 m 336 -1 q 502 71 431 -3 q 559 201 559 130 l 473 233 l 473 206 q 397 98 465 130 q 336 84 368 84 l 336 -1 z "},"ć":{"ha":595,"x_min":53,"x_max":559,"o":"m 274 802 l 324 1008 l 411 1008 l 336 802 l 274 802 m 53 197 q 107 68 53 126 q 277 0 171 0 l 277 85 q 160 146 201 85 q 144 197 144 172 l 144 518 q 191 605 144 567 q 277 635 229 635 l 277 720 q 84 618 149 720 q 53 522 54 570 l 53 197 m 338 633 q 438 576 404 633 q 457 517 454 551 q 458 488 458 510 l 543 519 q 463 678 543 617 q 338 720 407 720 l 338 633 m 336 -1 q 502 71 431 -3 q 559 201 559 130 l 473 233 l 473 206 q 397 98 465 130 q 336 84 368 84 l 336 -1 z "},"ˇ":{"ha":366,"x_min":52,"x_max":313,"o":"m 52 903 l 118 903 l 183 772 l 247 903 l 313 903 l 210 697 l 155 697 l 52 903 z "},"č":{"ha":595,"x_min":53,"x_max":559,"o":"m 174 1008 l 240 1008 l 305 876 l 369 1008 l 435 1008 l 332 802 l 277 802 l 174 1008 m 53 197 q 107 68 53 126 q 277 0 171 0 l 277 85 q 160 146 201 85 q 144 197 144 172 l 144 518 q 191 605 144 567 q 277 635 229 635 l 277 720 q 84 618 149 720 q 53 522 54 570 l 53 197 m 338 633 q 438 576 404 633 q 457 517 454 551 q 458 488 458 510 l 543 519 q 463 678 543 617 q 338 720 407 720 l 338 633 m 336 -1 q 502 71 431 -3 q 559 201 559 130 l 473 233 l 473 206 q 397 98 465 130 q 336 84 368 84 l 336 -1 z "},"ç":{"ha":595,"x_min":53,"x_max":559,"o":"m 146 -244 l 146 -172 q 262 -109 231 -172 q 274 -54 274 -84 l 349 -54 q 278 -203 349 -149 q 146 -244 225 -244 m 53 197 q 107 68 53 126 q 277 0 171 0 l 277 85 q 160 146 201 85 q 144 197 144 172 l 144 518 q 191 605 144 567 q 277 635 229 635 l 277 720 q 84 618 149 720 q 53 522 54 570 l 53 197 m 338 633 q 438 576 404 633 q 457 517 454 551 q 458 488 458 510 l 543 519 q 463 678 543 617 q 338 720 407 720 l 338 633 m 336 -1 q 502 71 431 -3 q 559 201 559 130 l 473 233 l 473 206 q 397 98 465 130 q 336 84 368 84 l 336 -1 z "},"¸":{"ha":552,"x_min":167,"x_max":369,"o":"m 167 -23 l 167 49 q 282 113 251 49 q 294 167 294 137 l 369 167 q 298 18 369 72 q 167 -23 245 -23 z "},"¢":{"ha":583,"x_min":52,"x_max":556,"o":"m 335 815 l 335 632 q 434 579 399 632 q 456 513 453 549 q 456 499 456 510 q 457 487 457 490 l 541 518 q 460 677 541 617 q 387 712 426 703 l 387 815 l 335 815 m 224 815 l 224 713 q 73 600 121 693 q 52 521 52 559 l 52 197 q 107 66 52 125 q 224 4 155 18 l 224 -95 l 275 -95 l 275 85 q 159 149 199 87 q 141 201 141 176 l 141 513 q 191 605 141 567 q 275 633 229 633 l 275 815 l 224 815 m 335 -95 l 387 -95 l 387 5 q 529 107 480 27 q 556 201 556 153 l 472 233 q 471 217 472 229 q 471 203 471 206 q 395 98 461 130 q 335 84 365 84 l 335 -95 z "},"ˆ":{"ha":366,"x_min":52,"x_max":313,"o":"m 52 697 l 153 903 l 210 903 l 313 697 l 247 697 l 182 829 l 118 697 l 52 697 z "},":":{"ha":244,"x_min":68,"x_max":176,"o":"m 68 73 q 103 123 68 111 q 122 127 113 127 q 172 92 159 127 q 175 73 175 83 q 140 23 175 35 q 122 20 132 20 q 72 54 84 20 q 68 73 68 64 m 69 467 q 103 517 69 503 q 122 521 114 521 q 172 486 160 521 q 176 467 176 476 q 141 416 176 430 q 122 414 132 414 q 73 448 85 414 q 69 467 69 457 z "},",":{"ha":254,"x_min":58,"x_max":195,"o":"m 58 -31 l 109 175 l 195 175 l 145 -31 l 58 -31 z "},"©":{"ha":1059,"x_min":47,"x_max":1019,"o":"m 47 460 q 187 111 47 255 q 486 -33 313 -20 q 513 -34 499 -34 l 513 34 q 227 165 346 35 q 110 460 111 293 q 252 784 110 656 q 513 890 376 886 l 513 954 q 252 863 381 955 q 53 536 81 741 q 47 460 47 498 m 339 330 q 393 198 339 250 q 513 153 441 153 l 513 216 q 416 278 446 216 q 404 330 404 304 l 404 586 q 446 680 404 643 q 513 703 473 703 l 513 766 q 361 673 408 766 q 339 589 339 631 l 339 330 m 560 -34 q 853 87 720 -33 q 1016 411 997 218 q 1019 456 1019 434 q 867 819 1019 673 q 593 952 745 939 q 560 954 575 954 l 560 890 q 822 777 705 890 q 956 472 951 652 q 956 457 956 464 q 842 169 956 296 q 574 34 728 42 q 560 34 567 34 l 560 -34 m 560 152 q 685 220 635 152 q 718 315 718 264 l 655 338 l 655 320 q 604 228 652 259 q 560 216 582 216 l 560 152 m 560 703 q 633 658 604 703 q 652 594 652 629 l 652 582 l 716 605 q 652 734 716 682 q 560 766 609 766 l 560 703 z "},"¤":{"ha":829,"x_min":54,"x_max":761,"o":"m 54 232 l 168 335 q 160 377 160 351 l 160 613 q 168 656 160 636 l 54 758 l 106 818 l 208 728 q 382 808 274 807 l 382 726 q 260 656 298 726 q 244 601 244 628 l 244 388 q 293 297 244 339 q 382 262 334 262 l 382 179 q 206 263 275 180 l 106 174 l 54 232 m 438 179 l 438 260 q 553 331 515 260 q 570 387 570 359 l 570 600 q 522 696 570 655 q 438 726 486 726 l 438 808 q 608 727 547 807 l 709 818 l 761 758 l 646 655 q 654 613 654 635 l 654 377 q 646 335 654 355 l 761 232 l 709 174 l 609 262 q 438 179 543 180 z "},"d":{"ha":593,"x_min":41,"x_max":538,"o":"m 41 197 l 41 526 q 110 662 41 601 q 254 719 174 719 l 382 719 l 382 633 l 255 633 q 152 579 194 632 q 129 519 129 548 l 129 199 q 186 110 129 148 q 255 87 221 87 l 382 87 l 382 0 l 258 0 q 73 102 138 0 q 41 197 41 152 m 446 0 l 446 955 l 538 955 l 538 0 l 446 0 z "},"†":{"ha":614,"x_min":35,"x_max":579,"o":"m 35 652 l 35 738 l 260 738 l 260 1036 l 353 1036 l 353 738 l 579 738 l 579 652 l 353 652 l 353 -76 l 260 -76 l 260 652 l 35 652 z "},"‡":{"ha":614,"x_min":35,"x_max":579,"o":"m 35 220 l 35 305 l 262 305 l 262 655 l 35 655 l 35 741 l 262 741 l 262 1036 l 354 1036 l 354 741 l 579 741 l 579 655 l 354 655 l 354 305 l 579 305 l 579 220 l 354 220 l 354 -76 l 262 -76 l 262 220 l 35 220 z "},"ď":{"ha":593,"x_min":41,"x_max":783,"o":"m 646 765 l 696 971 l 783 971 l 732 765 l 646 765 m 41 197 l 41 526 q 110 662 41 601 q 254 719 174 719 l 382 719 l 382 633 l 255 633 q 152 579 194 632 q 129 519 129 548 l 129 199 q 186 110 129 148 q 255 87 221 87 l 382 87 l 382 0 l 258 0 q 73 102 138 0 q 41 197 41 152 m 446 0 l 446 955 l 538 955 l 538 0 l 446 0 z "},"đ":{"ha":562,"x_min":37,"x_max":608,"o":"m 37 191 l 37 511 q 104 644 37 585 q 244 700 165 700 l 372 700 l 372 618 l 245 618 q 142 564 184 617 q 121 506 121 534 l 121 194 q 178 103 121 141 q 245 81 213 81 l 372 81 l 372 0 l 248 0 q 68 99 130 0 q 37 191 37 148 m 339 789 l 339 863 l 434 863 l 434 955 l 521 955 l 521 863 l 608 863 l 608 789 l 521 789 l 521 0 l 434 0 l 434 789 l 339 789 z "},"°":{"ha":319,"x_min":47,"x_max":271,"o":"m 47 791 q 102 886 47 853 q 159 902 129 902 q 255 848 222 902 q 271 791 271 821 q 216 696 271 728 q 159 680 189 680 q 64 734 96 680 q 47 791 47 761 m 107 791 q 141 742 107 754 q 159 739 151 739 q 209 774 197 739 q 212 791 212 783 q 176 841 212 829 q 159 844 168 844 q 111 810 123 844 q 107 791 107 800 z "},"¨":{"ha":423,"x_min":75,"x_max":349,"o":"m 75 921 q 110 971 75 958 q 130 975 121 975 q 183 940 170 975 q 186 921 186 930 q 149 868 186 882 q 130 865 140 865 q 79 899 94 865 q 75 921 75 910 m 237 921 q 273 971 237 958 q 293 975 283 975 q 346 940 332 975 q 349 921 349 930 q 312 868 349 882 q 293 865 302 865 q 241 899 256 865 q 237 921 237 910 z "},"÷":{"ha":882,"x_min":123,"x_max":734,"o":"m 123 353 l 123 438 l 734 438 l 734 353 l 123 353 m 373 586 q 412 647 373 629 q 439 652 426 652 q 500 613 483 652 q 506 586 506 600 q 467 525 506 543 q 439 519 453 519 q 378 559 396 519 q 373 586 373 572 m 373 220 q 412 281 373 263 q 439 286 426 286 q 500 247 483 286 q 506 220 506 233 q 467 159 506 176 q 439 153 453 153 q 378 193 396 153 q 373 220 373 206 z "},"$":{"ha":692,"x_min":46,"x_max":644,"o":"m 46 214 l 132 244 q 264 91 152 127 q 300 83 300 83 l 300 -64 l 244 -64 l 244 4 q 79 125 140 27 q 46 214 47 175 m 57 694 q 182 910 57 837 q 244 937 213 928 l 244 1017 l 300 1017 l 300 863 q 203 817 251 860 q 148 690 149 765 q 281 557 148 598 q 300 552 290 555 l 300 454 q 224 475 241 468 q 77 590 111 519 q 57 694 57 635 m 365 -64 l 365 83 q 483 137 423 84 q 552 281 552 197 q 414 426 552 384 q 365 438 392 431 l 365 533 q 471 506 441 517 q 627 378 591 463 q 644 278 644 335 q 555 76 644 161 q 420 4 495 20 l 420 -64 l 365 -64 m 365 863 l 365 1017 l 420 1017 l 420 940 q 581 812 519 914 q 606 750 601 777 l 521 722 q 492 787 511 758 q 451 829 472 815 q 410 851 430 842 q 377 861 391 860 l 365 863 z "},"˙":{"ha":274,"x_min":79,"x_max":195,"o":"m 79 920 q 114 974 79 959 q 137 979 126 979 q 191 943 176 979 q 195 920 195 932 q 159 865 195 879 q 137 861 148 861 q 83 898 96 861 q 79 920 79 909 z "},"ı":{"ha":236,"x_min":76,"x_max":161,"o":"m 76 0 l 76 700 l 161 700 l 161 0 l 76 0 z "},"◌":{"ha":863,"x_min":60,"x_max":814,"o":"m 220 656 q 255 707 220 693 q 274 709 264 709 q 324 675 312 709 q 328 656 328 666 q 293 606 328 618 q 274 602 283 602 q 224 637 236 602 q 220 656 220 647 m 104 540 q 138 590 104 578 q 157 594 148 594 q 208 559 195 594 q 212 540 212 549 q 176 490 212 502 q 157 486 167 486 q 107 521 121 486 q 104 540 104 530 m 220 98 q 255 148 220 136 q 274 152 264 152 q 324 117 312 152 q 328 98 328 107 q 293 47 328 61 q 274 45 283 45 q 224 79 236 45 q 220 98 220 88 m 104 214 q 138 264 104 252 q 157 269 148 269 q 208 233 195 269 q 212 214 212 224 q 176 164 212 176 q 157 160 167 160 q 107 195 121 160 q 104 214 104 205 m 545 98 q 581 148 545 136 q 600 152 590 152 q 650 117 637 152 q 654 98 654 107 q 618 47 654 61 q 600 45 609 45 q 549 79 562 45 q 545 98 545 88 m 662 214 q 697 264 662 252 q 716 269 707 269 q 766 233 753 269 q 769 214 769 224 q 735 164 769 176 q 716 160 726 160 q 666 195 678 160 q 662 214 662 205 m 662 540 q 697 590 662 578 q 716 594 707 594 q 766 559 753 594 q 769 540 769 549 q 735 490 769 502 q 716 486 726 486 q 666 521 678 486 q 662 540 662 530 m 545 656 q 581 707 545 693 q 600 709 590 709 q 650 675 637 709 q 654 656 654 666 q 618 606 654 618 q 600 602 609 602 q 549 637 562 602 q 545 656 545 647 m 705 377 q 741 427 705 415 q 760 431 750 431 q 810 396 798 431 q 814 377 814 387 q 779 327 814 339 q 760 323 769 323 q 709 358 722 323 q 705 377 705 368 m 382 54 q 418 104 382 92 q 437 109 427 109 q 487 73 475 109 q 491 54 491 64 q 456 4 491 16 q 437 0 446 0 q 387 35 399 0 q 382 54 382 45 m 60 377 q 95 427 60 415 q 114 431 104 431 q 164 396 152 431 q 168 377 168 387 q 133 327 168 339 q 114 323 123 323 q 64 358 76 323 q 60 377 60 368 m 382 700 q 418 750 382 738 q 437 754 427 754 q 487 719 475 754 q 491 700 491 709 q 456 650 491 662 q 437 646 446 646 q 387 681 399 646 q 382 700 382 690 z "},"e":{"ha":625,"x_min":53,"x_max":572,"o":"m 53 197 l 53 526 q 113 648 54 589 q 279 720 180 719 l 279 635 q 164 571 208 635 q 144 515 144 541 l 144 415 l 484 415 l 484 515 q 418 617 484 581 q 345 637 382 637 l 345 720 q 510 654 437 720 q 571 528 570 597 l 571 328 l 144 328 l 144 197 q 191 118 144 157 q 281 84 233 84 l 281 0 q 90 99 160 0 q 53 197 53 152 m 345 0 l 345 87 q 475 157 430 87 q 492 197 488 178 l 572 167 q 456 26 545 71 q 345 0 404 0 z "},"é":{"ha":625,"x_min":53,"x_max":572,"o":"m 279 802 l 330 1008 l 416 1008 l 342 802 l 279 802 m 53 197 l 53 526 q 113 648 54 589 q 279 720 180 719 l 279 635 q 164 571 208 635 q 144 515 144 541 l 144 415 l 484 415 l 484 515 q 418 617 484 581 q 345 637 382 637 l 345 720 q 510 654 437 720 q 571 528 570 597 l 571 328 l 144 328 l 144 197 q 191 118 144 157 q 281 84 233 84 l 281 0 q 90 99 160 0 q 53 197 53 152 m 345 0 l 345 87 q 475 157 430 87 q 492 197 488 178 l 572 167 q 456 26 545 71 q 345 0 404 0 z "},"ě":{"ha":625,"x_min":53,"x_max":572,"o":"m 179 1008 l 245 1008 l 311 876 l 374 1008 l 441 1008 l 338 802 l 282 802 l 179 1008 m 53 197 l 53 526 q 113 648 54 589 q 279 720 180 719 l 279 635 q 164 571 208 635 q 144 515 144 541 l 144 415 l 484 415 l 484 515 q 418 617 484 581 q 345 637 382 637 l 345 720 q 510 654 437 720 q 571 528 570 597 l 571 328 l 144 328 l 144 197 q 191 118 144 157 q 281 84 233 84 l 281 0 q 90 99 160 0 q 53 197 53 152 m 345 0 l 345 87 q 475 157 430 87 q 492 197 488 178 l 572 167 q 456 26 545 71 q 345 0 404 0 z "},"ê":{"ha":625,"x_min":53,"x_max":572,"o":"m 179 802 l 281 1008 l 338 1008 l 441 802 l 374 802 l 309 933 l 245 802 l 179 802 m 53 197 l 53 526 q 113 648 54 589 q 279 720 180 719 l 279 635 q 164 571 208 635 q 144 515 144 541 l 144 415 l 484 415 l 484 515 q 418 617 484 581 q 345 637 382 637 l 345 720 q 510 654 437 720 q 571 528 570 597 l 571 328 l 144 328 l 144 197 q 191 118 144 157 q 281 84 233 84 l 281 0 q 90 99 160 0 q 53 197 53 152 m 345 0 l 345 87 q 475 157 430 87 q 492 197 488 178 l 572 167 q 456 26 545 71 q 345 0 404 0 z "},"ë":{"ha":625,"x_min":53,"x_max":572,"o":"m 174 857 q 209 907 174 894 q 229 911 220 911 q 282 876 269 911 q 285 857 285 867 q 248 804 285 818 q 229 802 239 802 q 178 836 193 802 q 174 857 174 846 m 336 857 q 372 907 336 894 q 392 911 382 911 q 445 876 431 911 q 448 857 448 867 q 411 804 448 818 q 392 802 401 802 q 340 836 355 802 q 336 857 336 846 m 53 197 l 53 526 q 113 648 54 589 q 279 720 180 719 l 279 635 q 164 571 208 635 q 144 515 144 541 l 144 415 l 484 415 l 484 515 q 418 617 484 581 q 345 637 382 637 l 345 720 q 510 654 437 720 q 571 528 570 597 l 571 328 l 144 328 l 144 197 q 191 118 144 157 q 281 84 233 84 l 281 0 q 90 99 160 0 q 53 197 53 152 m 345 0 l 345 87 q 475 157 430 87 q 492 197 488 178 l 572 167 q 456 26 545 71 q 345 0 404 0 z "},"ė":{"ha":625,"x_min":53,"x_max":572,"o":"m 252 860 q 288 914 252 899 q 311 920 300 920 q 365 883 350 920 q 369 860 369 872 q 332 806 369 819 q 311 802 321 802 q 256 838 270 802 q 252 860 252 849 m 53 197 l 53 526 q 113 648 54 589 q 279 720 180 719 l 279 635 q 164 571 208 635 q 144 515 144 541 l 144 415 l 484 415 l 484 515 q 418 617 484 581 q 345 637 382 637 l 345 720 q 510 654 437 720 q 571 528 570 597 l 571 328 l 144 328 l 144 197 q 191 118 144 157 q 281 84 233 84 l 281 0 q 90 99 160 0 q 53 197 53 152 m 345 0 l 345 87 q 475 157 430 87 q 492 197 488 178 l 572 167 q 456 26 545 71 q 345 0 404 0 z "},"è":{"ha":625,"x_min":53,"x_max":572,"o":"m 203 1008 l 290 1008 l 340 802 l 278 802 l 203 1008 m 53 197 l 53 526 q 113 648 54 589 q 279 720 180 719 l 279 635 q 164 571 208 635 q 144 515 144 541 l 144 415 l 484 415 l 484 515 q 418 617 484 581 q 345 637 382 637 l 345 720 q 510 654 437 720 q 571 528 570 597 l 571 328 l 144 328 l 144 197 q 191 118 144 157 q 281 84 233 84 l 281 0 q 90 99 160 0 q 53 197 53 152 m 345 0 l 345 87 q 475 157 430 87 q 492 197 488 178 l 572 167 q 456 26 545 71 q 345 0 404 0 z "},"…":{"ha":872,"x_min":60,"x_max":812,"o":"m 60 24 q 95 75 60 62 q 114 79 104 79 q 164 43 152 79 q 168 24 168 34 q 133 -26 168 -14 q 114 -30 123 -30 q 64 5 76 -30 q 60 24 60 15 m 382 24 q 418 75 382 62 q 437 79 427 79 q 487 43 475 79 q 491 24 491 34 q 456 -26 491 -14 q 437 -30 446 -30 q 387 5 399 -30 q 382 24 382 15 m 705 24 q 739 75 705 62 q 758 79 749 79 q 808 43 796 79 q 812 24 812 34 q 777 -26 812 -14 q 758 -30 768 -30 q 708 5 722 -30 q 705 24 705 15 z "},"ē":{"ha":625,"x_min":53,"x_max":572,"o":"m 96 803 l 96 863 l 525 863 l 525 803 l 96 803 m 53 197 l 53 526 q 113 648 54 589 q 279 720 180 719 l 279 635 q 164 571 208 635 q 144 515 144 541 l 144 415 l 484 415 l 484 515 q 418 617 484 581 q 345 637 382 637 l 345 720 q 510 654 437 720 q 571 528 570 597 l 571 328 l 144 328 l 144 197 q 191 118 144 157 q 281 84 233 84 l 281 0 q 90 99 160 0 q 53 197 53 152 m 345 0 l 345 87 q 475 157 430 87 q 492 197 488 178 l 572 167 q 456 26 545 71 q 345 0 404 0 z "},"—":{"ha":1229,"x_min":35,"x_max":1194,"o":"m 35 355 l 35 441 l 1194 441 l 1194 355 l 35 355 z "},"–":{"ha":722,"x_min":35,"x_max":686,"o":"m 35 355 l 35 441 l 686 441 l 686 355 l 35 355 z "},"ę":{"ha":625,"x_min":53,"x_max":572,"o":"m 480 -244 l 480 -172 q 365 -109 396 -172 q 353 -54 353 -84 l 278 -54 q 349 -203 278 -149 q 480 -244 401 -244 m 53 197 l 53 526 q 113 648 54 589 q 279 720 180 719 l 279 635 q 164 571 208 635 q 144 515 144 541 l 144 415 l 484 415 l 484 515 q 418 617 484 581 q 345 637 382 637 l 345 720 q 510 654 437 720 q 571 528 570 597 l 571 328 l 144 328 l 144 197 q 191 118 144 157 q 281 84 233 84 l 281 0 q 90 99 160 0 q 53 197 53 152 m 345 0 l 345 87 q 475 157 430 87 q 492 197 488 178 l 572 167 q 456 26 545 71 q 345 0 404 0 z "},"=":{"ha":567,"x_min":68,"x_max":499,"o":"m 68 263 l 68 350 l 499 350 l 499 263 l 68 263 m 68 441 l 68 528 l 499 528 l 499 441 l 68 441 z "},"℮":{"ha":720,"x_min":41,"x_max":632,"o":"m 300 0 q 91 110 165 0 q 41 281 41 186 l 41 677 q 125 883 41 799 q 300 956 198 956 l 300 865 q 163 781 209 865 q 133 655 133 727 l 133 481 l 540 481 l 540 655 q 456 841 540 785 q 374 865 418 865 l 374 956 q 578 848 502 956 q 632 678 632 770 l 632 391 l 133 391 l 133 301 q 232 104 133 152 q 300 90 263 91 l 300 0 m 374 -1 l 374 92 q 510 152 456 94 q 541 212 536 182 l 632 184 q 515 37 613 91 q 374 -1 449 -1 z "},"ð":{"ha":570,"x_min":38,"x_max":549,"o":"m 38 191 l 38 510 q 95 631 38 572 q 260 700 161 700 l 260 618 q 137 547 175 618 q 122 492 122 518 l 122 209 q 170 115 122 159 q 260 80 210 80 l 260 -1 q 69 99 136 -1 q 38 191 38 148 m 260 916 l 260 968 q 456 861 389 943 l 532 883 l 549 826 l 488 807 q 532 594 532 723 l 532 191 q 476 68 532 127 q 316 -1 412 0 l 316 80 q 433 151 395 80 q 448 206 448 180 l 448 502 q 396 593 448 556 q 316 618 361 618 l 316 700 q 442 654 392 699 q 414 785 442 731 l 328 760 l 311 817 l 382 838 q 260 916 345 882 z "},"!":{"ha":221,"x_min":57,"x_max":164,"o":"m 57 42 q 92 92 57 80 q 111 96 102 96 q 161 61 148 96 q 164 42 164 52 q 130 -7 164 5 q 111 -11 121 -11 q 61 23 75 -11 q 57 42 57 34 m 68 225 l 68 949 l 156 949 l 156 225 l 68 225 z "},"¡":{"ha":228,"x_min":27,"x_max":142,"o":"m 27 666 q 62 719 27 703 q 85 723 73 723 q 138 688 123 723 q 142 666 142 677 q 107 613 142 628 q 85 609 96 609 q 33 643 47 609 q 27 666 27 655 m 41 -167 l 41 552 l 132 552 l 132 -167 l 41 -167 z "},"f":{"ha":359,"x_min":35,"x_max":339,"o":"m 35 576 l 35 663 l 123 663 l 123 751 q 176 898 123 838 q 304 952 225 951 l 339 952 l 320 865 l 301 865 q 213 751 214 860 l 213 662 l 302 663 l 302 576 l 213 576 l 213 0 l 123 0 l 123 576 l 35 576 z "},"ﬁ":{"ha":670,"x_min":75,"x_max":492,"o":"m 75 581 l 160 581 l 160 0 l 245 0 l 245 581 l 396 581 l 396 0 l 481 0 l 481 661 l 245 661 l 245 749 q 326 863 248 853 l 350 863 l 369 944 l 335 944 q 172 823 212 944 q 160 749 160 785 l 160 662 l 75 662 l 75 581 m 382 808 q 418 760 382 773 q 438 755 429 755 q 488 789 476 755 q 492 808 492 799 q 457 859 492 846 q 438 863 448 863 q 387 829 401 863 q 382 808 382 818 z "},"ﬂ":{"ha":490,"x_min":75,"x_max":499,"o":"m 75 581 l 160 581 l 160 0 l 245 0 l 245 581 l 332 581 l 332 662 l 245 661 l 245 749 q 288 849 245 819 q 332 863 307 861 l 412 863 l 412 0 l 499 0 l 499 944 l 335 944 q 172 823 212 944 q 160 749 160 785 l 160 662 l 75 662 l 75 581 z "},"ƒ":{"ha":518,"x_min":35,"x_max":483,"o":"m 35 -228 l 56 -151 l 104 -151 q 191 -56 190 -149 l 191 579 l 106 579 l 106 661 l 191 661 l 191 732 q 254 880 191 815 q 400 944 313 943 l 483 944 l 464 863 l 425 863 q 277 724 278 860 l 277 659 l 366 661 l 366 579 l 277 579 l 277 -41 q 98 -228 274 -227 l 35 -228 z "},"⁄":{"ha":670,"x_min":9,"x_max":659,"o":"m 9 -1 l 595 951 l 659 951 l 76 -1 l 9 -1 z "},"g":{"ha":595,"x_min":37,"x_max":543,"o":"m 37 -250 l 60 -165 l 311 -165 q 441 -98 399 -161 q 456 -53 456 -75 l 456 57 q 326 3 396 3 l 326 83 q 430 136 387 83 q 456 198 456 167 l 456 525 q 387 623 456 589 q 326 639 354 639 l 326 723 q 449 678 393 723 q 456 671 453 674 l 456 723 l 543 723 l 543 -53 q 492 -171 543 -110 q 330 -250 426 -248 l 37 -250 m 49 197 l 49 530 q 103 652 50 593 q 266 723 170 722 l 266 639 q 155 575 195 639 q 137 526 137 549 l 137 198 q 183 117 137 153 q 266 87 221 87 l 266 3 q 79 106 142 3 q 49 197 49 155 z "},"ğ":{"ha":595,"x_min":37,"x_max":543,"o":"m 190 902 l 245 902 q 275 860 245 869 q 289 859 283 859 q 331 888 321 859 q 332 902 332 897 l 388 902 q 346 823 388 853 q 289 804 320 804 q 199 863 227 804 q 190 902 190 883 m 37 -250 l 60 -165 l 311 -165 q 441 -98 399 -161 q 456 -53 456 -75 l 456 57 q 326 3 396 3 l 326 83 q 430 136 387 83 q 456 198 456 167 l 456 525 q 387 623 456 589 q 326 639 354 639 l 326 723 q 449 678 393 723 q 456 671 453 674 l 456 723 l 543 723 l 543 -53 q 492 -171 543 -110 q 330 -250 426 -248 l 37 -250 m 49 197 l 49 530 q 103 652 50 593 q 266 723 170 722 l 266 639 q 155 575 195 639 q 137 526 137 549 l 137 198 q 183 117 137 153 q 266 87 221 87 l 266 3 q 79 106 142 3 q 49 197 49 155 z "},"ß":{"ha":708,"x_min":35,"x_max":673,"o":"m 35 0 l 35 620 q 52 791 37 739 q 307 956 102 955 q 549 745 530 956 q 551 703 551 724 l 551 551 l 476 551 q 416 511 429 549 q 414 499 414 505 q 467 431 414 458 q 530 406 494 418 q 673 210 671 355 q 572 33 673 91 q 444 0 515 0 l 270 0 l 270 79 l 416 79 q 578 149 538 79 q 591 208 591 175 q 551 304 591 274 q 481 342 534 315 q 454 354 473 346 q 353 425 377 391 q 331 503 331 458 q 430 620 331 595 q 469 627 449 625 l 469 643 q 449 803 469 761 q 307 873 414 872 q 123 675 125 872 l 123 0 l 35 0 z "},"`":{"ha":285,"x_min":56,"x_max":193,"o":"m 56 1027 l 142 1027 l 193 821 l 130 821 l 56 1027 z "},">":{"ha":581,"x_min":50,"x_max":530,"o":"m 50 107 l 50 194 l 418 396 l 50 590 l 50 678 l 530 423 l 530 368 l 50 107 z "},"≥":{"ha":585,"x_min":38,"x_max":544,"o":"m 41 201 l 41 288 l 425 487 l 41 681 l 41 769 l 544 513 l 544 460 l 41 201 m 38 52 l 38 129 l 544 129 l 544 52 l 38 52 z "},"«":{"ha":637,"x_min":34,"x_max":606,"o":"m 34 373 l 34 414 l 320 625 l 320 529 l 134 396 l 320 255 l 320 160 l 34 373 m 320 373 l 320 414 l 606 625 l 606 529 l 420 396 l 606 255 l 606 160 l 320 373 z "},"»":{"ha":620,"x_min":20,"x_max":593,"o":"m 20 179 l 20 264 l 227 396 l 20 518 l 20 605 l 307 423 l 307 363 l 20 179 m 307 179 l 307 264 l 513 396 l 307 518 l 307 605 l 593 423 l 593 363 l 307 179 z "},"‹":{"ha":458,"x_min":84,"x_max":369,"o":"m 84 396 l 262 678 l 369 678 l 191 396 l 369 107 l 262 107 l 84 396 z "},"›":{"ha":458,"x_min":85,"x_max":372,"o":"m 85 107 l 263 396 l 85 678 l 194 678 l 372 396 l 194 107 l 85 107 z "},"h":{"ha":614,"x_min":54,"x_max":564,"o":"m 54 -3 l 54 954 l 141 954 l 141 651 q 282 709 194 708 l 282 625 q 170 570 217 625 q 142 506 142 537 l 142 -3 l 54 -3 m 345 625 l 345 709 q 532 620 471 709 q 564 518 564 572 l 564 -3 l 477 -3 l 477 506 q 423 605 477 570 q 345 625 389 625 z "},"˝":{"ha":392,"x_min":117,"x_max":400,"o":"m 263 821 l 313 1027 l 400 1027 l 326 821 l 263 821 m 117 821 l 167 1027 l 254 1027 l 179 821 l 117 821 z "},"-":{"ha":545,"x_min":58,"x_max":487,"o":"m 58 355 l 58 441 l 487 441 l 487 355 l 58 355 z "},"i":{"ha":229,"x_min":60,"x_max":168,"o":"m 60 817 q 95 867 60 853 q 115 871 106 871 q 165 836 152 871 q 168 817 168 826 q 133 766 168 779 q 115 764 123 764 q 64 798 77 764 q 60 817 60 807 m 71 0 l 71 709 l 160 709 l 160 0 l 71 0 z "},"í":{"ha":236,"x_min":76,"x_max":225,"o":"m 88 802 l 138 1008 l 225 1008 l 151 802 l 88 802 m 76 0 l 76 700 l 161 700 l 161 0 l 76 0 z "},"î":{"ha":236,"x_min":-12,"x_max":250,"o":"m -12 802 l 90 1008 l 146 1008 l 250 802 l 183 802 l 118 933 l 54 802 l -12 802 m 76 0 l 76 700 l 161 700 l 161 0 l 76 0 z "},"ï":{"ha":236,"x_min":-18,"x_max":256,"o":"m -18 857 q 18 907 -18 894 q 38 911 28 911 q 91 876 77 911 q 94 857 94 867 q 57 804 94 818 q 38 802 47 802 q -14 836 1 802 q -18 857 -18 846 m 145 857 q 180 907 145 894 q 201 911 191 911 q 254 876 240 911 q 256 857 256 867 q 220 804 256 818 q 201 802 210 802 q 149 836 164 802 q 145 857 145 846 m 76 0 l 76 700 l 161 700 l 161 0 l 76 0 z "},"ì":{"ha":236,"x_min":12,"x_max":161,"o":"m 12 1008 l 99 1008 l 149 802 l 87 802 l 12 1008 m 76 0 l 76 700 l 161 700 l 161 0 l 76 0 z "},"ī":{"ha":236,"x_min":-95,"x_max":334,"o":"m -95 803 l -95 863 l 334 863 l 334 803 l -95 803 m 76 0 l 76 700 l 161 700 l 161 0 l 76 0 z "},"∞":{"ha":1082,"x_min":41,"x_max":1047,"o":"m 319 -1 l 319 81 q 410 132 381 81 q 414 141 412 137 l 499 351 l 414 557 q 332 617 392 610 q 319 618 324 618 l 319 700 q 464 635 408 700 q 488 594 480 614 l 545 454 l 601 593 q 705 689 628 661 q 770 700 738 700 l 770 617 q 682 570 711 617 q 675 557 678 563 l 590 351 l 675 142 q 757 83 697 90 q 770 81 765 81 l 770 0 q 624 69 680 0 q 602 106 610 88 l 545 250 l 487 106 q 374 7 454 33 q 319 -1 347 -1 m 263 -1 q 72 99 138 -1 q 41 191 41 148 l 41 510 q 98 631 41 572 q 263 700 164 700 l 263 618 q 140 547 178 618 q 125 492 125 518 l 125 209 q 172 117 125 159 q 263 81 213 81 l 263 -1 m 826 -1 l 826 80 q 944 149 901 80 q 963 208 963 180 l 963 492 q 913 589 963 551 q 826 617 875 617 l 826 700 q 1015 602 948 700 q 1047 510 1047 553 l 1047 191 q 991 68 1047 127 q 826 -1 925 -1 z "},"∫":{"ha":408,"x_min":12,"x_max":393,"o":"m 12 -194 q 115 -168 69 -209 q 172 -4 172 -118 l 172 848 q 275 1065 172 1001 q 393 1088 335 1100 l 393 1036 q 297 1015 345 1054 q 237 848 237 963 l 237 -4 q 134 -222 237 -159 q 12 -245 73 -258 l 12 -194 z "},"į":{"ha":229,"x_min":60,"x_max":279,"o":"m 279 -241 q 96 -137 146 -241 q 77 -52 77 -96 l 152 -52 q 224 -160 152 -132 q 279 -170 251 -170 l 279 -241 m 60 817 q 95 867 60 853 q 115 871 106 871 q 165 836 152 871 q 168 817 168 826 q 133 766 168 779 q 115 764 123 764 q 64 798 77 764 q 60 817 60 807 m 71 0 l 71 709 l 160 709 l 160 0 l 71 0 z "},"j":{"ha":262,"x_min":-57,"x_max":203,"o":"m 103 709 l 194 709 l 194 -50 q 141 -176 194 -113 q -16 -252 77 -251 l -57 -252 l -37 -167 l -15 -167 q 85 -106 47 -163 q 103 -50 103 -76 l 103 709 m 95 817 q 130 867 95 853 q 151 871 141 871 q 199 838 186 871 q 203 817 203 827 q 170 768 203 780 q 151 764 160 764 q 99 798 113 764 q 95 817 95 807 z "},"k":{"ha":637,"x_min":56,"x_max":610,"o":"m 56 0 l 56 954 l 146 954 l 146 0 l 56 0 m 179 359 l 495 719 l 609 719 l 292 359 l 610 0 l 496 0 l 179 359 z "},"l":{"ha":208,"x_min":57,"x_max":151,"o":"m 57 0 l 57 954 l 151 954 l 151 0 l 57 0 z "},"ĺ":{"ha":208,"x_min":57,"x_max":209,"o":"m 72 1053 l 122 1259 l 209 1259 l 134 1053 l 72 1053 m 57 0 l 57 954 l 151 954 l 151 0 l 57 0 z "},"ľ":{"ha":275,"x_min":53,"x_max":357,"o":"m 220 764 l 270 970 l 357 970 l 307 764 l 220 764 m 53 0 l 53 954 l 146 954 l 146 0 l 53 0 z "},"<":{"ha":581,"x_min":50,"x_max":530,"o":"m 50 368 l 50 423 l 530 678 l 530 590 l 163 396 l 530 194 l 530 107 l 50 368 z "},"≤":{"ha":585,"x_min":27,"x_max":544,"o":"m 530 199 l 27 460 l 27 513 l 530 768 l 530 681 l 146 487 l 530 288 l 530 199 m 38 52 l 38 129 l 544 129 l 544 52 l 38 52 z "},"¬":{"ha":694,"x_min":54,"x_max":627,"o":"m 54 484 l 54 564 l 627 564 l 627 282 l 543 282 l 543 484 l 54 484 z "},"◊":{"ha":574,"x_min":-4,"x_max":567,"o":"m -4 477 l 256 958 l 312 958 l 567 477 l 307 -3 l 251 -3 l -4 477 m 84 477 l 278 110 l 480 477 l 283 845 l 84 477 z "},"ł":{"ha":575,"x_min":119,"x_max":467,"o":"m 247 -4 l 340 -4 l 340 488 l 467 586 l 415 652 l 340 595 l 340 949 l 247 949 l 247 522 l 119 425 l 171 358 l 247 416 l 247 -4 z "},"m":{"ha":972,"x_min":52,"x_max":921,"o":"m 52 0 l 52 526 q 110 665 52 606 q 260 723 168 723 l 260 636 q 153 567 182 636 q 142 514 142 541 l 142 0 l 52 0 m 320 636 l 320 723 q 477 655 422 723 q 487 643 483 648 q 612 720 536 711 q 651 723 631 723 l 651 636 q 541 566 570 636 q 532 514 532 541 l 532 0 l 441 0 l 441 514 q 380 623 441 590 q 320 636 353 636 m 712 636 l 712 723 q 897 616 840 723 q 921 526 921 570 l 921 0 l 830 0 l 830 514 q 766 625 830 595 q 712 636 742 636 z "},"¯":{"ha":692,"x_min":50,"x_max":661,"o":"m 50 1043 l 661 1043 l 661 966 l 50 966 l 50 1043 z "},"−":{"ha":564,"x_min":58,"x_max":487,"o":"m 58 355 l 58 441 l 487 441 l 487 355 l 58 355 z "},"×":{"ha":746,"x_min":148,"x_max":762,"o":"m 210 258 l 148 321 l 392 566 l 148 810 l 210 873 l 454 629 l 701 873 l 762 811 l 518 566 l 762 320 l 700 256 l 454 503 l 210 258 z "},"n":{"ha":624,"x_min":52,"x_max":572,"o":"m 52 0 l 52 526 q 110 652 52 591 q 283 723 180 723 l 283 633 q 165 576 210 633 q 142 515 142 547 l 142 0 l 52 0 m 342 633 l 342 723 q 537 623 467 723 q 572 526 572 571 l 572 0 l 481 0 l 481 515 q 437 598 481 559 q 342 633 396 633 z "},"ń":{"ha":624,"x_min":52,"x_max":572,"o":"m 281 806 l 331 1012 l 418 1012 l 343 806 l 281 806 m 52 0 l 52 526 q 110 652 52 591 q 283 723 180 723 l 283 633 q 165 576 210 633 q 142 515 142 547 l 142 0 l 52 0 m 342 633 l 342 723 q 537 623 467 723 q 572 526 572 571 l 572 0 l 481 0 l 481 515 q 437 598 481 559 q 342 633 396 633 z "},"ň":{"ha":624,"x_min":52,"x_max":572,"o":"m 180 1012 l 247 1012 l 312 880 l 376 1012 l 442 1012 l 339 806 l 283 806 l 180 1012 m 52 0 l 52 526 q 110 652 52 591 q 283 723 180 723 l 283 633 q 165 576 210 633 q 142 515 142 547 l 142 0 l 52 0 m 342 633 l 342 723 q 537 623 467 723 q 572 526 572 571 l 572 0 l 481 0 l 481 515 q 437 598 481 559 q 342 633 396 633 z "},"≠":{"ha":567,"x_min":68,"x_max":499,"o":"m 103 -96 l 191 -96 l 275 263 l 499 263 l 499 350 l 296 350 l 317 441 l 499 441 l 499 528 l 338 528 l 427 906 l 340 906 l 251 528 l 68 528 l 68 441 l 231 441 l 209 350 l 68 350 l 68 263 l 189 263 l 103 -96 z "},"ñ":{"ha":624,"x_min":52,"x_max":572,"o":"m 122 830 l 122 907 q 217 937 175 937 q 313 906 251 937 q 395 882 361 882 q 503 920 442 883 l 503 844 q 389 806 441 806 q 289 837 353 806 q 212 860 243 860 q 122 830 170 859 m 52 0 l 52 526 q 110 652 52 591 q 283 723 180 723 l 283 633 q 165 576 210 633 q 142 515 142 547 l 142 0 l 52 0 m 342 633 l 342 723 q 537 623 467 723 q 572 526 572 571 l 572 0 l 481 0 l 481 515 q 437 598 481 559 q 342 633 396 633 z "},"#":{"ha":1019,"x_min":50,"x_max":964,"o":"m 50 279 l 66 362 l 293 362 l 332 589 l 95 589 l 109 671 l 346 671 l 391 925 l 476 925 l 430 671 l 654 671 l 697 925 l 783 925 l 738 671 l 964 671 l 951 587 l 723 589 l 684 361 l 917 361 l 905 278 l 669 279 l 625 30 l 541 30 l 585 279 l 362 279 l 319 30 l 233 30 l 278 279 l 50 279 m 377 362 l 600 361 l 639 589 l 416 589 l 377 362 z "},"o":{"ha":610,"x_min":52,"x_max":559,"o":"m 52 197 l 52 525 q 109 648 52 587 q 279 720 176 720 l 279 633 q 156 562 194 633 q 141 507 141 533 l 141 214 q 190 119 141 163 q 281 85 231 85 l 281 -1 q 85 100 155 -1 q 52 197 52 152 m 338 -1 l 338 85 q 456 156 416 85 q 471 212 471 186 l 471 507 q 422 605 471 564 q 338 633 385 633 l 338 720 q 526 620 461 720 q 559 525 559 570 l 559 197 q 505 72 559 133 q 338 -1 438 0 z "},"ó":{"ha":610,"x_min":52,"x_max":559,"o":"m 278 802 l 328 1008 l 415 1008 l 340 802 l 278 802 m 52 197 l 52 525 q 109 648 52 587 q 279 720 176 720 l 279 633 q 156 562 194 633 q 141 507 141 533 l 141 214 q 190 119 141 163 q 281 85 231 85 l 281 -1 q 85 100 155 -1 q 52 197 52 152 m 338 -1 l 338 85 q 456 156 416 85 q 471 212 471 186 l 471 507 q 422 605 471 564 q 338 633 385 633 l 338 720 q 526 620 461 720 q 559 525 559 570 l 559 197 q 505 72 559 133 q 338 -1 438 0 z "},"ô":{"ha":610,"x_min":52,"x_max":559,"o":"m 178 802 l 279 1008 l 336 1008 l 439 802 l 373 802 l 308 933 l 244 802 l 178 802 m 52 197 l 52 525 q 109 648 52 587 q 279 720 176 720 l 279 633 q 156 562 194 633 q 141 507 141 533 l 141 214 q 190 119 141 163 q 281 85 231 85 l 281 -1 q 85 100 155 -1 q 52 197 52 152 m 338 -1 l 338 85 q 456 156 416 85 q 471 212 471 186 l 471 507 q 422 605 471 564 q 338 633 385 633 l 338 720 q 526 620 461 720 q 559 525 559 570 l 559 197 q 505 72 559 133 q 338 -1 438 0 z "},"ö":{"ha":610,"x_min":52,"x_max":559,"o":"m 172 857 q 208 907 172 894 q 228 911 218 911 q 281 876 267 911 q 283 857 283 867 q 247 804 283 818 q 228 802 237 802 q 176 836 191 802 q 172 857 172 846 m 335 857 q 370 907 335 894 q 391 911 381 911 q 444 876 430 911 q 446 857 446 867 q 410 804 446 818 q 391 802 400 802 q 339 836 354 802 q 335 857 335 846 m 52 197 l 52 525 q 109 648 52 587 q 279 720 176 720 l 279 633 q 156 562 194 633 q 141 507 141 533 l 141 214 q 190 119 141 163 q 281 85 231 85 l 281 -1 q 85 100 155 -1 q 52 197 52 152 m 338 -1 l 338 85 q 456 156 416 85 q 471 212 471 186 l 471 507 q 422 605 471 564 q 338 633 385 633 l 338 720 q 526 620 461 720 q 559 525 559 570 l 559 197 q 505 72 559 133 q 338 -1 438 0 z "},"œ":{"ha":994,"x_min":39,"x_max":954,"o":"m 494 90 q 659 3 547 16 q 701 0 681 0 q 945 137 890 0 q 954 163 949 151 l 880 190 q 762 83 859 106 q 703 76 734 76 q 563 129 616 76 q 533 198 533 161 l 533 320 l 952 320 l 952 513 q 865 655 952 595 q 732 700 802 700 l 732 621 q 844 567 799 621 q 871 496 871 533 l 871 401 l 533 401 l 533 488 q 587 591 533 549 q 670 618 625 618 l 670 700 q 494 612 559 699 q 317 700 426 699 l 317 618 q 434 549 396 618 q 450 492 450 519 l 450 205 q 403 110 450 151 q 317 79 365 79 l 317 -1 q 494 90 429 0 m 39 191 q 94 71 39 130 q 262 -1 160 0 l 262 79 q 144 146 187 79 q 123 208 123 179 l 123 492 q 175 591 123 552 q 262 618 213 618 l 262 700 q 72 601 138 700 q 39 510 39 552 l 39 191 z "},"˛":{"ha":297,"x_min":-58,"x_max":144,"o":"m 144 -244 q -39 -140 11 -244 q -58 -54 -58 -99 l 16 -54 q 88 -163 16 -134 q 144 -172 115 -172 l 144 -244 z "},"ò":{"ha":610,"x_min":52,"x_max":559,"o":"m 201 1008 l 288 1008 l 338 802 l 275 802 l 201 1008 m 52 197 l 52 525 q 109 648 52 587 q 279 720 176 720 l 279 633 q 156 562 194 633 q 141 507 141 533 l 141 214 q 190 119 141 163 q 281 85 231 85 l 281 -1 q 85 100 155 -1 q 52 197 52 152 m 338 -1 l 338 85 q 456 156 416 85 q 471 212 471 186 l 471 507 q 422 605 471 564 q 338 633 385 633 l 338 720 q 526 620 461 720 q 559 525 559 570 l 559 197 q 505 72 559 133 q 338 -1 438 0 z "},"ő":{"ha":610,"x_min":52,"x_max":559,"o":"m 355 802 l 406 1008 l 492 1008 l 418 802 l 355 802 m 209 802 l 259 1008 l 346 1008 l 271 802 l 209 802 m 52 197 l 52 525 q 109 648 52 587 q 279 720 176 720 l 279 633 q 156 562 194 633 q 141 507 141 533 l 141 214 q 190 119 141 163 q 281 85 231 85 l 281 -1 q 85 100 155 -1 q 52 197 52 152 m 338 -1 l 338 85 q 456 156 416 85 q 471 212 471 186 l 471 507 q 422 605 471 564 q 338 633 385 633 l 338 720 q 526 620 461 720 q 559 525 559 570 l 559 197 q 505 72 559 133 q 338 -1 438 0 z "},"ō":{"ha":610,"x_min":52,"x_max":559,"o":"m 95 803 l 95 863 l 524 863 l 524 803 l 95 803 m 52 197 l 52 525 q 109 648 52 587 q 279 720 176 720 l 279 633 q 156 562 194 633 q 141 507 141 533 l 141 214 q 190 119 141 163 q 281 85 231 85 l 281 -1 q 85 100 155 -1 q 52 197 52 152 m 338 -1 l 338 85 q 456 156 416 85 q 471 212 471 186 l 471 507 q 422 605 471 564 q 338 633 385 633 l 338 720 q 526 620 461 720 q 559 525 559 570 l 559 197 q 505 72 559 133 q 338 -1 438 0 z "},"½":{"ha":762,"x_min":0,"x_max":711,"o":"m 418 0 l 418 58 l 705 58 l 705 0 l 418 0 m 0 0 l 586 949 l 650 949 l 66 0 l 0 0 m 80 878 l 80 922 l 114 949 l 174 949 l 174 475 l 114 475 l 114 878 l 80 878 m 408 349 q 475 457 412 420 q 534 476 503 473 l 534 418 l 532 418 q 464 342 472 407 q 464 338 464 339 l 408 349 m 418 88 q 544 229 418 176 q 553 232 548 231 q 568 239 564 237 q 647 302 633 270 q 652 332 652 317 q 570 418 652 414 q 567 418 568 418 l 567 476 q 705 377 682 476 q 711 332 711 355 q 627 206 709 250 q 594 193 617 202 q 494 126 513 159 q 484 88 484 109 l 418 88 z "},"¼":{"ha":680,"x_min":0,"x_max":650,"o":"m 532 0 l 532 475 l 591 475 l 591 138 l 628 138 l 628 83 l 591 83 l 591 0 l 532 0 m 80 878 l 80 922 l 114 949 l 174 949 l 174 475 l 114 475 l 114 878 l 80 878 m 315 83 l 315 138 l 498 452 l 498 339 l 382 138 l 498 138 l 498 83 l 315 83 m 0 0 l 586 949 l 650 949 l 66 0 l 0 0 z "},"¹":{"ha":157,"x_min":14,"x_max":94,"o":"m 14 883 l 14 924 l 43 948 l 94 948 l 94 524 l 43 524 l 43 883 l 14 883 z "},"ª":{"ha":319,"x_min":27,"x_max":296,"o":"m 27 507 l 27 549 l 289 549 l 289 507 l 27 507 m 28 678 q 77 608 28 633 q 136 594 104 595 l 136 637 q 69 689 72 639 l 69 711 q 77 734 71 727 q 175 764 87 743 q 233 784 217 774 l 233 697 q 168 637 232 637 l 168 594 q 245 618 218 595 q 296 594 266 595 l 296 637 q 278 659 279 639 l 278 849 q 232 937 278 905 q 168 955 203 955 l 168 914 q 227 879 209 914 q 233 849 233 865 l 233 837 q 130 793 233 819 q 62 773 75 780 q 28 711 28 754 l 28 678 m 33 865 l 73 849 q 115 910 73 895 q 137 914 126 913 l 137 955 q 49 913 81 955 q 33 865 34 890 z "},"º":{"ha":312,"x_min":35,"x_max":277,"o":"m 35 540 l 35 586 l 277 586 l 277 540 l 35 540 m 46 719 l 46 864 q 84 930 46 902 q 148 952 113 951 l 148 913 q 90 873 103 913 q 85 857 85 864 l 85 726 q 118 677 85 696 q 148 669 133 669 l 148 631 q 54 688 83 631 q 46 719 46 704 m 174 631 l 174 669 q 229 708 214 669 q 233 724 232 718 l 233 857 q 201 906 233 890 q 174 913 189 913 l 174 952 q 264 895 237 952 q 273 864 271 879 l 273 719 q 236 651 273 680 q 174 631 208 631 z "},"ø":{"ha":600,"x_min":14,"x_max":663,"o":"m 14 98 l 92 170 q 90 195 90 186 l 90 510 q 146 631 90 572 q 312 700 213 700 l 312 618 q 190 547 228 618 q 175 492 175 519 l 175 244 l 491 534 q 396 616 464 602 q 368 618 381 618 l 368 700 q 556 595 494 699 l 617 650 l 663 600 l 582 524 q 583 503 583 517 l 583 191 q 528 68 583 127 q 368 -1 464 0 l 368 80 q 486 151 446 80 q 500 206 500 180 l 500 449 l 187 163 q 283 83 218 98 q 312 80 298 80 l 312 -1 q 121 102 186 0 l 60 46 l 14 98 z "},"õ":{"ha":610,"x_min":52,"x_max":559,"o":"m 118 826 l 118 903 q 213 933 171 933 q 309 902 247 933 q 391 878 357 878 q 499 916 438 879 l 499 840 q 385 802 437 802 q 285 833 349 802 q 208 856 239 856 q 118 826 165 854 m 52 197 l 52 525 q 109 648 52 587 q 279 720 176 720 l 279 633 q 156 562 194 633 q 141 507 141 533 l 141 214 q 190 119 141 163 q 281 85 231 85 l 281 -1 q 85 100 155 -1 q 52 197 52 152 m 338 -1 l 338 85 q 456 156 416 85 q 471 212 471 186 l 471 507 q 422 605 471 564 q 338 633 385 633 l 338 720 q 526 620 461 720 q 559 525 559 570 l 559 197 q 505 72 559 133 q 338 -1 438 0 z "},"p":{"ha":616,"x_min":56,"x_max":564,"o":"m 218 0 l 218 87 l 339 87 q 461 152 426 87 q 475 199 475 175 l 475 519 q 429 602 475 566 q 330 633 387 633 l 212 633 l 212 720 l 330 720 q 530 620 461 720 q 564 524 564 570 l 564 195 q 506 68 564 127 q 338 0 438 0 l 218 0 m 56 -254 l 56 720 l 148 720 l 148 -254 l 56 -254 z "},"¶":{"ha":537,"x_min":47,"x_max":464,"o":"m 47 701 q 152 479 47 545 q 277 446 206 446 l 277 -7 l 338 -7 l 338 956 l 277 956 q 91 854 157 956 q 47 701 47 787 m 403 -7 l 464 -7 l 464 956 l 403 956 l 403 -7 z "},"(":{"ha":292,"x_min":54,"x_max":245,"o":"m 54 256 q 107 79 54 140 q 245 -19 151 27 l 245 37 q 146 159 170 84 q 133 260 133 203 l 133 708 q 202 884 133 834 q 244 911 214 894 l 244 967 q 115 887 149 926 q 54 692 54 821 l 54 256 z "},")":{"ha":300,"x_min":46,"x_max":245,"o":"m 46 -23 l 46 33 q 130 109 106 71 q 167 279 167 172 l 167 707 q 77 897 167 834 q 46 916 65 905 l 47 971 q 232 799 197 916 q 245 692 245 751 l 245 263 q 46 -23 243 60 z "},"∂":{"ha":570,"x_min":38,"x_max":532,"o":"m 38 191 l 38 510 q 95 631 38 572 q 260 700 161 700 l 260 618 q 137 545 176 618 q 122 488 122 517 l 122 209 q 170 115 122 159 q 260 80 210 80 l 260 -1 q 69 99 136 -1 q 38 191 38 148 m 95 916 l 95 968 q 471 840 377 968 q 532 608 532 755 l 532 191 q 476 68 532 127 q 316 -1 412 0 l 316 80 q 433 152 395 80 q 448 208 448 180 l 448 498 q 396 593 448 555 q 316 618 361 618 l 316 700 q 442 654 392 699 q 206 906 442 865 q 95 916 155 916 z "},"%":{"ha":528,"x_min":64,"x_max":461,"o":"m 64 791 q 103 852 64 834 q 130 857 115 857 q 191 818 174 857 q 197 791 197 806 q 157 730 197 747 q 130 724 145 724 q 69 764 87 724 q 64 791 64 777 m 100 -22 l 338 981 l 425 981 l 189 -22 l 100 -22 m 328 167 q 368 228 328 210 q 395 233 381 233 q 456 194 438 233 q 461 167 461 180 q 422 106 461 123 q 395 100 408 100 q 334 140 351 100 q 328 167 328 152 z "},".":{"ha":235,"x_min":50,"x_max":183,"o":"m 50 61 q 90 122 50 104 q 117 127 103 127 q 178 88 160 127 q 183 61 183 76 q 144 0 183 18 q 117 -5 130 -5 q 56 34 73 -5 q 50 61 50 47 z "},"·":{"ha":243,"x_min":84,"x_max":217,"o":"m 84 457 q 123 518 84 500 q 151 524 137 524 q 212 484 194 524 q 217 457 217 472 q 178 396 217 414 q 151 391 164 391 q 90 430 107 391 q 84 457 84 444 z "},"‰":{"ha":1217,"x_min":24,"x_max":1192,"o":"m 163 477 l 163 534 q 94 620 113 541 q 84 708 84 658 l 84 741 q 140 886 84 852 q 164 894 152 892 l 164 951 q 42 846 77 947 q 24 716 24 792 q 129 484 24 521 q 163 477 146 477 m 205 477 q 320 570 283 480 q 343 716 343 628 q 237 944 343 907 q 203 951 221 949 l 203 894 q 269 831 245 891 q 283 741 283 792 l 283 708 q 216 537 283 562 q 205 534 210 536 l 205 477 m 661 0 l 661 57 q 591 142 610 64 q 582 231 582 180 l 582 263 q 637 408 582 374 q 662 416 650 415 l 662 473 q 540 369 575 469 q 522 239 522 315 q 627 7 522 43 q 661 0 644 0 m 703 0 q 818 92 781 3 q 841 239 841 151 q 735 467 841 430 q 701 473 719 472 l 701 416 q 766 354 743 414 q 781 263 781 315 l 781 231 q 713 60 781 84 q 703 57 708 58 l 703 0 m 1012 0 l 1012 57 q 943 138 963 64 q 932 231 932 178 l 932 263 q 990 408 933 376 q 1013 416 1002 415 l 1013 473 q 890 362 924 469 q 873 239 873 311 q 979 5 873 41 q 1012 0 996 0 m 1053 0 q 1171 96 1134 3 q 1192 239 1192 153 q 1086 467 1192 430 q 1053 473 1070 472 l 1053 416 q 1118 351 1095 414 q 1133 263 1131 313 l 1133 231 q 1063 60 1133 83 q 1053 57 1058 58 l 1053 0 m 111 0 l 178 0 l 761 949 l 697 949 l 111 0 z "},"π":{"ha":613,"x_min":-16,"x_max":632,"o":"m -16 614 l -16 701 l 632 701 l 632 614 l 519 614 l 519 193 q 582 77 519 90 q 613 75 595 75 l 613 -5 q 439 134 463 -5 q 435 180 435 157 l 435 614 l 184 614 l 184 -4 l 99 -4 l 99 614 l -16 614 z "},"+":{"ha":598,"x_min":45,"x_max":553,"o":"m 45 355 l 45 441 l 254 441 l 254 675 l 340 675 l 340 441 l 553 441 l 553 355 l 340 355 l 340 118 l 254 118 l 254 355 l 45 355 z "},"±":{"ha":587,"x_min":39,"x_max":572,"o":"m 39 141 l 39 227 l 548 227 l 548 141 l 39 141 m 64 574 l 64 659 l 273 659 l 273 894 l 359 894 l 359 659 l 572 659 l 572 574 l 359 574 l 359 336 l 273 336 l 273 574 l 64 574 z "},"∏":{"ha":650,"x_min":14,"x_max":636,"o":"m 14 859 l 14 944 l 636 944 l 636 859 l 560 859 l 560 -190 l 475 -190 l 475 859 l 175 859 l 175 -190 l 90 -190 l 90 859 l 14 859 z "},"q":{"ha":609,"x_min":53,"x_max":552,"o":"m 278 0 q 84 102 149 0 q 53 195 53 151 l 53 524 q 110 652 53 593 q 278 720 176 720 l 397 720 l 397 633 l 278 633 q 153 564 190 633 q 141 519 141 541 l 141 199 q 194 110 141 144 q 277 87 229 87 l 391 87 l 391 0 l 278 0 m 460 -254 l 460 720 l 552 720 l 552 -254 l 460 -254 z "},"?":{"ha":643,"x_min":50,"x_max":593,"o":"m 50 829 q 237 948 129 928 q 305 954 270 954 q 549 826 475 954 q 593 666 590 757 q 418 400 593 473 q 320 374 365 378 l 320 133 l 233 133 l 233 456 q 507 667 506 463 q 420 833 507 779 q 302 865 369 865 q 109 769 180 864 l 50 829 m 222 24 q 258 75 222 62 q 277 79 267 79 q 327 43 315 79 q 331 24 331 34 q 296 -26 331 -14 q 277 -30 286 -30 q 227 5 239 -30 q 222 24 222 15 z "},"¿":{"ha":604,"x_min":19,"x_max":562,"o":"m 562 106 q 374 -14 483 7 q 307 -19 342 -19 q 62 109 137 -19 q 19 269 22 178 q 194 534 19 461 q 292 560 247 556 l 292 802 l 378 802 l 378 479 q 104 267 106 472 q 191 102 104 156 q 309 69 243 69 q 503 165 431 71 l 562 106 m 389 910 q 354 860 389 872 q 335 856 345 856 q 285 891 297 856 q 281 910 281 901 q 316 960 281 948 q 335 964 326 964 q 385 929 373 964 q 389 910 389 920 z "},"\"":{"ha":357,"x_min":56,"x_max":302,"o":"m 56 631 l 56 998 l 142 998 l 142 631 l 56 631 m 214 631 l 214 998 l 302 998 l 302 631 l 214 631 z "},"„":{"ha":359,"x_min":28,"x_max":312,"o":"m 175 -31 l 225 175 l 312 175 l 262 -31 l 175 -31 m 28 -31 l 79 175 l 165 175 l 115 -31 l 28 -31 z "},"“":{"ha":347,"x_min":50,"x_max":297,"o":"m 50 631 l 50 998 l 137 998 l 137 631 l 50 631 m 209 631 l 209 998 l 297 998 l 297 631 l 209 631 z "},"”":{"ha":347,"x_min":50,"x_max":297,"o":"m 50 631 l 50 998 l 137 998 l 137 631 l 50 631 m 209 631 l 209 998 l 297 998 l 297 631 l 209 631 z "},"‘":{"ha":189,"x_min":50,"x_max":137,"o":"m 50 631 l 50 998 l 137 998 l 137 631 l 50 631 z "},"’":{"ha":189,"x_min":50,"x_max":137,"o":"m 50 631 l 50 998 l 137 998 l 137 631 l 50 631 z "},"‚":{"ha":189,"x_min":50,"x_max":137,"o":"m 50 631 l 50 998 l 137 998 l 137 631 l 50 631 z "},"'":{"ha":198,"x_min":56,"x_max":142,"o":"m 56 631 l 56 998 l 142 998 l 142 631 l 56 631 z "},"r":{"ha":365,"x_min":57,"x_max":342,"o":"m 57 0 l 57 720 l 148 720 l 148 613 q 243 703 176 671 q 327 722 283 722 l 342 722 l 320 635 q 193 553 248 633 q 148 416 148 487 l 148 0 l 57 0 z "},"ŕ":{"ha":365,"x_min":57,"x_max":342,"o":"m 171 802 l 221 1008 l 308 1008 l 233 802 l 171 802 m 57 0 l 57 720 l 148 720 l 148 613 q 243 703 176 671 q 327 722 283 722 l 342 722 l 320 635 q 193 553 248 633 q 148 416 148 487 l 148 0 l 57 0 z "},"√":{"ha":788,"x_min":8,"x_max":774,"o":"m 8 696 l 244 780 l 495 159 l 682 1111 l 774 1111 l 560 -1 l 461 -1 l 186 675 l 33 621 l 8 696 z "},"ř":{"ha":365,"x_min":57,"x_max":342,"o":"m 68 1008 l 134 1008 l 199 876 l 263 1008 l 330 1008 l 227 802 l 171 802 l 68 1008 m 57 0 l 57 720 l 148 720 l 148 613 q 243 703 176 671 q 327 722 283 722 l 342 722 l 320 635 q 193 553 248 633 q 148 416 148 487 l 148 0 l 57 0 z "},"®":{"ha":529,"x_min":43,"x_max":484,"o":"m 237 700 l 237 732 l 258 732 q 312 772 311 734 q 247 818 309 817 l 237 818 l 237 850 q 345 773 343 848 q 317 718 343 732 q 345 667 342 703 l 351 586 l 317 586 l 313 652 q 274 697 309 692 q 237 700 260 700 m 252 495 q 90 581 153 499 q 43 715 43 642 q 137 897 43 831 q 254 937 191 935 l 254 899 q 115 821 165 895 q 83 715 83 773 q 157 568 83 623 q 252 534 201 538 l 252 495 m 275 495 l 275 534 q 415 614 363 540 q 446 716 446 661 q 370 865 446 811 q 275 899 327 897 l 275 937 q 435 854 372 933 q 484 716 484 793 q 397 540 484 606 q 275 495 342 499 m 184 585 l 184 850 l 220 850 l 220 585 l 184 585 z "},"˚":{"ha":331,"x_min":64,"x_max":267,"o":"m 64 713 q 117 802 64 773 q 165 815 140 815 q 254 762 225 815 q 267 713 267 739 q 214 625 267 654 q 165 612 191 612 q 77 665 106 612 q 64 713 64 688 m 122 713 q 152 671 122 681 q 165 670 160 670 q 208 700 198 670 q 209 713 209 708 q 179 755 209 746 q 165 757 171 757 q 123 727 133 757 q 122 713 122 719 z "},"s":{"ha":578,"x_min":27,"x_max":551,"o":"m 27 190 l 113 205 q 182 99 113 140 q 254 79 218 79 l 254 -7 q 64 84 129 -7 q 27 190 27 134 m 34 514 q 145 696 34 639 q 251 723 198 723 l 251 639 q 145 586 187 639 q 119 514 119 552 q 187 441 119 467 q 399 384 229 425 q 537 282 503 359 q 551 216 551 251 q 448 28 551 91 q 311 -7 387 -7 l 311 77 q 426 126 377 77 q 463 213 463 163 q 351 307 463 273 q 250 332 320 316 q 165 353 193 346 q 41 463 62 389 q 34 514 34 487 m 309 637 l 309 723 q 495 636 425 723 q 538 524 538 582 l 453 510 q 368 624 453 587 q 309 637 335 637 z "},"ś":{"ha":578,"x_min":27,"x_max":551,"o":"m 250 804 l 300 1010 l 387 1010 l 312 804 l 250 804 m 27 190 l 113 205 q 182 99 113 140 q 254 79 218 79 l 254 -7 q 64 84 129 -7 q 27 190 27 134 m 34 514 q 145 696 34 639 q 251 723 198 723 l 251 639 q 145 586 187 639 q 119 514 119 552 q 187 441 119 467 q 399 384 229 425 q 537 282 503 359 q 551 216 551 251 q 448 28 551 91 q 311 -7 387 -7 l 311 77 q 426 126 377 77 q 463 213 463 163 q 351 307 463 273 q 250 332 320 316 q 165 353 193 346 q 41 463 62 389 q 34 514 34 487 m 309 637 l 309 723 q 495 636 425 723 q 538 524 538 582 l 453 510 q 368 624 453 587 q 309 637 335 637 z "},"š":{"ha":578,"x_min":33,"x_max":556,"o":"m 152 1010 l 218 1010 l 283 879 l 347 1010 l 414 1010 l 311 804 l 255 804 l 152 1010 m 33 190 l 118 205 q 187 99 118 140 q 259 79 224 79 l 259 -7 q 69 84 134 -7 q 33 190 33 134 m 39 514 q 151 696 39 639 q 256 723 203 723 l 256 639 q 151 586 193 639 q 125 514 125 552 q 193 441 125 467 q 404 384 235 425 q 543 282 509 359 q 556 216 556 251 q 453 28 556 91 q 316 -7 392 -7 l 316 77 q 431 126 382 77 q 468 213 468 163 q 357 307 468 273 q 255 332 326 316 q 171 353 198 346 q 46 463 68 389 q 39 514 39 487 m 315 637 l 315 723 q 500 636 430 723 q 544 524 544 582 l 458 510 q 373 624 458 587 q 315 637 340 637 z "},"§":{"ha":817,"x_min":73,"x_max":743,"o":"m 73 481 q 174 682 75 608 q 156 780 156 726 q 292 1004 156 940 q 410 1031 349 1031 l 548 1031 l 548 943 l 441 943 q 252 833 283 943 q 245 783 245 808 q 376 648 248 692 l 376 544 q 323 559 345 551 q 231 610 256 586 q 165 477 167 562 q 301 340 165 382 q 376 321 331 331 l 376 227 q 241 260 269 250 q 95 376 130 308 q 73 481 73 420 m 267 -98 l 370 -98 q 556 -7 511 -98 q 572 68 572 27 q 439 206 570 165 l 439 305 q 488 292 464 301 q 593 235 557 273 q 651 366 650 292 q 511 511 651 469 q 439 529 483 519 l 439 625 q 570 590 549 598 q 730 452 697 547 q 743 362 743 412 q 651 160 743 243 q 647 157 648 159 q 661 64 661 119 q 566 -133 661 -61 q 403 -186 495 -186 l 267 -186 l 267 -98 z "},";":{"ha":305,"x_min":68,"x_max":237,"o":"m 68 -31 l 118 175 l 205 175 l 155 -31 l 68 -31 m 129 441 q 164 491 129 479 q 183 495 174 495 q 233 460 221 495 q 237 441 237 450 q 202 391 237 403 q 183 387 193 387 q 133 422 145 387 q 129 441 129 431 z "},"අ":{"ha":735,"x_min":41,"x_max":694,"o":"m 502 -229 l 590 -229 l 590 0 l 670 0 l 670 94 l 590 94 l 590 560 q 681 693 590 665 q 694 697 688 696 l 675 789 q 536 694 579 761 q 326 785 460 785 q 132 703 203 785 q 88 620 102 666 l 171 593 q 278 692 194 669 q 330 699 304 699 q 479 628 433 699 q 502 545 502 593 l 347 545 q 79 420 153 545 q 41 270 41 357 q 190 31 41 96 q 349 0 260 0 l 427 0 l 427 91 l 349 91 q 153 190 201 91 q 136 270 136 227 q 248 439 136 400 q 338 453 289 453 l 502 453 l 502 -229 z "},"ආ":{"ha":1084,"x_min":41,"x_max":1043,"o":"m 502 -229 l 590 -229 l 590 0 l 670 0 l 670 94 l 590 94 l 590 560 q 681 693 590 665 q 694 697 688 696 l 675 789 q 536 694 579 761 q 326 785 460 785 q 132 703 203 785 q 88 620 102 666 l 171 593 q 278 692 194 669 q 330 699 304 699 q 479 628 433 699 q 502 545 502 593 l 347 545 q 79 420 153 545 q 41 270 41 357 q 190 31 41 96 q 349 0 260 0 l 427 0 l 427 91 l 349 91 q 153 190 201 91 q 136 270 136 227 q 248 439 136 400 q 338 453 289 453 l 502 453 l 502 -229 m 765 0 l 792 0 q 1043 241 1031 0 q 1043 266 1043 254 l 1043 490 q 808 755 1043 747 q 792 755 800 755 l 765 755 l 765 663 l 792 663 q 948 519 935 663 q 949 486 949 502 l 949 266 q 812 92 949 102 q 792 92 802 92 l 765 92 l 765 0 z "},"ඈ":{"ha":1081,"x_min":41,"x_max":1040,"o":"m 502 -229 l 590 -229 l 590 0 l 670 0 l 670 94 l 590 94 l 590 560 q 681 693 590 665 q 694 697 688 696 l 675 789 q 536 694 579 761 q 326 785 460 785 q 132 703 203 785 q 88 620 102 666 l 171 593 q 278 692 194 669 q 330 699 304 699 q 479 628 433 699 q 502 545 502 593 l 347 545 q 79 420 153 545 q 41 270 41 357 q 190 31 41 96 q 349 0 260 0 l 427 0 l 427 91 l 349 91 q 153 190 201 91 q 136 270 136 227 q 248 439 136 400 q 338 453 289 453 l 502 453 l 502 -229 m 765 283 l 765 224 q 1001 0 768 1 l 1040 0 l 1040 94 l 1001 94 q 860 195 873 94 q 857 233 857 213 l 857 283 q 882 359 857 330 q 1040 488 917 401 l 1040 570 l 886 570 l 1040 697 l 1040 779 l 765 779 l 765 697 l 917 697 l 765 570 l 765 488 l 907 488 q 776 355 796 408 q 765 283 765 327 z "},"ඇ":{"ha":1080,"x_min":41,"x_max":1039,"o":"m 502 -229 l 590 -229 l 590 0 l 670 0 l 670 94 l 590 94 l 590 560 q 681 693 590 665 q 694 697 688 696 l 675 789 q 536 694 579 761 q 326 785 460 785 q 132 703 203 785 q 88 620 102 666 l 171 593 q 278 692 194 669 q 330 699 304 699 q 479 628 433 699 q 502 545 502 593 l 347 545 q 79 420 153 545 q 41 270 41 357 q 190 31 41 96 q 349 0 260 0 l 427 0 l 427 91 l 349 91 q 153 190 201 91 q 136 270 136 227 q 248 439 136 400 q 338 453 289 453 l 502 453 l 502 -229 m 1000 0 l 1039 0 l 1039 94 l 1000 94 q 856 255 856 95 l 856 396 q 879 511 856 472 q 1039 689 909 563 l 1039 779 l 764 779 l 764 688 l 920 688 q 787 532 811 582 q 764 400 764 484 l 764 258 q 907 15 764 65 q 1000 0 949 0 z "},"ඓ":{"ha":1411,"x_min":41,"x_max":1370,"o":"m 338 677 q 490 563 469 675 l 575 585 q 498 720 564 666 q 366 765 441 765 l 282 765 q 56 605 104 765 q 41 503 41 556 l 41 269 q 146 20 41 83 q 255 -7 193 -7 l 283 -7 l 283 81 q 138 195 160 81 q 132 269 132 227 l 132 503 q 254 674 132 655 q 288 677 271 677 l 338 677 m 316 392 l 407 392 q 483 358 468 392 q 488 323 488 342 l 488 213 q 349 81 486 83 l 349 -7 l 381 -7 q 560 109 513 -7 q 579 213 579 156 l 579 346 q 460 479 579 469 q 434 480 448 480 l 316 480 l 316 392 m 707 543 l 783 522 q 878 579 811 574 q 977 528 947 579 q 989 477 987 505 l 905 475 l 647 475 l 647 397 l 750 397 q 704 259 704 342 q 793 62 704 138 q 986 -1 871 -1 l 986 92 q 814 187 860 92 q 798 260 798 222 q 857 382 798 347 q 911 397 882 397 l 1066 397 l 1066 479 q 1012 612 1065 564 q 878 659 959 659 q 731 593 780 659 q 707 543 715 570 m 1208 625 l 1208 697 q 1067 798 1095 701 q 1059 856 1059 825 l 1059 932 q 1256 821 1214 932 q 1276 675 1276 765 l 1276 331 q 1061 92 1274 94 l 1061 -1 q 1362 225 1320 -1 q 1370 331 1370 274 l 1370 701 q 1099 1023 1370 1004 q 1059 1024 1080 1024 l 990 1024 l 990 856 q 1099 652 990 709 q 1208 625 1146 629 z "},"ඖ":{"ha":1364,"x_min":41,"x_max":1331,"o":"m 243 -3 q 399 71 346 -1 q 553 -3 450 -1 q 728 87 675 -3 q 755 191 755 133 l 755 700 q 613 991 755 925 q 427 1024 541 1024 l 427 932 q 631 848 581 932 q 663 694 663 791 l 663 199 q 617 109 663 142 q 549 88 589 88 q 446 159 472 88 q 438 199 438 180 l 438 264 l 359 264 l 359 199 q 315 109 359 142 q 247 88 285 88 q 141 160 168 88 q 134 199 134 180 l 134 481 q 184 557 134 541 q 206 560 195 560 q 271 517 255 560 q 277 486 277 502 l 277 425 q 345 321 277 349 q 392 312 366 312 q 498 369 465 312 q 514 431 514 396 l 514 636 l 439 636 l 439 439 q 403 396 439 403 q 393 395 397 395 q 349 427 357 395 q 347 439 347 434 l 347 499 q 266 635 347 598 q 201 648 235 648 q 69 583 117 648 q 41 487 41 541 l 41 191 q 134 23 41 75 q 243 -3 182 -3 m 138 742 q 236 905 138 852 q 350 932 289 932 l 350 1024 q 133 944 225 1024 q 47 765 49 869 l 138 742 m 1096 -11 q 1282 69 1215 -11 q 1331 209 1331 126 l 1331 620 q 1253 757 1331 719 q 1191 770 1223 770 q 1074 708 1112 770 q 1054 629 1054 674 l 1054 571 q 1010 511 1054 524 q 994 510 1001 510 q 937 549 951 510 q 935 571 935 560 l 935 765 l 861 765 l 861 557 q 939 427 861 461 q 996 415 966 415 q 1105 475 1070 415 q 1124 547 1124 506 l 1124 616 q 1169 677 1124 666 q 1184 678 1177 678 q 1241 637 1227 678 q 1244 616 1244 627 l 1244 208 q 1162 90 1244 121 q 1099 79 1131 79 q 971 136 1013 79 q 948 208 948 168 l 948 274 l 861 274 l 861 209 q 971 19 861 79 q 1096 -11 1028 -11 z "},"බ":{"ha":803,"x_min":41,"x_max":762,"o":"m 41 244 q 170 16 41 60 q 286 0 218 0 l 286 92 q 146 155 178 92 q 130 245 130 190 l 130 378 q 199 499 132 469 q 243 507 221 507 q 339 449 308 507 q 355 378 355 419 l 355 190 q 454 16 355 68 q 553 -7 500 -7 q 718 69 658 -7 q 762 206 762 126 l 762 692 q 454 1024 760 1023 l 435 1024 l 435 932 l 454 932 q 667 719 654 932 q 669 684 669 701 l 669 203 q 602 100 669 126 q 559 92 581 92 q 461 145 492 92 q 446 203 446 171 l 446 381 q 345 579 446 522 q 247 605 300 605 q 85 526 145 605 q 41 385 41 468 l 41 244 m 56 765 l 146 742 q 244 905 146 852 q 358 932 297 932 l 358 1024 q 141 944 233 1024 q 56 765 57 869 z "},"භ":{"ha":1012,"x_min":41,"x_max":971,"o":"m 488 434 l 488 486 q 639 671 496 666 l 639 765 q 441 669 502 764 q 309 761 406 745 q 270 765 289 765 q 121 696 171 765 q 98 648 106 674 l 174 629 q 269 686 202 682 q 369 631 342 686 q 380 582 380 608 l 41 582 l 41 498 l 149 498 q 95 340 95 442 l 95 267 q 203 30 95 102 q 351 -11 266 -11 l 351 83 q 199 187 236 83 q 187 267 187 224 l 187 336 q 290 492 187 469 q 351 498 319 498 l 396 498 l 396 484 l 396 357 l 461 357 q 571 220 571 354 q 426 83 568 84 l 426 -11 q 647 130 609 -11 q 656 205 656 165 l 656 243 q 549 425 656 389 q 488 434 521 434 m 715 -11 q 947 140 887 -11 q 971 286 971 203 l 971 467 q 844 735 971 666 q 715 765 788 765 l 715 671 q 875 521 853 671 q 879 467 879 495 l 879 286 q 765 90 879 121 q 715 83 741 83 l 715 -11 z "},"ච":{"ha":806,"x_min":41,"x_max":765,"o":"m 380 -1 q 140 117 217 -1 q 98 259 98 182 q 144 397 99 343 l 41 397 l 41 475 l 298 475 l 382 477 q 312 572 381 549 q 271 579 292 579 q 180 532 206 579 q 176 522 178 526 l 100 543 q 225 654 125 632 q 271 659 248 659 q 406 612 354 658 q 460 479 460 563 l 460 397 l 305 397 q 203 326 233 397 q 191 262 191 296 q 264 122 191 170 q 380 91 312 91 l 380 -1 m 456 -1 l 456 91 q 671 311 662 91 q 671 331 671 321 l 671 692 q 524 925 671 894 q 456 932 492 932 l 456 1024 q 762 755 738 1024 q 765 700 765 728 l 765 331 q 533 4 765 41 q 456 -1 496 -1 m 183 742 l 94 765 q 198 959 94 879 q 380 1024 283 1024 l 380 932 q 228 863 289 932 q 183 742 183 810 z "},"ඡ":{"ha":854,"x_min":41,"x_max":807,"o":"m 384 -11 l 465 -11 q 779 127 715 -11 q 804 266 804 184 l 804 358 q 727 431 792 426 l 591 431 q 484 491 522 431 q 465 557 465 522 q 525 666 465 628 q 591 685 556 685 q 699 624 662 685 q 708 604 704 613 l 791 616 q 682 747 766 705 q 598 769 642 766 l 807 1043 l 713 1067 l 439 707 q 420 685 430 697 q 250 769 363 765 q 54 669 110 769 q 41 640 46 655 l 123 613 q 250 684 152 682 q 369 602 340 684 q 377 545 377 575 l 267 545 q 54 416 91 545 q 45 332 45 378 l 137 332 q 195 449 137 423 q 271 461 227 461 l 400 461 q 543 353 445 374 q 591 347 567 347 l 712 347 l 712 266 q 600 95 712 130 q 468 80 549 80 l 380 80 q 165 152 214 80 q 137 264 137 195 l 45 264 q 178 22 45 80 q 384 -11 255 -11 z "},"ද":{"ha":730,"x_min":41,"x_max":730,"o":"m 492 -277 q 298 -190 363 -277 q 258 -61 258 -136 l 349 -61 q 422 -172 349 -137 q 496 -190 457 -190 q 623 -125 582 -190 q 640 -83 635 -104 l 730 -104 q 593 -259 703 -217 q 492 -277 545 -277 m 41 270 q 193 517 41 452 q 347 545 260 545 l 502 545 q 410 684 502 646 q 330 699 373 699 q 191 635 237 699 q 171 593 178 616 l 88 620 q 225 768 117 726 q 326 785 274 785 q 533 699 457 785 q 590 532 590 631 l 590 453 l 338 453 q 149 346 191 453 q 136 270 136 312 q 243 109 136 152 q 349 91 289 91 l 400 91 q 590 210 536 92 l 675 187 q 477 9 625 46 q 400 0 438 0 l 349 0 q 92 104 175 0 q 41 270 41 172 z "},"ඩ":{"ha":849,"x_min":41,"x_max":808,"o":"m 305 -3 q 454 71 406 -1 q 610 -3 509 -1 q 781 87 730 -3 q 808 191 808 133 l 808 700 q 643 1002 808 943 q 492 1024 579 1024 l 492 932 q 690 833 646 932 q 715 692 715 779 l 715 199 q 670 110 715 142 q 602 90 642 90 q 499 163 524 90 q 492 199 492 182 l 492 264 l 414 264 l 414 199 q 370 110 414 141 q 304 90 342 90 q 197 163 222 90 q 191 199 191 182 l 191 313 q 278 397 194 396 l 492 397 l 492 479 q 438 612 491 562 q 304 658 385 658 q 157 593 206 658 q 133 543 141 570 l 209 522 q 304 579 237 574 q 401 526 373 579 q 414 475 414 503 l 41 475 l 41 397 l 130 397 q 99 313 99 378 l 99 191 q 194 23 99 75 q 305 -3 243 -3 m 111 765 l 201 742 q 300 903 201 850 q 416 932 353 932 l 416 1024 q 199 945 293 1024 q 111 765 113 869 z "},"ඪ":{"ha":849,"x_min":41,"x_max":808,"o":"m 305 -3 q 454 71 406 -1 q 610 -3 509 -1 q 781 87 730 -3 q 808 191 808 133 l 808 701 q 537 1023 808 1004 q 498 1024 518 1024 l 429 1024 l 429 856 q 537 652 429 709 q 647 625 585 629 l 647 697 q 506 798 533 701 q 498 856 498 825 l 498 932 q 694 821 652 932 q 715 675 715 765 l 715 199 q 670 110 715 142 q 602 90 642 90 q 499 163 524 90 q 492 199 492 182 l 492 264 l 414 264 l 414 199 q 370 110 414 141 q 304 90 342 90 q 197 163 222 90 q 191 199 191 182 l 191 313 q 278 397 194 396 l 492 397 l 492 479 q 438 612 491 562 q 304 658 385 658 q 157 593 206 658 q 133 543 141 570 l 209 522 q 304 579 237 574 q 401 526 373 579 q 414 475 414 503 l 41 475 l 41 397 l 130 397 q 99 313 99 378 l 99 191 q 194 23 99 75 q 305 -3 243 -3 z "},"ධ":{"ha":792,"x_min":41,"x_max":751,"o":"m 247 -3 q 397 71 349 -1 q 553 -3 449 -1 q 723 84 670 -3 q 751 191 751 132 l 751 700 q 576 1005 751 948 q 435 1024 517 1024 l 435 932 q 633 830 589 932 q 656 692 656 777 l 656 199 q 612 109 656 141 q 545 90 585 90 q 441 164 464 90 q 435 199 435 183 l 435 264 l 355 264 l 355 199 q 311 109 355 140 q 245 90 282 90 q 141 163 165 90 q 134 199 134 182 l 134 393 q 205 536 134 494 q 297 557 244 557 l 345 557 l 345 648 l 297 648 q 56 495 106 648 q 41 399 41 450 l 41 191 q 136 23 41 75 q 247 -3 184 -3 m 53 765 l 144 742 q 243 903 144 850 q 359 932 296 932 l 359 1024 q 141 945 235 1024 q 53 765 54 869 z "},"එ":{"ha":804,"x_min":41,"x_max":764,"o":"m 100 543 l 176 522 q 271 579 205 574 q 370 528 340 579 q 382 477 381 505 l 298 475 l 41 475 l 41 397 l 144 397 q 98 259 98 342 q 187 62 98 138 q 380 -1 264 -1 l 380 92 q 208 187 254 92 q 191 260 191 222 q 251 382 191 347 q 305 397 275 397 l 460 397 l 460 479 q 406 612 458 564 q 271 659 353 659 q 125 593 174 659 q 100 543 109 570 m 602 625 l 602 697 q 461 798 488 701 q 453 856 453 825 l 453 932 q 650 821 608 932 q 670 675 670 765 l 670 331 q 454 92 667 94 l 454 -1 q 755 225 713 -1 q 764 331 764 274 l 764 701 q 492 1023 764 1004 q 453 1024 473 1024 l 384 1024 l 384 856 q 492 652 384 709 q 602 625 540 629 z "},"ඒ":{"ha":804,"x_min":41,"x_max":764,"o":"m 41 397 l 144 397 q 98 259 98 342 q 187 62 98 138 q 380 -1 264 -1 l 380 92 q 208 187 254 92 q 191 260 191 222 q 251 382 191 347 q 305 397 275 397 l 460 397 l 460 479 q 406 612 458 564 q 271 659 353 659 q 125 593 174 659 q 100 543 109 570 l 176 522 q 271 579 205 574 q 370 528 340 579 q 382 477 381 505 l 298 475 l 41 475 l 41 397 m 384 856 q 492 652 384 709 q 602 625 540 629 l 602 697 q 461 798 488 701 q 453 856 453 825 l 453 932 q 650 821 608 932 q 670 675 670 765 l 670 331 q 454 92 667 94 l 454 -1 q 755 225 713 -1 q 764 331 764 274 l 764 701 l 764 703 l 764 1111 l 671 1111 l 671 959 q 453 1024 594 1024 l 384 1024 l 384 856 z "},"ෆ":{"ha":863,"x_min":41,"x_max":822,"o":"m 41 332 l 41 564 q 140 738 41 684 q 258 765 193 765 q 433 682 374 764 q 604 765 490 764 q 785 681 724 765 q 822 564 822 631 l 822 332 l 730 332 l 730 559 q 651 666 730 642 q 602 673 628 673 q 484 608 513 673 q 475 559 475 585 l 475 332 l 387 332 l 387 559 q 307 666 387 643 q 259 673 283 673 q 141 606 170 673 q 133 559 133 585 l 133 332 l 41 332 m 41 264 l 133 264 q 218 110 133 151 q 305 94 256 94 l 305 0 q 61 148 118 0 q 41 264 41 201 m 557 0 l 557 94 q 723 210 693 94 q 730 264 730 236 l 822 264 q 700 31 821 96 q 557 0 640 0 z "},"ග":{"ha":959,"x_min":41,"x_max":918,"o":"m 297 -11 l 297 83 q 140 217 167 83 q 133 286 133 250 l 133 464 q 258 667 133 643 q 297 671 277 671 l 297 765 q 65 614 125 765 q 41 468 41 551 l 41 286 q 167 20 41 90 q 297 -11 222 -11 m 662 -11 q 894 140 834 -11 q 918 286 918 203 l 918 468 q 792 734 918 665 q 662 765 736 765 l 662 671 q 822 522 799 671 q 826 464 826 494 l 826 286 q 712 90 826 121 q 662 83 688 83 l 662 -11 m 343 357 l 427 355 q 518 220 518 343 q 373 83 515 84 l 373 -11 q 594 130 556 -11 q 604 205 604 165 l 604 243 q 509 423 604 382 q 439 435 477 435 l 435 435 l 435 486 q 586 671 438 670 l 586 765 q 354 586 397 765 q 343 484 343 540 l 343 357 z "},"ඝ":{"ha":922,"x_min":41,"x_max":882,"o":"m 288 -4 q 452 164 450 -1 q 491 202 454 201 q 530 164 529 197 q 694 -4 533 -3 q 849 76 796 -4 q 882 195 882 126 l 882 263 l 789 263 l 789 199 q 730 95 789 122 q 689 87 709 87 q 591 175 601 87 q 590 202 590 189 q 529 275 590 269 q 509 277 519 277 l 475 277 q 392 201 395 270 q 312 88 392 98 q 293 87 302 87 q 203 144 231 87 q 193 199 193 168 l 193 263 l 100 263 l 100 195 q 194 20 100 72 q 288 -4 237 -4 m 111 640 l 194 613 q 321 684 222 682 q 438 610 408 684 q 448 556 448 585 l 448 545 l 41 545 l 41 461 l 129 461 q 102 385 102 444 q 100 331 100 381 l 193 331 l 193 377 q 281 461 201 457 l 703 461 q 789 377 784 449 l 789 331 l 882 331 l 882 387 q 709 545 879 544 l 536 545 l 536 556 q 601 670 536 639 q 663 684 629 684 q 789 613 764 682 l 872 640 q 694 768 830 754 q 663 769 678 769 q 500 701 559 769 q 492 690 496 696 q 320 769 430 765 q 121 662 176 769 q 111 640 115 651 z "},"හ":{"ha":959,"x_min":41,"x_max":918,"o":"m 435 434 l 435 487 q 586 671 438 670 l 586 765 q 389 673 453 764 q 248 764 347 750 q 221 765 235 765 q 71 694 119 765 q 49 648 56 673 l 123 629 q 220 686 152 684 q 317 633 289 686 q 330 585 330 610 l 290 585 q 41 335 42 581 l 41 267 q 149 30 41 102 q 297 -11 212 -11 l 297 83 q 145 189 180 83 q 133 267 133 224 l 133 331 q 239 486 133 464 q 297 491 264 491 l 342 491 l 342 484 l 342 357 l 408 357 q 517 220 514 347 q 373 83 514 84 l 373 -11 q 593 125 551 -11 q 604 205 604 161 l 604 243 q 496 425 604 389 q 435 434 468 434 m 662 -11 q 892 140 833 -11 q 918 286 917 203 l 918 468 q 789 735 917 666 q 662 765 734 765 l 662 671 q 822 513 802 671 q 825 464 825 490 l 825 286 q 715 90 825 123 q 662 83 690 83 l 662 -11 z "},"්":{"ha":172,"x_min":41,"x_max":132,"o":"m 41 840 l 41 1111 l 132 1111 l 132 840 l 41 840 z "},"ඉ":{"ha":758,"x_min":31,"x_max":718,"o":"m 262 0 l 385 0 q 673 148 589 0 q 718 338 718 228 l 718 515 q 598 734 718 662 q 441 776 528 776 l 419 776 l 419 682 q 602 597 552 682 q 627 499 627 556 l 627 349 q 467 104 627 156 q 362 88 418 88 l 262 88 l 262 0 m 94 -104 q 228 -255 118 -210 q 340 -277 281 -277 q 537 -195 467 -277 q 585 -61 585 -138 l 494 -61 q 416 -171 494 -134 q 336 -190 378 -190 q 208 -133 254 -190 q 183 -83 190 -110 l 94 -104 m 31 426 q 133 259 31 307 q 236 237 180 237 q 411 323 368 237 q 427 391 427 354 l 427 495 l 339 495 l 339 416 q 275 338 339 357 q 236 332 256 332 q 133 392 157 332 q 125 437 125 412 l 125 517 q 240 666 125 623 q 323 682 285 682 l 345 682 l 345 776 l 323 776 q 109 697 195 776 q 31 524 31 625 l 31 426 z "},"ඊ":{"ha":745,"x_min":41,"x_max":716,"o":"m 41 321 q 208 12 41 79 q 321 -8 259 -8 l 321 85 q 133 319 134 88 l 133 568 q 156 700 133 658 q 227 781 178 741 l 536 1050 l 433 1076 l 155 838 q 41 613 46 747 q 41 579 41 600 l 41 321 m 218 677 l 218 675 l 411 675 q 563 581 530 675 q 576 476 576 538 l 576 319 q 472 98 576 136 q 397 87 439 87 l 397 -7 q 647 156 594 -7 q 669 319 669 224 l 669 492 q 437 765 666 764 l 307 765 l 218 677 m 518 902 q 568 818 518 846 q 617 804 591 804 q 704 856 675 804 q 716 902 716 878 q 665 989 716 960 q 617 1001 642 1001 q 530 949 559 1001 q 518 902 518 926 m 68 1043 q 118 959 68 987 q 167 945 141 945 q 254 997 225 945 q 266 1043 266 1019 q 214 1130 266 1101 q 167 1142 191 1142 q 80 1090 109 1142 q 68 1043 68 1067 z "},"ජ":{"ha":853,"x_min":42,"x_max":803,"o":"m 42 640 l 125 613 q 251 684 153 682 q 369 609 340 684 q 378 556 378 585 l 378 545 l 264 545 q 52 416 88 545 q 42 332 42 378 l 134 332 q 193 448 134 423 q 270 461 224 461 l 572 461 q 701 396 681 461 q 709 332 709 372 l 802 332 q 694 528 802 490 q 570 545 647 545 l 465 545 l 465 556 q 488 633 467 601 l 490 632 l 506 654 q 593 684 541 684 q 719 613 693 682 l 803 640 q 618 768 758 757 q 594 769 606 769 l 802 1043 l 708 1067 l 422 690 q 250 769 359 765 q 53 665 107 769 q 42 640 46 652 m 382 -11 l 463 -11 q 776 125 712 -11 q 802 264 802 182 l 709 264 q 597 95 709 129 q 467 80 545 80 l 378 80 q 163 152 212 80 q 134 264 134 195 l 42 264 q 178 22 42 79 q 382 -11 255 -11 z "},"ඣ":{"ha":1510,"x_min":41,"x_max":1469,"o":"m 41 252 q 58 256 57 256 q 88 189 88 255 l 88 152 q 168 16 88 61 q 256 -7 210 -7 q 380 49 332 -5 q 519 -7 438 -7 q 662 62 613 -7 q 692 163 692 106 l 692 317 q 591 507 692 461 q 526 528 563 519 l 453 467 q 586 399 559 446 q 604 311 604 366 l 604 172 q 547 94 604 115 q 507 87 528 87 q 425 137 444 87 q 418 172 418 153 l 418 264 l 342 264 l 342 172 q 288 91 342 109 q 260 87 274 87 q 182 132 205 87 q 172 172 172 151 l 172 239 q 146 307 171 279 l 502 608 q 736 693 609 693 q 910 624 852 692 q 764 457 789 589 q 758 399 758 429 l 758 191 q 852 24 758 76 q 966 -3 902 -3 q 1115 71 1066 -1 q 1271 -3 1166 -1 q 1440 84 1388 -3 q 1469 191 1469 132 l 1469 700 q 1289 1005 1469 949 q 1146 1024 1227 1024 l 1146 932 q 1350 831 1303 932 q 1374 692 1374 777 l 1374 199 q 1329 109 1374 141 q 1263 90 1302 90 q 1158 164 1181 90 q 1153 199 1153 183 l 1153 264 l 1073 264 l 1073 199 q 1028 109 1073 140 q 963 90 1000 90 q 859 163 883 90 q 852 199 852 182 l 852 393 q 922 536 852 494 q 1015 557 962 557 l 1042 557 q 856 766 1008 719 q 743 783 803 783 q 439 675 579 781 l 433 670 q 307 761 397 741 q 252 768 279 768 q 83 686 146 768 q 43 608 57 651 l 126 582 q 252 678 170 671 q 359 623 323 678 q 366 613 363 617 l 41 339 l 41 252 m 796 869 l 886 837 q 1043 930 918 921 q 1069 932 1057 932 l 1069 1024 q 846 944 929 1024 q 796 869 812 910 z "},"ඥ":{"ha":1438,"x_min":41,"x_max":1438,"o":"m 1058 -3 l 1109 -3 q 1325 84 1242 -3 q 1385 184 1364 127 l 1299 206 q 1109 88 1244 90 l 1058 88 q 867 184 916 88 q 849 263 849 221 q 974 422 849 392 q 1047 430 1008 430 l 1299 430 l 1299 507 q 964 774 1299 769 q 945 774 955 774 l 945 681 q 1206 519 1204 678 l 1054 519 q 787 391 854 519 q 777 372 781 381 q 650 435 734 434 l 646 435 l 646 486 q 757 662 646 616 q 854 681 802 680 l 871 681 l 871 774 l 854 774 q 593 644 667 773 q 553 484 553 578 l 553 357 l 637 355 q 728 220 728 343 q 583 83 726 84 l 583 -11 q 800 117 755 -9 q 1038 -3 873 5 q 1058 -3 1048 -3 m 41 278 q 79 62 41 141 q 134 -24 99 20 l 224 7 q 136 186 146 98 q 132 278 132 218 l 132 389 q 163 591 132 533 q 307 671 206 667 q 251 468 251 591 l 251 286 q 382 18 252 85 q 507 -11 437 -11 l 507 83 q 350 217 377 83 q 343 286 343 250 l 343 464 q 468 667 343 643 q 507 671 487 671 l 507 765 l 359 765 q 79 629 142 765 q 41 389 41 549 l 41 278 m 1202 -279 q 1400 -190 1331 -279 q 1438 -109 1427 -153 l 1350 -85 q 1246 -187 1329 -165 q 1206 -193 1226 -193 q 1081 -136 1124 -193 q 1058 -64 1058 -103 l 967 -64 q 1074 -250 967 -193 q 1202 -279 1130 -279 z "},"ක":{"ha":1046,"x_min":41,"x_max":1005,"o":"m 43 608 l 126 582 q 252 678 170 671 q 358 625 321 678 q 366 613 363 618 l 41 339 l 41 252 q 58 256 57 256 q 88 189 88 255 l 88 152 q 168 16 88 61 q 256 -7 210 -7 q 380 49 332 -5 q 519 -7 438 -7 q 662 62 613 -7 q 692 163 692 106 l 692 317 q 591 507 692 461 q 526 528 563 519 l 453 467 q 586 399 559 446 q 604 311 604 366 l 604 172 q 547 94 604 115 q 507 87 528 87 q 425 137 444 87 q 418 172 418 153 l 418 264 l 342 264 l 342 172 q 288 91 342 109 q 260 87 274 87 q 182 132 205 87 q 172 172 172 151 l 172 239 q 146 307 171 279 l 502 608 q 681 673 582 673 q 865 583 800 673 q 913 423 913 518 l 913 266 q 810 96 913 118 q 760 92 788 92 l 760 -1 q 989 138 945 -1 q 1005 266 1005 190 l 1005 429 q 861 722 1005 636 q 694 765 788 765 q 434 670 549 764 q 307 761 396 739 q 252 768 279 768 q 83 686 146 768 q 43 608 57 651 z "},"ඛ":{"ha":810,"x_min":41,"x_max":769,"o":"m 570 -7 q 732 77 677 -7 q 769 214 769 134 l 769 692 q 544 1017 769 978 q 460 1024 505 1024 l 438 1024 l 438 932 l 460 932 q 662 799 624 932 q 674 692 674 753 l 674 206 q 608 103 674 129 q 564 95 586 95 q 467 148 498 95 q 452 206 452 174 l 452 391 q 353 578 452 521 q 250 605 305 605 q 85 526 145 605 q 41 381 41 467 l 41 244 q 174 15 41 58 q 288 0 222 0 l 288 92 q 146 159 176 92 q 132 250 132 194 l 132 377 q 199 496 132 465 q 247 507 222 507 q 345 448 313 507 q 361 377 361 416 l 361 -88 l 452 -88 l 452 27 q 570 -7 507 -7 m 149 742 q 248 905 149 853 q 362 932 300 932 l 362 1024 q 144 944 236 1024 q 58 765 60 868 l 149 742 z "},"ල":{"ha":830,"x_min":41,"x_max":789,"o":"m 363 311 q 457 140 363 191 q 568 113 506 113 q 749 202 688 113 q 789 347 789 263 l 789 453 q 513 772 789 747 q 453 774 484 774 l 453 682 q 686 536 650 682 q 696 453 696 499 l 696 347 q 624 221 696 256 q 567 209 597 209 q 465 269 494 209 q 454 319 454 292 l 454 378 l 543 378 l 543 461 l 277 461 l 277 378 l 363 378 l 363 311 m 372 -229 l 372 -137 q 152 -1 199 -137 q 136 102 136 45 l 136 444 q 292 673 136 632 q 372 682 328 682 l 372 774 q 69 604 140 774 q 41 444 41 536 l 41 102 q 256 -216 41 -159 q 372 -229 309 -229 m 453 -138 l 453 -231 q 773 -11 707 -228 l 684 14 q 453 -138 629 -137 z "},"ළ":{"ha":826,"x_min":41,"x_max":799,"o":"m 149 566 l 232 581 q 321 686 235 685 q 400 631 381 686 q 407 591 407 612 l 477 591 q 533 681 477 662 q 562 686 547 686 q 648 616 636 686 q 650 593 650 604 l 732 593 q 621 761 732 730 q 560 769 593 769 q 445 716 487 769 q 442 712 444 713 q 323 769 401 768 q 163 671 199 769 q 149 595 149 637 l 149 566 m 41 104 q 217 -201 41 -125 q 384 -231 290 -231 l 384 -137 q 157 -16 214 -137 q 134 103 134 35 l 134 245 q 170 368 136 319 q 275 170 187 235 q 431 122 340 122 l 494 122 q 726 256 661 122 q 734 274 730 264 l 650 296 q 511 208 616 216 q 492 206 502 206 l 434 206 q 255 353 297 206 q 243 425 245 388 q 307 437 274 437 l 732 437 l 732 526 l 292 526 q 114 450 189 526 q 41 263 41 374 l 41 104 m 467 -138 l 467 -231 q 793 -20 738 -231 q 799 0 796 -9 l 708 24 q 467 -138 669 -137 z "},"ම":{"ha":784,"x_min":41,"x_max":743,"o":"m 41 342 l 41 442 q 129 625 41 575 q 202 646 164 646 q 313 583 278 646 q 332 510 332 551 l 332 439 q 369 396 332 403 q 378 395 374 395 q 423 427 415 395 q 425 439 425 434 l 425 636 l 499 636 l 499 431 q 429 321 499 350 q 380 312 406 312 q 275 368 308 312 q 262 425 262 393 l 262 495 q 220 557 262 543 q 201 560 210 560 q 136 502 152 560 q 129 453 129 480 l 129 342 q 282 96 129 132 q 336 91 308 91 l 336 -1 q 53 222 104 -1 q 41 342 41 278 m 412 -1 l 412 91 q 651 331 650 94 l 651 692 q 412 932 648 930 l 412 1024 q 739 757 707 1024 q 743 692 743 726 l 743 331 q 460 0 743 24 q 412 -1 435 -1 m 42 765 q 152 962 42 882 q 336 1024 239 1024 l 336 932 q 179 863 241 932 q 133 741 133 810 l 42 765 z "},"ා":{"ha":359,"x_min":41,"x_max":319,"o":"m 41 0 l 41 94 l 68 94 q 220 212 198 94 q 225 271 225 239 l 225 494 q 68 675 216 671 l 41 675 l 41 769 l 68 769 q 317 534 301 769 q 319 498 319 517 l 319 270 q 87 0 319 9 q 68 0 76 0 l 41 0 z "},"ෑ":{"ha":376,"x_min":60,"x_max":335,"o":"m 60 283 l 60 224 q 297 0 64 3 l 335 0 l 335 94 l 296 94 q 156 193 170 94 q 153 233 153 212 l 153 283 q 178 359 153 331 q 335 488 212 401 l 335 570 l 180 570 l 335 697 l 335 779 l 60 779 l 60 697 l 213 697 l 60 570 l 60 488 l 203 488 q 71 357 94 410 q 60 283 60 328 z "},"ැ":{"ha":357,"x_min":41,"x_max":316,"o":"m 277 0 l 316 0 l 316 94 l 277 94 q 133 255 133 95 l 133 396 q 156 511 133 472 q 316 689 186 563 l 316 779 l 41 779 l 41 688 l 197 688 q 64 532 88 582 q 41 400 41 484 l 41 258 q 184 15 41 65 q 277 0 227 0 z "},"ෛ":{"ha":1204,"x_min":41,"x_max":1164,"o":"m 338 677 q 490 563 469 675 l 575 585 q 498 720 564 666 q 366 765 441 765 l 282 765 q 56 605 104 765 q 41 503 41 556 l 41 269 q 146 20 41 83 q 255 -7 193 -7 l 283 -7 l 283 81 q 138 195 160 81 q 132 269 132 227 l 132 503 q 254 674 132 655 q 288 677 271 677 l 338 677 m 316 392 l 407 392 q 483 358 468 392 q 488 323 488 342 l 488 213 q 349 81 486 83 l 349 -7 l 381 -7 q 560 109 513 -7 q 579 213 579 156 l 579 346 q 460 479 579 469 q 434 480 448 480 l 316 480 l 316 392 m 922 681 q 1074 567 1054 680 l 1160 589 q 1082 724 1149 670 q 951 769 1025 769 l 867 769 q 640 609 689 769 q 625 507 625 560 l 625 273 q 731 24 625 87 q 840 -3 777 -3 l 868 -3 l 868 85 q 723 199 745 85 q 716 273 716 231 l 716 507 q 838 678 716 659 q 872 681 856 681 l 922 681 m 901 396 l 991 396 q 1067 362 1053 396 q 1073 327 1073 346 l 1073 217 q 933 85 1070 87 l 933 -3 l 966 -3 q 1145 113 1097 -3 q 1164 217 1164 160 l 1164 350 q 1044 483 1164 473 q 1019 484 1032 484 l 901 484 l 901 396 z "},"ෞ":{"ha":1366,"x_min":41,"x_max":1332,"o":"m 338 677 q 490 563 469 675 l 575 585 q 498 720 564 666 q 366 765 441 765 l 282 765 q 56 605 104 765 q 41 503 41 556 l 41 269 q 146 20 41 83 q 255 -7 193 -7 l 283 -7 l 283 81 q 138 195 160 81 q 132 269 132 227 l 132 503 q 254 674 132 655 q 288 677 271 677 l 338 677 m 316 392 l 407 392 q 483 358 468 392 q 488 323 488 342 l 488 213 q 349 81 486 83 l 349 -7 l 381 -7 q 560 109 513 -7 q 579 213 579 156 l 579 346 q 460 479 579 469 q 434 480 448 480 l 316 480 l 316 392 m 1097 -11 q 1282 66 1214 -11 q 1332 209 1332 126 l 1332 620 q 1255 757 1332 719 q 1192 770 1225 770 q 1076 708 1114 770 q 1055 629 1055 674 l 1055 571 q 1012 511 1055 524 q 996 510 1002 510 q 939 549 952 510 q 936 571 936 560 l 936 765 l 863 765 l 863 557 q 940 427 863 461 q 997 415 967 415 q 1107 475 1072 415 q 1126 547 1126 506 l 1126 616 q 1171 677 1126 666 q 1185 678 1179 678 q 1242 637 1229 678 q 1245 616 1245 627 l 1245 208 q 1164 90 1245 121 q 1100 79 1133 79 q 972 136 1015 79 q 949 208 949 168 l 949 274 l 863 274 l 863 209 q 972 19 863 79 q 1097 -11 1029 -11 z "},"ෙ":{"ha":620,"x_min":41,"x_max":579,"o":"m 338 677 q 490 563 469 675 l 575 585 q 498 720 564 666 q 366 765 441 765 l 282 765 q 56 605 104 765 q 41 503 41 556 l 41 269 q 146 20 41 83 q 255 -7 193 -7 l 283 -7 l 283 81 q 138 195 160 81 q 132 269 132 227 l 132 503 q 254 674 132 655 q 288 677 271 677 l 338 677 m 316 392 l 407 392 q 483 358 468 392 q 488 323 488 342 l 488 213 q 349 81 486 83 l 349 -7 l 381 -7 q 560 109 513 -7 q 579 213 579 156 l 579 346 q 460 479 579 469 q 434 480 448 480 l 316 480 l 316 392 z "},"ේ":{"ha":986,"x_min":41,"x_max":945,"o":"m 338 677 q 490 563 469 675 l 575 585 q 498 720 564 666 q 366 765 441 765 l 282 765 q 56 605 104 765 q 41 503 41 556 l 41 269 q 146 20 41 83 q 255 -7 193 -7 l 283 -7 l 283 81 q 138 195 160 81 q 132 269 132 227 l 132 503 q 254 674 132 655 q 288 677 271 677 l 338 677 m 316 392 l 407 392 q 483 358 468 392 q 488 323 488 342 l 488 213 q 349 81 486 83 l 349 -7 l 381 -7 q 560 109 513 -7 q 579 213 579 156 l 579 346 q 460 479 579 469 q 434 480 448 480 l 316 480 l 316 392 m 854 840 l 945 840 l 945 1111 l 854 1111 l 854 840 z "},"ි":{"ha":0,"x_min":-788,"x_max":-79,"o":"m -788 817 l -788 854 q -693 1029 -788 968 q -549 1070 -631 1070 l -317 1070 q -122 983 -190 1070 q -79 854 -79 926 l -79 817 l -167 817 q -339 982 -171 981 l -528 982 q -700 817 -699 981 l -788 817 z "},"ී":{"ha":0,"x_min":-798,"x_max":-77,"o":"m -205 799 q -95 863 -130 799 q -77 930 -77 894 q -201 1090 -79 1054 q -289 1103 -241 1103 l -559 1103 q -745 1009 -671 1103 q -798 857 -798 940 l -798 817 l -709 817 q -617 998 -709 955 q -537 1013 -582 1013 l -332 1013 q -285 1012 -302 1013 q -330 920 -328 978 q -270 815 -330 850 q -205 799 -240 799 z "},"ෳ":{"ha":532,"x_min":22,"x_max":492,"o":"m 258 -11 q 72 68 140 -11 q 22 209 22 126 l 22 274 l 110 274 l 110 208 q 191 92 110 125 q 260 79 225 79 q 387 140 349 79 q 406 208 406 170 l 406 616 q 361 677 406 666 q 346 678 353 678 q 289 637 302 678 q 286 616 286 627 l 286 547 q 214 427 286 460 q 157 415 187 415 q 42 477 79 415 q 22 557 22 513 l 22 765 l 96 765 l 96 571 q 140 511 96 524 q 156 510 149 510 q 213 549 199 510 q 216 571 216 560 l 216 629 q 293 758 216 723 q 353 770 321 770 q 469 707 430 770 q 492 620 492 669 l 492 209 q 381 19 492 79 q 258 -11 324 -11 z "},"ෟ":{"ha":532,"x_min":22,"x_max":491,"o":"m 256 -11 q 71 69 137 -11 q 22 209 22 126 l 22 274 l 109 274 l 109 208 q 190 92 109 125 q 259 79 224 79 q 385 140 347 79 q 404 208 404 170 l 404 616 q 359 677 404 666 q 345 678 351 678 q 288 637 301 678 q 285 616 285 627 l 285 547 q 213 427 285 460 q 156 415 186 415 q 42 477 79 415 q 22 557 22 513 l 22 765 l 95 765 l 95 571 q 138 511 95 524 q 155 510 148 510 q 212 549 198 510 q 214 571 214 560 l 214 629 q 292 758 214 723 q 351 770 320 770 q 468 707 429 770 q 491 620 491 669 l 491 209 q 380 19 491 79 q 256 -11 323 -11 z "},"ො":{"ha":1070,"x_min":41,"x_max":1029,"o":"m 338 677 q 490 563 469 675 l 575 585 q 498 720 564 666 q 366 765 441 765 l 282 765 q 56 605 104 765 q 41 503 41 556 l 41 269 q 146 20 41 83 q 255 -7 193 -7 l 283 -7 l 283 81 q 138 195 160 81 q 132 269 132 227 l 132 503 q 254 674 132 655 q 288 677 271 677 l 338 677 m 316 392 l 407 392 q 483 358 468 392 q 488 323 488 342 l 488 213 q 349 81 486 83 l 349 -7 l 381 -7 q 560 109 513 -7 q 579 213 579 156 l 579 346 q 460 479 579 469 q 434 480 448 480 l 316 480 l 316 392 m 751 0 l 779 0 q 1029 243 1017 0 q 1029 270 1029 256 l 1029 498 q 810 768 1029 753 q 779 769 795 769 l 751 769 l 751 675 l 779 675 q 935 521 924 675 q 936 494 936 507 l 936 271 q 802 95 936 104 q 779 94 789 94 l 751 94 l 751 0 z "},"ෝ":{"ha":1070,"x_min":41,"x_max":1029,"o":"m 338 677 q 490 563 469 675 l 575 585 q 498 720 564 666 q 366 765 441 765 l 282 765 q 56 605 104 765 q 41 503 41 556 l 41 269 q 146 20 41 83 q 255 -7 193 -7 l 283 -7 l 283 81 q 138 195 160 81 q 132 269 132 227 l 132 503 q 254 674 132 655 q 288 677 271 677 l 338 677 m 316 392 l 407 392 q 483 358 468 392 q 488 323 488 342 l 488 213 q 349 81 486 83 l 349 -7 l 381 -7 q 560 109 513 -7 q 579 213 579 156 l 579 346 q 460 479 579 469 q 434 480 448 480 l 316 480 l 316 392 m 751 0 l 779 0 q 1029 243 1017 0 q 1029 270 1029 256 l 1029 498 q 810 768 1029 753 q 779 769 795 769 l 751 769 l 751 675 l 779 675 q 935 521 924 675 q 936 494 936 507 l 936 271 q 802 95 936 104 q 779 94 789 94 l 751 94 l 751 0 m 750 840 l 841 840 l 841 1111 l 750 1111 l 750 840 z "},"ෘ":{"ha":449,"x_min":20,"x_max":408,"o":"m 214 0 q 60 76 118 0 q 20 194 20 127 q 98 349 20 293 q 214 385 149 385 l 254 385 l 254 302 l 214 302 q 118 247 149 302 q 104 194 104 222 q 159 99 104 132 q 214 84 186 84 q 308 138 275 84 q 323 194 323 165 l 323 534 q 245 678 323 656 q 218 681 232 681 l 96 681 l 96 769 l 222 769 q 392 648 349 769 q 408 541 408 601 l 408 194 q 326 34 408 91 q 214 0 275 0 z "},"ෲ":{"ha":929,"x_min":42,"x_max":887,"o":"m 236 0 q 81 76 140 0 q 42 194 42 127 q 119 349 42 293 q 236 385 171 385 l 275 385 l 275 302 l 236 302 q 140 248 172 302 q 125 194 125 222 q 179 100 125 133 q 236 84 206 84 q 330 138 297 84 q 345 194 345 165 l 345 534 q 267 678 345 656 q 240 681 254 681 l 118 681 l 118 769 l 244 769 q 412 647 372 769 q 429 541 429 600 l 429 194 q 346 34 429 91 q 236 0 296 0 m 693 0 q 538 76 597 0 q 499 194 499 127 q 576 349 499 293 q 693 385 628 385 l 734 385 l 734 302 l 693 302 q 597 247 628 302 q 583 194 583 222 q 637 99 583 132 q 693 84 665 84 q 788 138 755 84 q 803 194 803 165 l 803 534 q 711 680 800 670 q 697 681 704 681 l 575 681 l 575 769 l 703 769 q 871 647 830 769 q 887 541 887 600 l 887 194 q 804 34 887 91 q 693 0 754 0 z "},"ු":{"ha":0,"x_min":-678,"x_max":-71,"o":"m -163 176 l -163 -186 l -355 -186 l -355 -278 l -71 -278 l -71 176 l -163 176 m -678 -186 l -678 -278 l -431 -278 l -431 -186 l -678 -186 z "},"ූ":{"ha":0,"x_min":-689,"x_max":-71,"o":"m -689 -134 l -689 -228 q -589 -273 -635 -273 q -499 -247 -563 -273 q -427 -229 -456 -229 l -427 -136 q -522 -163 -458 -136 q -587 -179 -562 -179 q -689 -134 -636 -178 m -163 -278 l -71 -278 l -71 167 l -163 167 l -163 -180 q -347 -136 -254 -134 q -350 -136 -349 -136 l -351 -136 l -351 -229 q -163 -278 -252 -231 z "},"ඹ":{"ha":800,"x_min":41,"x_max":760,"o":"m 252 -15 q 73 88 130 -15 q 41 222 41 146 l 41 486 q 125 629 41 587 q 201 648 161 648 q 327 582 286 648 q 347 499 347 545 l 347 439 q 384 396 347 403 q 393 395 389 395 q 438 427 430 395 q 439 439 439 434 l 439 636 l 514 636 l 514 431 q 444 321 514 350 q 395 312 420 312 q 290 366 323 312 q 275 425 275 392 l 275 486 q 225 557 275 543 q 205 560 214 560 q 138 513 155 560 q 133 481 133 498 l 133 227 q 187 104 133 148 q 255 80 217 80 q 302 130 300 88 q 301 153 302 136 q 326 267 292 244 q 363 277 342 277 l 435 277 q 500 174 509 277 q 498 153 499 165 q 496 130 496 136 q 544 80 502 83 q 651 153 616 80 q 667 227 667 189 l 667 692 q 430 932 665 930 l 430 1024 q 760 696 758 1021 l 760 222 q 667 22 760 87 q 545 -15 614 -15 q 445 61 454 -14 q 445 160 442 79 q 399 205 437 202 q 354 160 355 201 q 355 130 354 152 q 354 61 358 77 q 252 -15 342 -14 m 142 742 l 52 765 q 167 967 52 890 q 354 1024 254 1024 l 354 932 q 183 859 244 932 q 142 742 142 808 z "},"න":{"ha":998,"x_min":41,"x_max":958,"o":"m 712 -4 q 941 136 898 -4 q 958 263 958 187 l 958 456 q 818 722 958 637 q 643 768 739 768 q 422 686 507 766 q 298 762 382 745 q 254 768 275 768 q 81 682 144 768 q 45 608 57 650 l 127 582 q 239 677 156 669 q 252 678 245 678 q 361 624 324 678 q 366 616 363 620 q 309 538 349 593 q 274 491 278 496 q 140 369 199 389 q 126 365 133 366 l 126 366 l 126 467 l 41 467 l 41 347 q 182 49 41 144 q 373 -7 266 -7 q 605 92 518 -7 q 671 278 671 170 q 581 484 671 408 q 503 528 545 513 l 450 457 q 575 279 574 406 q 483 113 575 167 q 374 84 434 84 q 176 183 245 84 q 137 271 151 222 q 323 410 217 279 q 353 448 336 426 l 458 587 q 636 675 525 674 q 814 597 746 675 q 865 449 865 534 l 865 263 q 762 94 865 115 q 712 90 741 90 l 712 -4 z "},"ඳ":{"ha":939,"x_min":41,"x_max":939,"o":"m 559 0 l 610 0 q 821 84 738 0 q 884 187 863 127 l 800 210 q 610 91 745 92 l 559 91 q 363 190 411 91 q 346 270 346 227 q 457 439 346 399 q 547 453 498 453 l 799 453 l 800 526 q 671 754 800 689 q 536 784 610 784 q 334 696 406 783 q 288 701 313 701 q 98 604 167 701 q 41 401 41 522 l 41 283 q 75 73 41 146 q 132 -19 95 28 l 221 12 q 136 190 145 102 q 132 283 132 221 l 132 401 q 205 578 132 521 q 296 609 244 609 q 370 595 331 609 l 380 593 q 492 692 401 671 q 538 697 515 697 q 684 632 636 697 q 711 544 711 594 l 557 544 q 288 418 362 544 q 251 270 251 355 q 400 31 251 96 q 559 0 471 0 m 701 -277 q 902 -186 833 -277 q 939 -104 928 -149 l 849 -83 q 749 -184 830 -163 q 705 -190 727 -190 q 581 -133 624 -190 q 557 -61 557 -100 l 467 -61 q 572 -245 467 -189 q 701 -277 629 -277 z "},"ඦ":{"ha":1062,"x_min":41,"x_max":1010,"o":"m 590 -11 l 671 -11 q 986 129 922 -11 q 1010 264 1010 184 l 918 264 q 806 95 918 130 q 674 80 755 80 l 586 80 q 372 152 420 80 q 343 264 343 195 l 251 264 q 384 22 251 80 q 590 -11 461 -11 m 132 -23 l 222 7 q 133 187 145 100 q 129 279 129 221 l 129 457 q 221 629 129 609 q 247 632 235 632 q 290 627 270 632 l 332 613 q 458 684 361 682 q 576 609 548 684 q 586 556 586 585 l 586 545 l 473 545 q 260 416 297 545 q 251 332 251 378 l 343 332 q 397 446 343 422 q 477 461 429 461 l 781 461 q 911 395 890 461 q 918 332 918 370 l 1010 332 q 903 528 1010 490 q 779 545 856 545 l 674 545 l 674 556 q 696 633 675 600 l 699 632 l 716 655 q 802 684 750 684 q 928 613 902 682 l 1010 640 q 833 768 968 754 q 802 769 817 769 l 1009 1043 l 917 1067 l 631 690 q 458 769 568 765 q 302 718 362 768 q 244 723 278 723 q 73 621 127 723 q 41 467 41 557 l 41 277 q 76 65 41 141 q 132 -23 96 23 z "},"ඞ":{"ha":792,"x_min":41,"x_max":751,"o":"m 247 -3 q 397 71 349 -1 q 553 -3 449 -1 q 723 84 670 -3 q 751 191 751 132 l 751 699 q 589 1000 751 939 q 431 1023 524 1023 l 431 932 q 631 836 585 932 q 656 690 656 780 l 656 199 q 612 109 656 141 q 545 90 585 90 q 441 164 464 90 q 435 199 435 183 l 435 264 l 355 264 l 355 199 q 311 109 355 140 q 245 90 282 90 q 141 163 165 90 q 134 199 134 182 l 134 305 q 172 381 134 363 q 282 397 206 397 l 342 397 q 469 475 434 397 q 483 537 483 505 q 422 652 483 614 q 342 673 387 673 l 235 673 q 77 576 102 673 q 72 536 72 556 l 148 536 q 203 593 148 582 q 236 595 218 595 l 343 595 q 404 552 393 595 q 406 537 406 544 q 365 479 406 492 q 340 475 354 475 l 221 475 q 49 369 76 475 q 41 297 41 338 l 41 191 q 136 23 41 75 q 247 -3 184 -3 m 49 764 l 138 741 q 237 903 138 850 q 354 932 290 932 l 354 1023 q 136 943 229 1023 q 49 764 50 868 z "},"ණ":{"ha":1326,"x_min":9,"x_max":1286,"o":"m 9 15 l 99 -8 q 209 53 133 49 q 335 22 247 53 q 441 0 397 0 q 608 80 543 0 q 665 264 665 152 l 665 505 q 576 757 663 680 l 792 1040 l 692 1067 l 494 804 q 369 822 435 822 q 145 728 229 822 q 77 540 77 652 q 178 315 77 393 q 323 264 243 264 l 416 264 l 416 354 l 350 354 q 178 479 213 354 q 168 540 168 510 q 221 677 168 620 q 369 732 275 732 q 563 597 524 732 q 575 505 575 555 l 575 264 q 476 100 575 133 q 429 92 453 92 q 315 121 396 92 q 199 142 250 142 q 38 61 102 142 q 9 15 22 39 m 907 331 l 997 331 l 997 563 q 1058 662 997 639 q 1096 669 1076 669 q 1185 609 1162 669 q 1194 563 1194 587 l 1194 331 l 1286 331 l 1286 575 q 1187 746 1286 700 q 1100 765 1147 765 q 955 694 1004 764 q 815 765 905 764 q 699 724 745 764 l 734 637 q 808 670 764 670 q 897 612 872 670 q 907 555 907 586 l 907 331 m 731 218 q 849 28 731 90 q 1009 -8 918 -8 q 1230 76 1152 -8 q 1286 225 1286 138 l 1286 264 l 1194 264 l 1194 227 q 1095 96 1194 133 q 1008 81 1054 81 q 852 144 903 81 q 823 228 823 180 l 823 264 l 731 264 l 731 218 z "},"ඬ":{"ha":1010,"x_min":41,"x_max":970,"o":"m 467 -3 q 616 71 567 -1 q 772 -3 670 -1 q 943 87 891 -3 q 970 191 970 133 l 970 700 q 804 1002 970 943 q 654 1024 741 1024 l 654 932 q 850 834 806 932 q 875 692 875 780 l 875 199 q 830 109 875 141 q 764 90 803 90 q 661 163 685 90 q 654 199 654 182 l 654 264 l 575 264 l 575 199 q 532 110 575 141 q 465 90 503 90 q 358 163 384 90 q 353 199 353 182 l 353 305 q 439 389 363 385 l 654 389 l 654 471 q 563 632 654 582 q 457 658 515 658 q 328 617 380 656 q 254 627 292 627 q 76 530 134 627 q 41 388 41 471 l 41 239 q 81 42 41 117 q 121 -19 98 11 l 210 12 q 130 183 138 98 q 127 235 127 205 q 127 252 127 239 q 129 377 129 308 q 218 532 129 507 q 258 537 237 537 q 343 519 298 537 l 343 521 l 354 517 q 456 574 381 572 q 555 524 524 574 q 570 468 570 499 l 209 468 l 209 389 l 292 389 q 260 305 260 372 l 260 191 q 355 23 260 75 q 467 -3 404 -3 m 273 765 l 362 742 q 461 903 362 850 q 578 932 514 932 l 578 1024 q 359 944 453 1024 q 273 765 274 869 z "},"ඟ":{"ha":1169,"x_min":41,"x_max":1128,"o":"m 41 283 q 75 73 41 146 q 132 -19 95 28 l 221 12 q 136 190 145 102 q 132 283 132 221 l 132 389 q 163 591 132 533 q 307 671 206 667 q 251 468 251 591 l 251 286 q 382 18 252 85 q 507 -11 437 -11 l 507 83 q 350 217 377 83 q 343 286 343 250 l 343 464 q 468 667 343 643 q 507 671 487 671 l 507 765 l 359 765 q 79 629 142 765 q 41 389 41 549 l 41 283 m 872 -11 q 1104 140 1044 -11 q 1128 286 1128 203 l 1128 468 q 1002 734 1128 665 q 872 765 947 765 l 872 671 q 1032 522 1009 671 q 1036 464 1036 494 l 1036 286 q 922 90 1036 121 q 872 83 898 83 l 872 -11 m 553 357 l 637 355 q 728 220 728 343 q 583 83 726 84 l 583 -11 q 804 130 766 -11 q 814 205 814 165 l 814 243 q 719 423 814 382 q 650 435 688 435 l 646 435 l 646 486 q 796 671 648 670 l 796 765 q 564 586 608 765 q 553 484 553 540 l 553 357 z "},"ඤ":{"ha":1530,"x_min":41,"x_max":1530,"o":"m 243 252 q 250 254 245 252 q 262 256 259 256 q 292 189 292 255 l 290 152 q 370 16 290 62 q 460 -7 412 -7 q 582 49 534 -5 q 722 -7 643 -7 q 864 62 815 -7 q 888 113 880 85 q 1150 0 977 4 l 1203 0 q 1416 85 1335 0 q 1477 187 1457 129 l 1393 209 q 1203 91 1336 92 l 1150 91 q 956 186 1005 91 q 937 269 937 224 q 1048 438 937 397 q 1139 453 1089 453 l 1392 453 l 1392 530 q 1177 788 1392 735 q 1039 803 1114 803 l 1039 713 q 1299 544 1294 707 l 1149 544 q 879 418 955 543 q 730 528 846 502 l 655 467 q 789 399 761 446 q 807 311 807 366 l 807 172 q 750 95 807 117 q 709 87 730 87 q 628 137 648 87 q 621 172 621 153 l 621 264 l 544 264 l 544 172 q 488 91 544 107 q 464 87 476 87 q 385 130 410 87 q 374 172 374 151 l 374 239 q 350 305 373 279 l 705 608 q 964 713 833 711 l 964 803 q 642 674 803 802 l 636 670 q 517 760 604 736 q 456 768 487 768 q 286 686 350 766 q 243 690 263 690 q 72 583 123 690 q 41 425 41 518 l 41 263 q 79 46 41 126 q 134 -39 100 4 l 224 -8 q 136 172 146 84 q 132 263 132 205 l 132 425 q 247 601 138 595 q 286 595 267 601 l 328 582 q 454 678 372 671 q 560 627 524 678 q 568 613 566 620 l 243 339 l 243 252 m 1294 -277 q 1492 -187 1423 -277 q 1530 -106 1519 -151 l 1442 -83 q 1341 -184 1423 -163 q 1298 -190 1320 -190 q 1172 -132 1214 -190 q 1150 -61 1150 -100 l 1059 -61 q 1165 -245 1059 -189 q 1294 -277 1222 -277 z "},"ඕ":{"ha":796,"x_min":41,"x_max":755,"o":"m 243 -3 q 399 71 346 -1 q 553 -3 450 -1 q 728 87 675 -3 q 755 191 755 133 l 755 643 q 651 852 755 802 q 472 884 585 884 l 266 884 q 187 933 203 884 q 183 956 183 945 q 229 1023 183 1005 q 266 1028 247 1028 l 372 1028 l 372 1111 l 252 1111 q 119 1044 167 1111 q 94 971 94 1009 q 132 884 95 918 l 84 884 l 84 796 l 472 796 q 635 745 597 796 q 663 627 663 704 l 663 199 q 617 109 663 142 q 549 88 589 88 q 446 159 472 88 q 438 199 438 180 l 438 264 l 359 264 l 359 199 q 315 109 359 142 q 247 88 285 88 q 141 160 168 88 q 134 199 134 180 l 134 481 q 184 557 134 541 q 206 560 195 560 q 271 517 255 560 q 277 486 277 502 l 277 425 q 347 320 277 347 q 395 312 370 312 q 499 369 467 312 q 514 431 514 396 l 514 636 l 439 636 l 439 439 q 403 396 439 403 q 393 395 397 395 q 349 427 357 395 q 347 439 347 434 l 347 499 q 266 635 347 598 q 201 648 235 648 q 69 583 117 648 q 41 487 41 541 l 41 191 q 134 23 41 75 q 243 -3 182 -3 m 658 913 l 749 913 q 699 1066 749 1023 q 532 1111 646 1111 l 448 1111 l 448 1028 l 519 1028 q 629 1004 604 1028 q 658 913 658 975 z "},"ඔ":{"ha":796,"x_min":41,"x_max":755,"o":"m 243 -3 q 399 71 346 -1 q 553 -3 450 -1 q 728 87 675 -3 q 755 191 755 133 l 755 700 q 613 991 755 925 q 427 1024 541 1024 l 427 932 q 631 848 581 932 q 663 694 663 791 l 663 199 q 617 109 663 142 q 549 88 589 88 q 446 159 472 88 q 438 199 438 180 l 438 264 l 359 264 l 359 199 q 315 109 359 142 q 247 88 285 88 q 141 160 168 88 q 134 199 134 180 l 134 481 q 184 557 134 541 q 206 560 195 560 q 271 517 255 560 q 277 486 277 502 l 277 425 q 345 321 277 349 q 392 312 366 312 q 498 369 465 312 q 514 431 514 396 l 514 636 l 439 636 l 439 439 q 403 396 439 403 q 393 395 397 395 q 349 427 357 395 q 347 439 347 434 l 347 499 q 266 635 347 598 q 201 648 235 648 q 69 583 117 648 q 41 487 41 541 l 41 191 q 134 23 41 75 q 243 -3 182 -3 m 138 742 q 236 905 138 852 q 350 932 289 932 l 350 1024 q 133 944 225 1024 q 47 765 49 869 l 138 742 z "},"ප":{"ha":844,"x_min":42,"x_max":803,"o":"m 42 640 l 125 613 q 251 684 153 682 q 369 609 340 684 q 378 556 378 585 l 378 545 l 264 545 q 52 416 88 545 q 42 332 42 378 l 134 332 q 193 448 134 423 q 270 461 224 461 l 572 461 q 701 396 681 461 q 709 332 709 372 l 802 332 q 694 528 802 490 q 570 545 647 545 l 465 545 l 465 556 q 530 670 465 637 q 593 684 559 684 q 719 613 693 682 l 803 640 q 618 768 758 757 q 594 769 606 769 q 430 701 490 769 q 422 690 426 696 q 250 769 359 765 q 53 665 107 769 q 42 640 46 652 m 382 -11 l 463 -11 q 776 125 712 -11 q 802 264 802 182 l 709 264 q 597 95 709 129 q 467 80 545 80 l 378 80 q 163 152 212 80 q 134 264 134 195 l 42 264 q 178 22 42 79 q 382 -11 255 -11 z "},"ඵ":{"ha":751,"x_min":42,"x_max":711,"o":"m 326 -1 l 326 92 q 156 175 208 92 q 133 251 133 212 q 205 380 133 351 q 343 397 251 397 l 423 397 l 423 486 q 330 636 423 591 q 235 658 286 658 q 83 586 130 658 q 64 543 71 566 l 138 522 q 235 579 163 578 q 332 529 304 579 q 345 481 345 507 q 119 431 186 481 q 100 415 109 423 q 42 250 42 362 q 136 62 42 137 q 326 -1 217 -1 m 330 856 q 438 652 330 709 q 548 625 486 629 l 548 697 q 407 798 434 701 q 399 856 399 825 l 399 932 q 595 821 553 932 q 616 675 616 765 l 616 331 q 401 92 613 94 l 401 -1 q 705 243 669 -1 q 711 331 711 285 l 711 701 q 427 1023 711 1009 q 399 1024 414 1024 l 330 1024 l 330 856 z "},"ර":{"ha":709,"x_min":41,"x_max":669,"o":"m 41 321 q 208 12 41 79 q 321 -8 259 -8 l 321 85 q 133 319 134 88 l 133 568 q 156 700 133 658 q 227 781 178 741 l 536 1050 l 433 1076 l 155 838 q 41 613 46 747 q 41 579 41 600 l 41 321 m 218 677 l 218 675 l 411 675 q 563 581 530 675 q 576 476 576 538 l 576 319 q 472 98 576 136 q 397 87 439 87 l 397 -7 q 647 156 594 -7 q 669 319 669 224 l 669 492 q 437 765 666 764 l 307 765 l 218 677 z "},"ස":{"ha":922,"x_min":41,"x_max":882,"o":"m 100 198 q 197 28 100 84 q 319 -3 251 -3 q 490 80 434 -1 q 663 -3 548 -1 q 849 85 791 -3 q 882 198 882 134 l 882 264 l 789 264 l 789 202 q 712 96 789 121 q 663 90 689 90 q 543 157 571 90 q 534 203 534 179 l 534 264 l 448 264 l 448 203 q 368 96 448 119 q 319 90 345 90 q 201 156 229 90 q 193 202 193 178 l 193 264 l 100 264 l 100 198 m 111 640 l 194 613 q 321 684 222 682 q 438 610 408 684 q 448 556 448 585 l 448 545 l 41 545 l 41 461 l 129 461 q 100 382 103 444 l 100 332 l 193 332 q 193 336 193 334 q 193 346 193 339 q 193 358 193 353 q 193 370 193 363 q 195 380 194 376 l 195 384 q 263 460 198 454 q 281 461 271 461 l 703 461 q 785 403 774 461 q 787 385 787 393 l 787 382 q 788 374 788 378 q 788 363 788 369 q 789 353 788 358 q 789 344 789 349 q 789 336 789 339 l 789 332 l 882 332 l 882 387 q 709 545 879 544 l 536 545 l 536 556 q 601 670 536 639 q 663 684 629 684 q 789 613 764 682 l 872 640 q 694 768 830 754 q 663 769 678 769 q 500 701 559 769 q 492 690 496 696 q 320 769 430 765 q 121 662 176 769 q 111 640 115 651 z "},"ශ":{"ha":959,"x_min":41,"x_max":918,"o":"m 662 -11 q 894 140 834 -11 q 918 286 918 203 l 918 468 q 792 734 918 665 q 662 765 736 765 l 662 671 q 822 522 799 671 q 826 464 826 494 l 826 286 q 712 90 826 121 q 662 83 688 83 l 662 -11 m 297 -11 l 297 83 q 140 217 167 83 q 133 286 133 250 l 133 464 q 258 667 133 643 q 297 671 277 671 l 297 765 q 65 614 125 765 q 41 468 41 551 l 41 286 q 167 20 41 90 q 297 -11 222 -11 m 343 357 l 408 357 q 518 220 517 355 q 373 83 515 84 l 373 -11 q 597 144 563 -11 q 604 206 604 174 q 769 319 621 317 l 769 397 q 585 338 642 396 q 448 429 545 425 l 435 429 l 435 486 q 571 671 435 661 q 586 671 579 671 l 586 765 q 354 586 397 765 q 343 484 343 540 l 343 357 z "},"ෂ":{"ha":856,"x_min":41,"x_max":815,"o":"m 49 640 l 132 613 q 258 684 160 682 q 376 609 347 684 q 385 556 385 585 l 385 547 l 263 547 q 52 419 88 547 q 41 332 41 381 l 133 332 q 189 449 133 423 q 269 463 220 463 l 503 463 q 370 267 388 392 q 368 228 368 247 l 458 229 q 620 454 458 365 q 629 460 625 457 q 719 385 705 449 q 723 332 723 363 l 815 332 q 708 529 815 490 q 583 547 661 547 l 472 547 l 472 556 q 537 670 472 637 q 600 684 566 684 q 726 613 701 682 l 810 640 q 625 768 765 757 q 601 769 613 769 q 437 701 496 769 q 429 690 433 696 q 256 769 369 768 q 60 665 114 769 q 49 640 53 652 m 381 -11 l 476 -11 q 789 125 726 -11 q 815 264 815 182 l 723 264 q 613 95 723 130 q 480 80 562 80 l 377 80 q 161 152 210 80 q 133 264 133 195 l 41 264 q 176 22 41 79 q 381 -11 254 -11 z "},"ත":{"ha":1035,"x_min":41,"x_max":994,"o":"m 41 250 q 60 252 49 252 q 121 201 94 252 q 133 176 125 193 q 155 133 146 148 q 419 -7 240 -5 q 655 118 587 -7 q 688 255 688 179 q 620 467 688 403 q 514 522 579 505 l 441 461 q 589 351 563 431 q 598 258 598 317 q 518 109 598 155 q 418 84 475 84 q 227 183 290 84 q 197 237 216 201 q 148 311 168 294 l 502 608 q 675 670 582 670 q 856 582 792 670 q 902 423 902 517 l 902 266 q 800 98 902 118 q 747 92 777 92 l 747 -1 q 975 133 930 -1 q 994 266 993 186 l 994 429 q 853 718 994 631 q 686 762 780 762 q 458 688 564 761 q 320 765 410 751 q 286 768 302 768 q 117 686 180 768 q 77 608 91 651 l 160 582 q 286 678 203 671 q 388 632 350 677 l 41 339 l 41 250 z "},"ථ":{"ha":745,"x_min":41,"x_max":704,"o":"m 323 856 q 433 652 323 709 q 543 625 480 629 l 543 697 q 397 807 422 701 q 392 856 392 830 l 393 932 q 589 821 547 932 q 609 675 609 765 l 609 331 q 395 92 606 94 l 395 -1 q 699 243 662 -1 q 704 331 704 285 l 704 701 q 433 1023 704 1004 q 393 1024 414 1024 l 323 1024 l 323 856 m 41 363 l 41 274 q 118 77 41 159 q 319 -1 194 -1 l 319 92 q 157 183 206 92 q 133 279 133 227 l 133 363 q 231 532 133 488 q 319 548 270 548 l 319 639 q 53 460 103 639 q 41 363 41 414 z "},"ට":{"ha":750,"x_min":41,"x_max":709,"o":"m 47 363 q 167 602 47 534 q 326 639 232 639 l 326 548 q 152 439 190 548 q 140 363 140 404 l 140 279 q 216 123 140 178 q 326 91 263 91 l 326 -1 q 84 132 159 -1 q 47 274 47 199 l 47 363 m 401 -1 l 401 91 q 608 245 576 91 q 616 330 616 283 l 616 694 q 464 926 616 898 q 401 932 435 932 l 401 1024 q 699 811 655 1024 q 709 700 709 761 l 709 326 q 401 -1 707 0 m 41 765 q 146 960 41 880 q 326 1024 231 1024 l 326 932 q 176 863 235 932 q 132 742 132 810 l 41 765 z "},"ඨ":{"ha":804,"x_min":53,"x_max":764,"o":"m 260 -3 q 410 71 361 -1 q 566 -3 461 -1 q 736 87 685 -3 q 764 191 764 133 l 764 701 q 492 1023 764 1004 q 453 1024 473 1024 l 384 1024 l 384 856 q 492 652 384 709 q 602 625 540 629 l 602 697 q 458 804 483 701 q 453 856 453 829 l 453 932 q 650 821 608 932 q 670 675 670 765 l 670 199 q 625 110 670 142 q 557 90 597 90 q 454 163 479 90 q 448 199 448 182 l 448 264 l 369 264 l 369 199 q 324 109 369 141 q 258 90 297 90 q 153 163 178 90 q 146 199 146 182 l 146 393 q 214 533 146 490 q 309 557 254 557 l 357 557 l 357 648 l 309 648 q 68 495 118 648 q 53 399 53 450 l 53 191 q 146 24 53 76 q 260 -3 197 -3 z "},"උ":{"ha":747,"x_min":41,"x_max":772,"o":"m 439 -136 q 670 -8 618 -136 q 682 30 678 11 l 772 5 q 492 -225 728 -202 q 439 -228 467 -228 l 439 -136 m 174 629 q 315 761 202 720 q 427 780 369 780 q 648 681 575 780 q 696 532 692 618 l 696 446 l 363 446 q 145 289 183 446 q 133 180 133 240 l 133 115 q 281 -115 133 -52 q 363 -137 327 -136 l 363 -229 q 151 -144 245 -229 q 41 115 41 -43 l 41 180 q 362 538 43 537 l 606 538 q 490 685 595 654 q 429 693 460 693 q 282 643 336 693 q 255 600 262 623 l 174 629 z "},"ඌ":{"ha":1279,"x_min":41,"x_max":1245,"o":"m 439 -136 q 670 -8 618 -136 q 682 30 678 11 l 772 5 q 492 -225 728 -202 q 439 -228 467 -228 l 439 -136 m 174 629 q 315 761 202 720 q 427 780 369 780 q 648 681 575 780 q 696 532 692 618 l 696 446 l 363 446 q 145 289 183 446 q 133 180 133 240 l 133 115 q 281 -115 133 -52 q 363 -137 327 -136 l 363 -229 q 151 -144 245 -229 q 41 115 41 -43 l 41 180 q 362 538 43 537 l 606 538 q 490 685 595 654 q 429 693 460 693 q 282 643 336 693 q 255 600 262 623 l 174 629 m 1010 -11 q 825 69 891 -11 q 776 209 776 126 l 776 274 l 863 274 l 863 208 q 944 92 863 125 q 1013 79 978 79 q 1139 140 1101 79 q 1158 208 1158 170 l 1158 616 q 1114 677 1158 666 q 1099 678 1105 678 q 1042 637 1055 678 q 1039 616 1039 627 l 1039 547 q 967 427 1039 460 q 910 415 940 415 q 796 477 833 415 q 776 557 776 513 l 776 765 l 849 765 l 849 571 q 892 511 849 524 q 909 510 902 510 q 966 549 952 510 q 968 571 968 560 l 968 629 q 1046 758 968 723 q 1105 770 1074 770 q 1222 707 1183 770 q 1245 620 1245 669 l 1245 209 q 1135 19 1245 79 q 1010 -11 1078 -11 z "},"ව":{"ha":754,"x_min":41,"x_max":713,"o":"m 328 -1 q 106 95 190 -1 q 45 250 45 164 q 103 415 46 363 q 312 481 164 476 q 347 481 328 481 q 283 571 347 547 q 237 579 260 579 q 145 529 170 579 q 142 522 144 525 l 66 543 q 194 654 92 633 q 237 658 216 658 q 395 586 342 658 q 426 486 426 543 l 426 397 l 346 397 q 164 351 206 397 q 136 251 136 317 q 206 125 136 172 q 328 91 258 91 l 328 -1 m 404 -1 l 404 91 q 620 311 610 91 q 620 331 620 321 l 620 692 q 472 925 620 894 q 404 932 441 932 l 404 1024 q 711 755 686 1024 q 713 700 713 728 l 713 331 q 481 4 713 41 q 404 -1 445 -1 m 41 765 q 146 960 41 880 q 328 1024 232 1024 l 328 932 q 176 863 237 932 q 132 742 132 810 l 41 765 z "},"ය":{"ha":864,"x_min":41,"x_max":822,"o":"m 41 198 q 136 28 41 83 q 259 -3 190 -3 q 430 80 374 -1 q 604 -3 488 -1 q 789 85 731 -3 q 822 198 822 134 l 822 264 l 730 264 l 730 202 q 652 96 730 121 q 602 90 629 90 q 484 155 513 90 q 475 203 475 178 l 475 264 l 387 264 l 387 203 q 307 96 387 119 q 259 90 285 90 q 141 156 170 90 q 133 202 133 178 l 133 264 l 41 264 l 41 198 m 399 461 l 643 461 q 724 425 709 461 q 730 388 730 410 l 730 332 l 822 332 l 822 393 q 727 536 822 510 q 650 545 693 545 l 488 545 q 563 675 488 655 q 610 681 583 681 q 738 613 709 680 l 818 640 q 610 766 764 765 q 433 678 488 766 q 399 544 399 623 l 399 461 m 41 332 l 133 332 l 133 453 q 247 659 133 613 q 334 675 286 675 l 359 675 l 359 764 l 336 764 q 98 655 179 764 q 41 461 41 578 l 41 332 z "},"෴":{"ha":2063,"x_min":203,"x_max":1918,"o":"m 808 628 l 882 589 q 671 191 713 259 q 515 27 593 65 q 366 0 457 0 l 203 0 l 203 81 l 366 81 q 524 134 465 81 q 692 396 586 191 q 808 628 722 453 m 996 644 l 1069 605 l 772 0 l 697 41 l 996 644 m 1107 503 l 1180 463 l 951 0 l 876 41 l 1107 503 m 1133 0 l 1058 41 l 1219 370 q 1453 208 1451 208 q 1759 81 1634 87 q 1774 81 1767 81 l 1918 81 l 1918 0 l 1773 0 q 1411 132 1611 0 q 1252 245 1360 165 l 1133 0 z "},"ඏ":{"ha":1234,"x_min":41,"x_max":1194,"o":"m 578 -11 l 658 -11 q 948 87 871 -9 q 1010 1 956 27 q 1057 -8 1034 -8 q 1149 45 1118 -8 q 1158 64 1154 54 q 1194 274 1194 144 l 1105 274 q 1100 201 1105 248 q 1057 210 1080 210 q 990 189 1020 209 q 997 264 997 228 l 905 264 q 795 95 905 130 q 662 80 743 80 l 574 80 q 358 152 407 80 q 330 264 330 195 l 237 264 q 244 189 237 217 q 179 210 213 210 q 134 201 153 210 q 129 274 129 250 l 41 274 q 76 62 41 142 q 153 -5 96 8 q 179 -8 167 -8 q 273 45 240 -8 q 286 85 283 65 q 578 -11 362 -11 m 237 332 l 330 332 q 388 448 330 423 q 465 461 419 461 l 768 461 q 897 396 876 461 q 905 332 905 372 l 997 332 q 890 528 997 490 q 765 545 842 545 l 661 545 l 661 556 q 726 670 661 637 q 788 684 754 684 q 914 613 890 682 l 916 613 l 948 624 q 996 632 975 632 q 1103 526 1086 632 q 1105 481 1105 505 l 1105 340 l 1194 340 l 1194 488 q 1104 693 1194 631 q 1004 723 1059 723 q 947 716 978 723 q 789 769 886 769 q 625 701 685 769 q 617 690 621 696 q 445 769 557 768 q 288 716 349 768 q 232 723 256 723 q 71 624 122 723 q 41 488 41 566 l 41 340 l 129 340 l 129 481 q 239 632 141 623 q 283 625 262 632 l 297 621 l 319 613 l 320 613 q 446 684 349 682 q 564 609 536 684 q 574 556 574 585 l 574 545 l 460 545 q 247 416 283 545 q 237 332 237 378 z "},"ඐ":{"ha":1782,"x_min":41,"x_max":1750,"o":"m 41 274 q 76 62 41 142 q 153 -5 96 8 q 179 -8 167 -8 q 273 45 240 -8 q 286 85 283 65 q 578 -11 362 -11 l 658 -11 q 948 87 871 -9 q 1010 1 956 27 q 1057 -8 1034 -8 q 1149 45 1118 -8 q 1158 64 1154 54 q 1194 274 1194 144 l 1105 274 q 1100 201 1105 248 q 1057 210 1080 210 q 990 189 1020 209 q 997 264 997 228 l 905 264 q 795 95 905 130 q 662 80 743 80 l 574 80 q 358 152 407 80 q 330 264 330 195 l 237 264 q 244 189 237 217 q 179 210 213 210 q 134 201 153 210 q 129 274 129 250 l 41 274 m 237 332 l 330 332 q 388 448 330 423 q 465 461 419 461 l 768 461 q 897 396 876 461 q 905 332 905 372 l 997 332 q 890 528 997 490 q 765 545 842 545 l 661 545 l 661 556 q 726 670 661 637 q 788 684 754 684 q 914 613 890 682 l 916 613 l 948 624 q 996 632 975 632 q 1103 526 1086 632 q 1105 481 1105 505 l 1105 340 l 1194 340 l 1194 488 q 1104 693 1194 631 q 1004 723 1059 723 q 947 716 978 723 q 789 769 886 769 q 625 701 685 769 q 617 690 621 696 q 445 769 557 768 q 288 716 349 768 q 232 723 256 723 q 71 624 122 723 q 41 488 41 566 l 41 340 l 129 340 l 129 481 q 239 632 141 623 q 283 625 262 632 l 297 621 l 319 613 l 320 613 q 446 684 349 682 q 564 609 536 684 q 574 556 574 585 l 574 545 l 460 545 q 247 416 283 545 q 237 332 237 378 m 1514 -11 q 1699 68 1632 -11 q 1750 209 1750 126 l 1750 620 q 1670 757 1748 720 q 1609 770 1640 770 q 1492 707 1529 770 q 1473 629 1473 673 l 1473 571 q 1430 511 1473 524 q 1413 510 1420 510 q 1356 549 1370 510 q 1354 571 1354 560 l 1354 765 l 1279 765 l 1279 557 q 1356 427 1279 461 q 1413 415 1383 415 q 1525 475 1488 415 q 1544 547 1544 506 l 1544 616 q 1588 677 1544 666 q 1603 678 1596 678 q 1659 637 1647 678 q 1662 616 1662 627 l 1662 208 q 1580 90 1662 121 q 1516 79 1549 79 q 1389 136 1431 79 q 1366 208 1366 168 l 1366 274 l 1279 274 l 1279 209 q 1390 19 1279 79 q 1514 -11 1447 -11 z "},"ඍ":{"ha":1332,"x_min":41,"x_max":1298,"o":"m 1104 0 q 1259 75 1200 0 q 1298 194 1298 127 l 1298 541 q 1199 750 1298 699 q 1114 769 1161 769 l 986 769 l 986 681 l 1108 681 q 1208 582 1191 681 q 1213 534 1213 559 l 1213 194 q 1158 99 1213 130 q 1104 84 1134 84 q 1009 138 1042 84 q 994 194 994 165 q 1050 289 994 258 q 1104 302 1076 302 l 1145 302 l 1145 385 l 1104 385 q 941 300 997 385 q 910 194 910 252 q 993 34 910 91 q 1104 0 1043 0 m 41 198 q 136 28 41 83 q 259 -3 190 -3 q 430 80 374 -1 q 604 -3 488 -1 q 789 85 731 -3 q 822 198 822 134 l 822 264 l 730 264 l 730 202 q 652 96 730 121 q 602 90 629 90 q 484 155 513 90 q 475 203 475 178 l 475 264 l 387 264 l 387 203 q 307 96 387 119 q 259 90 285 90 q 141 156 170 90 q 133 202 133 178 l 133 264 l 41 264 l 41 198 m 50 640 l 134 613 q 260 684 160 682 q 377 610 347 684 q 387 556 387 585 l 387 545 l 213 545 q 41 387 42 543 l 41 331 l 133 331 l 133 380 q 205 461 134 456 q 220 461 213 461 l 643 461 q 730 387 726 461 q 730 380 730 382 l 730 331 l 822 331 l 822 387 q 650 545 819 544 l 475 545 l 475 556 q 540 670 475 639 q 602 684 568 684 q 728 613 703 682 l 811 640 q 633 768 769 754 q 602 769 617 769 q 438 699 496 769 q 431 690 434 694 q 259 769 369 765 q 60 662 115 769 q 50 640 54 651 z "},"ඎ":{"ha":1801,"x_min":41,"x_max":1767,"o":"m 41 198 q 136 28 41 83 q 259 -3 190 -3 q 430 80 374 -1 q 604 -3 488 -1 q 789 85 731 -3 q 822 198 822 134 l 822 264 l 730 264 l 730 202 q 652 96 730 121 q 602 90 629 90 q 484 155 513 90 q 475 203 475 178 l 475 264 l 387 264 l 387 203 q 307 96 387 119 q 259 90 285 90 q 141 156 170 90 q 133 202 133 178 l 133 264 l 41 264 l 41 198 m 50 640 l 134 613 q 260 684 160 682 q 377 610 347 684 q 387 556 387 585 l 387 545 l 213 545 q 41 387 42 543 l 41 331 l 133 331 l 133 380 q 205 461 134 456 q 220 461 213 461 l 643 461 q 730 387 726 461 q 730 380 730 382 l 730 331 l 822 331 l 822 387 q 650 545 819 544 l 475 545 l 475 556 q 540 670 475 639 q 602 684 568 684 q 728 613 703 682 l 811 640 q 633 768 769 754 q 602 769 617 769 q 438 699 496 769 q 431 690 434 694 q 259 769 369 765 q 60 662 115 769 q 50 640 54 651 m 1104 0 q 1259 75 1200 0 q 1298 194 1298 127 l 1298 541 q 1199 750 1298 699 q 1114 769 1161 769 l 986 769 l 986 681 l 1108 681 q 1208 582 1191 681 q 1213 534 1213 559 l 1213 194 q 1158 99 1213 130 q 1104 84 1134 84 q 1009 138 1042 84 q 994 194 994 165 q 1050 289 994 258 q 1104 302 1076 302 l 1145 302 l 1145 385 l 1104 385 q 941 300 997 385 q 910 194 910 252 q 993 34 910 91 q 1104 0 1043 0 m 1573 0 q 1728 75 1670 0 q 1767 194 1767 127 l 1767 541 q 1670 749 1767 696 q 1581 769 1630 769 l 1455 769 l 1455 681 l 1577 681 q 1678 582 1660 681 q 1682 534 1682 559 l 1682 194 q 1628 99 1682 130 q 1573 84 1603 84 q 1478 138 1511 84 q 1463 194 1463 165 q 1519 289 1463 258 q 1573 302 1545 302 l 1613 302 l 1613 385 l 1573 385 q 1411 300 1466 385 q 1379 194 1379 252 q 1462 34 1379 91 q 1573 0 1512 0 z "},"/":{"ha":441,"x_min":58,"x_max":382,"o":"m 58 -22 l 296 981 l 382 981 l 146 -22 l 58 -22 z "}," ":{"ha":321,"x_min":0,"x_max":0,"o":""},"£":{"ha":538,"x_min":27,"x_max":509,"o":"m 27 423 l 27 502 l 109 502 l 109 735 q 191 917 109 857 q 315 955 243 955 l 317 955 q 401 939 365 955 q 509 830 479 909 l 437 795 q 323 871 395 869 q 212 804 244 871 q 198 739 198 774 l 198 505 l 393 505 l 393 426 l 198 426 l 198 79 l 507 79 l 507 0 l 109 0 l 109 423 l 27 423 z "},"∑":{"ha":802,"x_min":41,"x_max":716,"o":"m 254 860 l 191 940 l 191 952 l 716 952 l 716 860 l 254 860 m 41 -190 l 41 -94 l 407 399 l 41 879 l 41 952 l 102 952 l 525 397 l 157 -95 l 716 -94 l 716 -190 l 41 -190 z "},"t":{"ha":369,"x_min":24,"x_max":365,"o":"m 24 621 l 24 708 l 113 708 l 113 955 l 203 955 l 203 708 l 289 708 l 289 621 l 203 621 l 203 221 q 271 98 203 121 q 334 90 298 90 l 346 90 l 365 0 l 328 0 q 126 125 163 1 q 113 235 113 170 l 113 621 l 24 621 z "},"ť":{"ha":452,"x_min":24,"x_max":410,"o":"m 273 766 l 323 972 l 410 972 l 359 766 l 273 766 m 24 621 l 24 708 l 113 708 l 113 955 l 203 955 l 203 708 l 289 708 l 289 621 l 203 621 l 203 221 q 271 98 203 121 q 334 90 298 90 l 346 90 l 365 0 l 328 0 q 126 125 163 1 q 113 235 113 170 l 113 621 l 24 621 z "},"þ":{"ha":572,"x_min":41,"x_max":537,"o":"m 41 -247 l 41 949 l 127 949 l 127 -247 l 41 -247 m 187 618 l 187 701 l 309 701 q 500 609 431 701 q 537 510 537 557 l 537 189 q 476 61 537 118 q 315 0 412 0 l 197 0 l 197 81 l 317 81 q 441 151 408 83 q 453 209 453 176 l 453 498 q 380 605 453 572 q 309 618 347 618 l 187 618 z "},"¾":{"ha":827,"x_min":50,"x_max":799,"o":"m 214 471 l 214 529 q 290 589 279 529 q 292 606 292 598 q 250 675 292 656 q 208 684 231 684 l 191 684 l 191 736 l 208 736 q 290 800 279 736 q 292 814 292 808 q 239 888 292 875 q 214 891 227 891 l 214 949 q 332 883 296 949 q 349 817 349 852 q 297 711 347 745 q 349 602 349 674 q 282 487 349 522 q 214 471 251 471 m 680 0 l 680 475 l 739 475 l 739 138 l 776 138 l 776 83 l 739 83 l 739 0 l 680 0 m 464 83 l 464 138 l 647 452 l 647 339 l 530 138 l 647 138 l 647 83 l 464 83 m 50 597 l 106 608 q 168 530 113 540 q 176 529 172 529 l 176 469 q 66 543 102 475 q 50 597 53 568 m 50 823 q 117 932 56 895 q 176 949 145 947 l 176 891 q 122 859 142 891 q 106 811 109 838 l 50 823 m 148 0 l 734 949 l 799 949 l 216 0 l 148 0 z "},"³":{"ha":308,"x_min":26,"x_max":281,"o":"m 160 525 l 160 572 q 228 616 210 575 q 233 644 233 629 q 184 708 233 693 q 149 713 168 713 l 149 761 q 231 815 217 761 q 233 833 233 825 q 180 899 233 886 q 160 902 170 902 l 160 949 q 266 891 233 949 q 281 833 281 864 q 237 736 279 768 q 281 643 281 705 q 220 540 281 572 q 160 525 193 525 m 26 629 l 71 639 q 74 622 72 629 q 79 608 76 614 q 86 597 83 602 q 94 589 90 593 q 102 583 98 586 q 110 578 106 581 q 117 575 114 576 q 122 573 119 574 q 127 572 125 572 l 129 572 l 129 525 q 35 589 64 529 q 26 629 27 609 m 26 845 q 79 935 28 903 q 129 949 102 948 l 129 902 q 84 875 102 902 q 71 837 73 859 l 26 845 z "},"˜":{"ha":452,"x_min":35,"x_max":416,"o":"m 35 172 l 35 250 q 130 279 88 279 q 227 248 164 279 q 308 224 274 224 q 416 262 355 225 l 416 186 q 302 148 354 148 q 202 179 266 148 q 125 202 156 202 q 35 172 83 201 z "},"™":{"ha":605,"x_min":35,"x_max":511,"o":"m 35 910 l 35 948 l 217 948 l 217 910 l 146 910 l 146 658 l 106 658 l 106 910 l 35 910 m 247 658 l 247 867 l 254 867 l 288 787 l 288 658 l 247 658 m 248 930 l 248 948 l 283 948 l 373 728 l 446 888 l 454 888 l 454 815 l 385 658 l 362 658 l 248 930 m 472 658 l 472 948 l 511 948 l 511 658 l 472 658 z "},"²":{"ha":311,"x_min":23,"x_max":283,"o":"m 23 846 q 79 935 27 903 q 132 951 104 949 l 132 903 q 83 875 102 903 q 69 837 72 859 l 23 846 m 31 526 l 31 575 l 277 575 l 277 526 l 31 526 m 31 602 q 136 732 31 677 q 165 749 163 747 q 235 819 227 785 q 236 833 236 826 q 197 897 236 878 q 161 903 182 903 l 161 951 q 278 871 256 951 q 283 833 283 852 q 201 715 282 762 q 175 701 193 709 q 94 635 109 666 q 87 602 87 618 l 31 602 z "},"u":{"ha":624,"x_min":52,"x_max":572,"o":"m 52 191 l 52 719 l 142 719 l 142 202 q 195 111 142 151 q 283 83 236 83 l 283 -7 q 85 94 153 -7 q 52 191 52 145 m 342 -7 l 342 83 q 464 146 422 83 q 481 202 481 175 l 481 719 l 572 719 l 572 191 q 517 69 572 130 q 342 -7 446 -5 z "},"ú":{"ha":624,"x_min":52,"x_max":572,"o":"m 307 802 l 357 1008 l 444 1008 l 369 802 l 307 802 m 52 191 l 52 719 l 142 719 l 142 202 q 195 111 142 151 q 283 83 236 83 l 283 -7 q 85 94 153 -7 q 52 191 52 145 m 342 -7 l 342 83 q 464 146 422 83 q 481 202 481 175 l 481 719 l 572 719 l 572 191 q 517 69 572 130 q 342 -7 446 -5 z "},"û":{"ha":624,"x_min":52,"x_max":572,"o":"m 180 802 l 282 1008 l 339 1008 l 442 802 l 376 802 l 311 933 l 247 802 l 180 802 m 52 191 l 52 719 l 142 719 l 142 202 q 195 111 142 151 q 283 83 236 83 l 283 -7 q 85 94 153 -7 q 52 191 52 145 m 342 -7 l 342 83 q 464 146 422 83 q 481 202 481 175 l 481 719 l 572 719 l 572 191 q 517 69 572 130 q 342 -7 446 -5 z "},"ü":{"ha":624,"x_min":52,"x_max":572,"o":"m 175 857 q 210 907 175 894 q 231 911 221 911 q 283 876 270 911 q 286 857 286 867 q 250 804 286 818 q 231 802 240 802 q 179 836 194 802 q 175 857 175 846 m 338 857 q 373 907 338 894 q 393 911 384 911 q 446 876 433 911 q 449 857 449 867 q 412 804 449 818 q 393 802 403 802 q 342 836 357 802 q 338 857 338 846 m 52 191 l 52 719 l 142 719 l 142 202 q 195 111 142 151 q 283 83 236 83 l 283 -7 q 85 94 153 -7 q 52 191 52 145 m 342 -7 l 342 83 q 464 146 422 83 q 481 202 481 175 l 481 719 l 572 719 l 572 191 q 517 69 572 130 q 342 -7 446 -5 z "},"ù":{"ha":624,"x_min":52,"x_max":572,"o":"m 205 1008 l 292 1008 l 342 802 l 279 802 l 205 1008 m 52 191 l 52 719 l 142 719 l 142 202 q 195 111 142 151 q 283 83 236 83 l 283 -7 q 85 94 153 -7 q 52 191 52 145 m 342 -7 l 342 83 q 464 146 422 83 q 481 202 481 175 l 481 719 l 572 719 l 572 191 q 517 69 572 130 q 342 -7 446 -5 z "},"ű":{"ha":624,"x_min":52,"x_max":572,"o":"m 349 802 l 399 1008 l 486 1008 l 411 802 l 349 802 m 202 802 l 252 1008 l 339 1008 l 264 802 l 202 802 m 52 191 l 52 719 l 142 719 l 142 202 q 195 111 142 151 q 283 83 236 83 l 283 -7 q 85 94 153 -7 q 52 191 52 145 m 342 -7 l 342 83 q 464 146 422 83 q 481 202 481 175 l 481 719 l 572 719 l 572 191 q 517 69 572 130 q 342 -7 446 -5 z "},"ū":{"ha":624,"x_min":52,"x_max":572,"o":"m 98 803 l 98 863 l 526 863 l 526 803 l 98 803 m 52 191 l 52 719 l 142 719 l 142 202 q 195 111 142 151 q 283 83 236 83 l 283 -7 q 85 94 153 -7 q 52 191 52 145 m 342 -7 l 342 83 q 464 146 422 83 q 481 202 481 175 l 481 719 l 572 719 l 572 191 q 517 69 572 130 q 342 -7 446 -5 z "},"_":{"ha":711,"x_min":50,"x_max":661,"o":"m 50 -201 l 661 -201 l 661 -278 l 50 -278 l 50 -201 z "},"­":{"ha":510,"x_min":31,"x_max":460,"o":"m 31 355 l 31 441 l 460 441 l 460 355 l 31 355 z "},"µ":{"ha":670,"x_min":53,"x_max":617,"o":"m 53 0 l 138 0 l 138 320 q 243 286 202 290 q 278 283 262 283 l 278 366 q 152 406 193 366 q 138 433 140 419 l 138 947 l 53 947 l 53 0 m 335 283 q 505 332 439 285 q 617 286 553 289 l 617 369 q 562 408 567 369 q 560 433 560 419 l 560 949 l 473 949 l 473 433 q 412 378 473 399 q 335 366 376 366 l 335 283 z "},"Ģ":{"ha":696,"x_min":53,"x_max":643,"o":"m 263 -296 l 313 -90 l 400 -90 l 350 -296 l 263 -296 m 53 260 l 53 711 q 121 865 57 792 q 323 956 201 956 l 323 865 q 182 792 235 865 q 146 689 146 745 l 146 260 q 252 104 146 155 q 323 84 293 84 l 323 -7 q 160 50 240 -7 q 53 260 54 129 m 388 -7 l 388 84 q 492 137 437 84 q 551 258 549 193 l 551 392 l 388 392 l 388 479 l 643 479 l 643 239 q 559 75 643 156 q 388 -7 473 -5 m 388 865 l 388 956 q 572 869 491 958 q 643 700 643 791 l 553 667 q 552 697 553 690 q 450 849 545 803 q 388 865 415 865 z "},"ģ":{"ha":595,"x_min":37,"x_max":543,"o":"m 290 806 l 340 1012 l 427 1012 l 353 806 l 290 806 m 37 -250 l 60 -165 l 311 -165 q 441 -98 399 -161 q 456 -53 456 -75 l 456 57 q 326 3 396 3 l 326 83 q 430 136 387 83 q 456 198 456 167 l 456 525 q 387 623 456 589 q 326 639 354 639 l 326 723 q 449 678 393 723 q 456 671 453 674 l 456 723 l 543 723 l 543 -53 q 492 -171 543 -110 q 330 -250 426 -248 l 37 -250 m 49 197 l 49 530 q 103 652 50 593 q 266 723 170 722 l 266 639 q 155 575 195 639 q 137 526 137 549 l 137 198 q 183 117 137 153 q 266 87 221 87 l 266 3 q 79 106 142 3 q 49 197 49 155 z "},"Ķ":{"ha":665,"x_min":56,"x_max":640,"o":"m 227 -289 l 277 -83 l 363 -83 l 313 -289 l 227 -289 m 56 0 l 56 949 l 148 949 l 148 0 l 56 0 m 206 463 l 533 949 l 635 949 l 309 463 l 640 0 l 538 0 l 206 463 z "},"ķ":{"ha":637,"x_min":56,"x_max":610,"o":"m 213 -289 l 263 -83 l 350 -83 l 300 -289 l 213 -289 m 56 0 l 56 954 l 146 954 l 146 0 l 56 0 m 179 359 l 495 719 l 609 719 l 292 359 l 610 0 l 496 0 l 179 359 z "},"Ļ":{"ha":590,"x_min":56,"x_max":566,"o":"m 233 -289 l 283 -83 l 370 -83 l 320 -289 l 233 -289 m 56 0 l 56 949 l 148 949 l 148 91 l 566 91 l 566 0 l 56 0 z "},"ļ":{"ha":208,"x_min":8,"x_max":156,"o":"m 8 -293 l 58 -87 l 145 -87 l 95 -293 l 8 -293 m 62 0 l 62 954 l 156 954 l 156 0 l 62 0 z "},"Ņ":{"ha":718,"x_min":57,"x_max":661,"o":"m 279 -289 l 330 -83 l 416 -83 l 366 -289 l 279 -289 m 57 0 l 57 769 l 68 769 l 149 637 l 149 0 l 57 0 m 57 891 l 57 949 l 138 949 l 661 115 l 661 0 l 614 0 l 57 891 m 568 374 l 568 949 l 661 949 l 661 240 l 650 240 l 568 374 z "},"ņ":{"ha":624,"x_min":52,"x_max":572,"o":"m 233 -289 l 283 -83 l 370 -83 l 320 -289 l 233 -289 m 52 0 l 52 526 q 110 652 52 591 q 283 723 180 723 l 283 633 q 165 576 210 633 q 142 515 142 547 l 142 0 l 52 0 m 342 633 l 342 723 q 537 623 467 723 q 572 526 572 571 l 572 0 l 481 0 l 481 515 q 437 598 481 559 q 342 633 396 633 z "},"Ŗ":{"ha":689,"x_min":57,"x_max":651,"o":"m 274 -289 l 324 -83 l 411 -83 l 361 -289 l 274 -289 m 57 0 l 57 949 l 149 949 l 149 0 l 57 0 m 214 419 l 214 505 l 376 505 q 528 632 509 505 q 530 682 530 655 q 406 861 530 838 q 350 867 380 867 l 214 867 l 214 949 l 374 949 q 621 686 620 937 q 528 463 620 522 q 627 305 613 423 q 628 294 628 298 l 651 0 l 563 0 l 543 241 q 481 397 533 363 q 385 419 445 420 l 214 419 z "},"ŗ":{"ha":365,"x_min":7,"x_max":342,"o":"m 7 -289 l 57 -83 l 144 -83 l 94 -289 l 7 -289 m 57 0 l 57 720 l 148 720 l 148 613 q 243 703 176 671 q 327 722 283 722 l 342 722 l 320 635 q 193 553 248 633 q 148 416 148 487 l 148 0 l 57 0 z "},"Ş":{"ha":671,"x_min":37,"x_max":635,"o":"m 151 -244 l 151 -172 q 266 -109 235 -172 q 278 -54 278 -84 l 353 -54 q 282 -203 353 -149 q 151 -244 229 -244 m 37 214 l 121 244 q 148 171 127 202 q 192 123 168 140 q 238 97 216 107 q 275 84 260 87 l 290 83 l 290 -4 q 87 99 168 -4 q 37 214 38 161 m 47 694 q 174 913 47 838 q 290 949 236 949 l 290 863 q 194 817 241 860 q 138 690 140 765 q 271 555 138 598 q 373 529 305 544 q 461 506 437 514 q 617 378 582 463 q 635 278 635 335 q 544 73 635 160 q 355 -4 461 -4 l 355 83 q 473 137 412 84 q 543 281 541 198 q 399 430 543 387 q 301 453 366 439 q 214 475 235 467 q 68 590 102 519 q 47 694 47 635 m 355 863 l 355 949 q 555 841 475 949 q 597 750 591 791 l 510 722 q 482 787 502 758 q 441 829 463 815 q 401 851 420 842 q 369 861 381 860 l 355 863 z "},"ş":{"ha":578,"x_min":27,"x_max":551,"o":"m 214 -244 l 214 -172 q 330 -109 298 -172 q 342 -54 342 -84 l 416 -54 q 346 -203 416 -149 q 214 -244 293 -244 m 27 190 l 113 205 q 182 99 113 140 q 254 79 218 79 l 254 -7 q 64 84 129 -7 q 27 190 27 134 m 34 514 q 145 696 34 639 q 251 723 198 723 l 251 639 q 145 586 187 639 q 119 514 119 552 q 187 441 119 467 q 399 384 229 425 q 537 282 503 359 q 551 216 551 251 q 448 28 551 91 q 311 -7 387 -7 l 311 77 q 426 126 377 77 q 463 213 463 163 q 351 307 463 273 q 250 332 320 316 q 165 353 193 346 q 41 463 62 389 q 34 514 34 487 m 309 637 l 309 723 q 495 636 425 723 q 538 524 538 582 l 453 510 q 368 624 453 587 q 309 637 335 637 z "},"Ţ":{"ha":637,"x_min":26,"x_max":613,"o":"m 149 -244 l 149 -172 q 264 -109 233 -172 q 277 -54 277 -84 l 351 -54 q 281 -203 351 -149 q 149 -244 228 -244 m 26 860 l 26 949 l 613 949 l 613 860 l 365 860 l 365 0 l 273 0 l 273 860 l 26 860 z "},"ţ":{"ha":369,"x_min":24,"x_max":365,"o":"m 161 -241 l 161 -170 q 277 -106 245 -170 q 289 -52 289 -81 l 363 -52 q 293 -201 363 -146 q 161 -241 240 -241 m 24 621 l 24 708 l 113 708 l 113 955 l 203 955 l 203 708 l 289 708 l 289 621 l 203 621 l 203 221 q 271 98 203 121 q 334 90 298 90 l 346 90 l 365 0 l 328 0 q 126 125 163 1 q 113 235 113 170 l 113 621 l 24 621 z "},"Ș":{"ha":671,"x_min":37,"x_max":635,"o":"m 236 -293 l 286 -87 l 373 -87 l 323 -293 l 236 -293 m 37 214 l 121 244 q 148 171 127 202 q 192 123 168 140 q 238 97 216 107 q 275 84 260 87 l 290 83 l 290 -4 q 87 99 168 -4 q 37 214 38 161 m 47 694 q 174 913 47 838 q 290 949 236 949 l 290 863 q 194 817 241 860 q 138 690 140 765 q 271 555 138 598 q 373 529 305 544 q 461 506 437 514 q 617 378 582 463 q 635 278 635 335 q 544 73 635 160 q 355 -4 461 -4 l 355 83 q 473 137 412 84 q 543 281 541 198 q 399 430 543 387 q 301 453 366 439 q 214 475 235 467 q 68 590 102 519 q 47 694 47 635 m 355 863 l 355 949 q 555 841 475 949 q 597 750 591 791 l 510 722 q 482 787 502 758 q 441 829 463 815 q 401 851 420 842 q 369 861 381 860 l 355 863 z "},"ș":{"ha":578,"x_min":27,"x_max":551,"o":"m 189 -296 l 239 -90 l 326 -90 l 275 -296 l 189 -296 m 27 190 l 113 205 q 182 99 113 140 q 254 79 218 79 l 254 -7 q 64 84 129 -7 q 27 190 27 134 m 34 514 q 145 696 34 639 q 251 723 198 723 l 251 639 q 145 586 187 639 q 119 514 119 552 q 187 441 119 467 q 399 384 229 425 q 537 282 503 359 q 551 216 551 251 q 448 28 551 91 q 311 -7 387 -7 l 311 77 q 426 126 377 77 q 463 213 463 163 q 351 307 463 273 q 250 332 320 316 q 165 353 193 346 q 41 463 62 389 q 34 514 34 487 m 309 637 l 309 723 q 495 636 425 723 q 538 524 538 582 l 453 510 q 368 624 453 587 q 309 637 335 637 z "},"Ț":{"ha":637,"x_min":26,"x_max":613,"o":"m 224 -289 l 274 -83 l 361 -83 l 311 -289 l 224 -289 m 26 860 l 26 949 l 613 949 l 613 860 l 365 860 l 365 0 l 273 0 l 273 860 l 26 860 z "},"ț":{"ha":369,"x_min":24,"x_max":365,"o":"m 197 -289 l 247 -83 l 334 -83 l 283 -289 l 197 -289 m 24 621 l 24 708 l 113 708 l 113 955 l 203 955 l 203 708 l 289 708 l 289 621 l 203 621 l 203 221 q 271 98 203 121 q 334 90 298 90 l 346 90 l 365 0 l 328 0 q 126 125 163 1 q 113 235 113 170 l 113 621 l 24 621 z "},"ˉ":{"ha":564,"x_min":68,"x_max":496,"o":"m 68 723 l 68 783 l 496 783 l 496 723 l 68 723 z "},"ℓ":{"ha":254,"x_min":84,"x_max":293,"o":"m 84 239 l 84 948 l 174 948 l 174 239 q 269 87 174 104 q 293 84 281 84 l 293 -8 q 134 66 194 -8 q 84 239 84 133 z "},"Ω":{"ha":590,"x_min":31,"x_max":572,"o":"m 31 -1 l 31 53 l 127 53 q 53 178 64 106 q 52 193 52 186 l 52 511 q 107 632 52 574 q 274 701 175 701 l 274 618 q 151 548 189 618 q 136 494 136 519 l 136 210 q 183 117 136 159 q 274 81 224 81 l 274 -1 l 31 -1 m 335 -1 l 335 81 q 453 152 415 81 q 468 208 468 180 l 468 494 q 420 587 468 547 q 335 618 384 618 l 335 701 q 521 602 457 701 q 552 511 552 555 l 552 193 q 498 72 552 132 q 477 53 487 61 l 572 53 l 572 -1 l 335 -1 z "},"∆":{"ha":711,"x_min":60,"x_max":651,"o":"m 60 0 l 279 819 l 290 819 l 324 681 l 165 87 l 538 87 l 309 955 l 392 955 l 651 0 l 60 0 z "},"∕":{"ha":670,"x_min":9,"x_max":659,"o":"m 9 -1 l 595 951 l 659 951 l 76 -1 l 9 -1 z "},"∙":{"ha":339,"x_min":50,"x_max":183,"o":"m 50 562 q 90 623 50 605 q 117 628 103 628 q 178 589 160 628 q 183 562 183 575 q 144 500 183 518 q 117 495 130 495 q 56 534 73 495 q 50 562 50 548 z "},"圓":{"ha":1143,"x_min":68,"x_max":1081,"o":"m 68 662 l 68 947 l 113 947 l 113 827 l 137 827 l 137 783 l 113 783 l 113 662 l 68 662 m 159 783 l 159 827 l 183 827 l 183 947 l 229 947 l 229 662 l 183 662 l 183 783 l 159 783 m 269 662 l 269 947 l 315 947 l 315 662 l 269 662 m 332 819 l 393 947 l 439 947 l 378 819 l 441 662 l 395 662 l 332 819 m 483 214 l 568 244 q 701 91 589 127 q 736 83 736 83 l 736 -64 l 681 -64 l 681 4 q 515 125 576 27 q 483 214 484 175 m 494 694 q 618 910 494 837 q 681 937 650 928 l 681 1017 l 736 1017 l 736 863 q 640 817 688 860 q 585 690 586 765 q 718 557 585 598 q 736 552 727 555 l 736 454 q 661 475 678 468 q 514 590 548 519 q 494 694 494 635 m 802 -64 l 802 83 q 920 137 860 84 q 989 281 989 197 q 850 426 989 384 q 802 438 829 431 l 802 533 q 907 506 878 517 q 1063 378 1028 463 q 1081 278 1081 335 q 991 76 1081 161 q 857 4 932 20 l 857 -64 l 802 -64 m 802 863 l 802 1017 l 857 1017 l 857 940 q 1017 812 956 914 q 1043 750 1038 777 l 958 722 q 928 787 948 758 q 888 829 909 815 q 847 851 867 842 q 814 861 827 860 l 802 863 z "},"ų":{"ha":624,"x_min":52,"x_max":572,"o":"m 479 -244 q 296 -140 346 -244 q 277 -54 277 -99 l 351 -54 q 423 -163 351 -134 q 479 -172 450 -172 l 479 -244 m 52 191 l 52 719 l 142 719 l 142 202 q 195 111 142 151 q 283 83 236 83 l 283 -7 q 85 94 153 -7 q 52 191 52 145 m 342 -7 l 342 83 q 464 146 422 83 q 481 202 481 175 l 481 719 l 572 719 l 572 191 q 517 69 572 130 q 342 -7 446 -5 z "},"ů":{"ha":624,"x_min":52,"x_max":572,"o":"m 210 932 q 263 1020 210 991 q 312 1034 286 1034 q 400 981 372 1034 q 414 932 414 958 q 361 844 414 872 q 312 830 338 830 q 224 883 252 830 q 210 932 210 906 m 269 932 q 298 890 269 899 q 312 888 307 888 q 354 918 345 888 q 355 932 355 926 q 326 974 355 964 q 312 975 317 975 q 270 945 279 975 q 269 932 269 937 m 52 191 l 52 719 l 142 719 l 142 202 q 195 111 142 151 q 283 83 236 83 l 283 -7 q 85 94 153 -7 q 52 191 52 145 m 342 -7 l 342 83 q 464 146 422 83 q 481 202 481 175 l 481 719 l 572 719 l 572 191 q 517 69 572 130 q 342 -7 446 -5 z "},"v":{"ha":563,"x_min":12,"x_max":551,"o":"m 12 719 l 113 719 l 331 83 l 301 0 l 252 0 l 12 719 m 302 301 l 450 719 l 551 719 l 362 176 l 346 176 l 302 301 z "},"ඃ":{"ha":522,"x_min":42,"x_max":480,"o":"m 296 -9 l 296 69 q 388 136 366 69 q 395 175 395 155 q 345 267 395 240 q 296 279 321 279 l 296 357 l 313 357 q 463 260 420 357 q 480 174 480 220 q 411 20 480 72 q 313 -9 369 -9 l 296 -9 m 209 -9 q 61 85 103 -9 q 42 174 42 126 q 111 327 42 275 q 209 357 153 357 l 228 357 l 228 279 q 134 214 157 279 q 127 175 127 195 q 179 80 127 109 q 228 69 201 69 l 228 -9 l 209 -9 m 296 404 l 296 483 q 388 549 366 483 q 395 589 395 568 q 345 681 395 654 q 296 693 321 693 l 296 770 l 313 770 q 463 674 420 770 q 480 587 480 633 q 411 434 480 486 q 313 404 369 404 l 296 404 m 209 404 q 61 499 103 404 q 42 587 42 540 q 111 741 42 689 q 209 770 153 770 l 228 770 l 228 693 q 134 628 157 693 q 127 589 127 609 q 179 494 127 522 q 228 483 201 483 l 228 404 l 209 404 z "},"w":{"ha":981,"x_min":12,"x_max":968,"o":"m 12 720 l 255 1 l 302 1 l 331 84 l 113 720 l 12 720 m 302 302 l 346 178 l 362 178 l 491 568 l 682 1 l 731 1 l 758 84 l 541 720 l 439 720 l 302 302 m 731 302 l 773 178 l 789 178 l 968 720 l 868 720 l 731 302 z "},"x":{"ha":528,"x_min":11,"x_max":517,"o":"m 11 0 l 213 365 l 16 720 l 107 720 l 264 453 l 420 719 l 513 719 l 317 365 l 517 0 l 427 0 l 264 279 l 100 0 l 11 0 z "},"y":{"ha":544,"x_min":7,"x_max":540,"o":"m 7 719 l 99 719 l 315 156 l 179 -254 l 88 -254 l 221 157 l 7 719 m 300 358 l 446 719 l 540 719 l 349 240 l 339 240 l 300 358 z "},"ý":{"ha":544,"x_min":7,"x_max":540,"o":"m 266 806 l 316 1012 l 403 1012 l 328 806 l 266 806 m 7 719 l 99 719 l 315 156 l 179 -254 l 88 -254 l 221 157 l 7 719 m 300 358 l 446 719 l 540 719 l 349 240 l 339 240 l 300 358 z "},"ÿ":{"ha":544,"x_min":7,"x_max":540,"o":"m 136 860 q 171 910 136 897 q 191 914 182 914 q 244 879 231 914 q 247 860 247 869 q 210 807 247 821 q 191 804 201 804 q 140 838 155 804 q 136 860 136 849 m 298 860 q 334 910 298 897 q 354 914 345 914 q 407 879 393 914 q 410 860 410 869 q 373 807 410 821 q 354 804 363 804 q 302 838 317 804 q 298 860 298 849 m 7 719 l 99 719 l 315 156 l 179 -254 l 88 -254 l 221 157 l 7 719 m 300 358 l 446 719 l 540 719 l 349 240 l 339 240 l 300 358 z "},"¥":{"ha":612,"x_min":27,"x_max":593,"o":"m 264 0 l 355 0 l 355 240 l 593 240 l 593 296 l 355 296 l 355 370 l 593 370 l 593 425 l 374 425 l 551 947 l 458 947 l 311 519 l 161 947 l 69 947 l 247 425 l 27 425 l 27 370 l 264 370 l 264 296 l 27 296 l 27 240 l 264 240 l 264 0 z "},"z":{"ha":494,"x_min":41,"x_max":453,"o":"m 41 0 l 42 85 l 354 632 l 41 632 l 41 719 l 453 719 l 453 637 l 141 87 l 453 87 l 453 0 l 41 0 z "},"ź":{"ha":494,"x_min":41,"x_max":453,"o":"m 216 802 l 266 1008 l 353 1008 l 278 802 l 216 802 m 41 0 l 42 85 l 354 632 l 41 632 l 41 719 l 453 719 l 453 637 l 141 87 l 453 87 l 453 0 l 41 0 z "},"ž":{"ha":494,"x_min":41,"x_max":453,"o":"m 118 1008 l 184 1008 l 250 876 l 313 1008 l 380 1008 l 277 802 l 221 802 l 118 1008 m 41 0 l 42 85 l 354 632 l 41 632 l 41 719 l 453 719 l 453 637 l 141 87 l 453 87 l 453 0 l 41 0 z "},"ż":{"ha":494,"x_min":41,"x_max":453,"o":"m 189 860 q 224 914 189 899 q 247 920 236 920 q 301 883 286 920 q 305 860 305 872 q 269 806 305 819 q 247 802 258 802 q 193 838 206 802 q 189 860 189 849 m 41 0 l 42 85 l 354 632 l 41 632 l 41 719 l 453 719 l 453 637 l 141 87 l 453 87 l 453 0 l 41 0 z "},"‍":{"ha":0,"x_min":-243,"x_max":241,"o":"m -42 9 l 42 9 l 42 768 l 191 663 l 235 723 l 65 841 l 241 966 l 198 1025 l 0 887 l -198 1025 l -243 967 l -64 842 l -235 723 l -189 663 l -42 766 l -42 9 z "},"‌":{"ha":0,"x_min":-43,"x_max":42,"o":"m -43 8 l -43 1021 l 42 1021 l 42 8 l -43 8 z "}}}
